<svg xmlns="http://www.w3.org/2000/svg" xmlns:xlink="http://www.w3.org/1999/xlink" contentStyleType="text/css" data-diagram-type="SEQUENCE" height="501px" preserveAspectRatio="none" style="width:885px;height:501px;background:#FFFFFF;" version="1.1" viewBox="0 0 885 501" width="885px" zoomAndPan="magnify"><defs/><g><g><title>Student</title><rect fill="#000000" fill-opacity="0.00000" height="412.7266" width="8" x="31.5557" y="81.2969"/><line style="stroke:#181818;stroke-width:0.5;stroke-dasharray:5,5;" x1="35" x2="35" y1="81.2969" y2="494.0234"/></g><g><title>CampusCardController</title><rect fill="#000000" fill-opacity="0.00000" height="412.7266" width="8" x="206.9155" y="81.2969"/><line style="stroke:#181818;stroke-width:0.5;stroke-dasharray:5,5;" x1="210.3076" x2="210.3076" y1="81.2969" y2="494.0234"/></g><g><title>CampusCardFacade</title><rect fill="#000000" fill-opacity="0.00000" height="412.7266" width="8" x="372.749" y="81.2969"/><line style="stroke:#181818;stroke-width:0.5;stroke-dasharray:5,5;" x1="376.5234" x2="376.5234" y1="81.2969" y2="494.0234"/></g><g><title>CampusCardRepository</title><rect fill="#000000" fill-opacity="0.00000" height="412.7266" width="8" x="541.5322" y="81.2969"/><line style="stroke:#181818;stroke-width:0.5;stroke-dasharray:5,5;" x1="544.9746" x2="544.9746" y1="81.2969" y2="494.0234"/></g><g><title>CampusCard</title><rect fill="#000000" fill-opacity="0.00000" height="412.7266" width="8" x="685.1113" y="81.2969"/><line style="stroke:#181818;stroke-width:0.5;stroke-dasharray:5,5;" x1="689.0898" x2="689.0898" y1="81.2969" y2="494.0234"/></g><g><title>TransactionRecord</title><rect fill="#000000" fill-opacity="0.00000" height="412.7266" width="8" x="811.8296" y="81.2969"/><line style="stroke:#181818;stroke-width:0.5;stroke-dasharray:5,5;" x1="815.1328" x2="815.1328" y1="81.2969" y2="494.0234"/></g><g class="participant participant-head" data-participant="Student"><text fill="#000000" font-family="sans-serif" font-size="14" lengthAdjust="spacing" textLength="55.1113" x="5" y="77.9951">Student</text><ellipse cx="35.5557" cy="13.5" fill="#E2E2F0" rx="8" ry="8" style="stroke:#181818;stroke-width:0.5;"/><path d="M35.5557,21.5 L35.5557,48.5 M22.5557,29.5 L48.5557,29.5 M35.5557,48.5 L22.5557,63.5 M35.5557,48.5 L48.5557,63.5" fill="none" style="stroke:#181818;stroke-width:0.5;"/></g><g class="participant participant-head" data-participant="CampusCardController"><text fill="#000000" font-family="sans-serif" font-size="14" lengthAdjust="spacing" textLength="159.2158" x="128.3076" y="77.9951">CampusCardController</text><path d="M190.4155,37 L190.4155,61 M190.4155,49 L207.4155,49" fill="none" style="stroke:#181818;stroke-width:0.5;"/><ellipse cx="219.4155" cy="49" fill="#E2E2F0" rx="12" ry="12" style="stroke:#181818;stroke-width:0.5;"/></g><g class="participant participant-head" data-participant="CampusCardFacade"><text fill="#000000" font-family="sans-serif" font-size="14" lengthAdjust="spacing" textLength="140.4512" x="303.5234" y="77.9951">CampusCardFacade</text><ellipse cx="376.749" cy="49" fill="#E2E2F0" rx="12" ry="12" style="stroke:#181818;stroke-width:0.5;"/><polygon fill="#181818" points="372.749,37,378.749,32,376.749,37,378.749,42,372.749,37" style="stroke:#181818;stroke-width:1;"/></g><g class="participant participant-head" data-participant="CampusCardRepository"><text fill="#000000" font-family="sans-serif" font-size="14" lengthAdjust="spacing" textLength="165.1152" x="459.9746" y="77.9951">CampusCardRepository</text><ellipse cx="545.5322" cy="49" fill="#E2E2F0" rx="12" ry="12" style="stroke:#181818;stroke-width:0.5;"/><polygon fill="#181818" points="541.5322,37,547.5322,32,545.5322,37,547.5322,42,541.5322,37" style="stroke:#181818;stroke-width:1;"/></g><g class="participant participant-head" data-participant="CampusCard"><text fill="#000000" font-family="sans-serif" font-size="14" lengthAdjust="spacing" textLength="90.043" x="641.0898" y="77.9951">CampusCard</text><ellipse cx="689.1113" cy="49" fill="#E2E2F0" rx="12" ry="12" style="stroke:#181818;stroke-width:0.5;"/><line style="stroke:#181818;stroke-width:0.5;" x1="677.1113" x2="701.1113" y1="63" y2="63"/></g><g class="participant participant-head" data-participant="TransactionRecord"><text fill="#000000" font-family="sans-serif" font-size="14" lengthAdjust="spacing" textLength="131.3936" x="747.1328" y="77.9951">TransactionRecord</text><ellipse cx="815.8296" cy="49" fill="#E2E2F0" rx="12" ry="12" style="stroke:#181818;stroke-width:0.5;"/><line style="stroke:#181818;stroke-width:0.5;" x1="803.8296" x2="827.8296" y1="63" y2="63"/></g><g class="message" data-participant-1="Student" data-participant-2="CampusCardController"><polygon fill="#181818" points="198.9155,108.4297,208.9155,112.4297,198.9155,116.4297" style="stroke:#181818;stroke-width:1;"/><line style="stroke:#181818;stroke-width:1;" x1="35.5557" x2="204.9155" y1="112.4297" y2="112.4297"/><text fill="#000000" font-family="sans-serif" font-size="13" lengthAdjust="spacing" textLength="120.1548" x="42.5557" y="107.3638">getBalance(token)</text></g><g class="message" data-participant-1="CampusCardController" data-participant-2="CampusCardFacade"><polygon fill="#181818" points="364.749,137.5625,374.749,141.5625,364.749,145.5625" style="stroke:#181818;stroke-width:1;"/><line style="stroke:#181818;stroke-width:1;" x1="210.9155" x2="370.749" y1="141.5625" y2="141.5625"/><text fill="#000000" font-family="sans-serif" font-size="13" lengthAdjust="spacing" textLength="139.9595" x="217.9155" y="136.4966">queryBalance(userId)</text></g><g class="message" data-participant-1="CampusCardFacade" data-participant-2="CampusCardRepository"><polygon fill="#181818" points="533.5322,166.6953,543.5322,170.6953,533.5322,174.6953" style="stroke:#181818;stroke-width:1;"/><line style="stroke:#181818;stroke-width:1;" x1="376.749" x2="539.5322" y1="170.6953" y2="170.6953"/><text fill="#000000" font-family="sans-serif" font-size="13" lengthAdjust="spacing" textLength="133.5928" x="383.749" y="165.6294">findByUserId(userId)</text></g><g class="message" data-participant-1="CampusCardRepository" data-participant-2="CampusCardFacade"><polygon fill="#181818" points="387.749,195.8281,377.749,199.8281,387.749,203.8281" style="stroke:#181818;stroke-width:1;"/><line style="stroke:#181818;stroke-width:1;stroke-dasharray:2,2;" x1="381.749" x2="544.5322" y1="199.8281" y2="199.8281"/><text fill="#000000" font-family="sans-serif" font-size="13" lengthAdjust="spacing" textLength="83.6113" x="393.749" y="194.7622">CampusCard</text></g><g class="message" data-participant-1="CampusCardFacade" data-participant-2="CampusCardController"><polygon fill="#181818" points="221.9155,224.9609,211.9155,228.9609,221.9155,232.9609" style="stroke:#181818;stroke-width:1;"/><line style="stroke:#181818;stroke-width:1;stroke-dasharray:2,2;" x1="215.9155" x2="375.749" y1="228.9609" y2="228.9609"/><text fill="#000000" font-family="sans-serif" font-size="13" lengthAdjust="spacing" textLength="51.1812" x="227.9155" y="223.895">balance</text></g><g class="message" data-participant-1="CampusCardController" data-participant-2="Student"><polygon fill="#181818" points="46.5557,254.0938,36.5557,258.0938,46.5557,262.0938" style="stroke:#181818;stroke-width:1;"/><line style="stroke:#181818;stroke-width:1;stroke-dasharray:2,2;" x1="40.5557" x2="209.9155" y1="258.0938" y2="258.0938"/><text fill="#000000" font-family="sans-serif" font-size="13" lengthAdjust="spacing" textLength="51.1812" x="52.5557" y="253.0278">balance</text></g><g class="message" data-participant-1="Student" data-participant-2="CampusCardController"><polygon fill="#181818" points="198.9155,283.2266,208.9155,287.2266,198.9155,291.2266" style="stroke:#181818;stroke-width:1;"/><line style="stroke:#181818;stroke-width:1;" x1="35.5557" x2="204.9155" y1="287.2266" y2="287.2266"/><text fill="#000000" font-family="sans-serif" font-size="13" lengthAdjust="spacing" textLength="151.3599" x="42.5557" y="282.1606">getTransactions(token)</text></g><g class="message" data-participant-1="CampusCardController" data-participant-2="CampusCardFacade"><polygon fill="#181818" points="364.749,312.3594,374.749,316.3594,364.749,320.3594" style="stroke:#181818;stroke-width:1;"/><line style="stroke:#181818;stroke-width:1;" x1="210.9155" x2="370.749" y1="316.3594" y2="316.3594"/><text fill="#000000" font-family="sans-serif" font-size="13" lengthAdjust="spacing" textLength="134.3608" x="217.9155" y="311.2935">queryHistory(userId)</text></g><g class="message" data-participant-1="CampusCardFacade" data-participant-2="CampusCardRepository"><polygon fill="#181818" points="533.5322,341.4922,543.5322,345.4922,533.5322,349.4922" style="stroke:#181818;stroke-width:1;"/><line style="stroke:#181818;stroke-width:1;" x1="376.749" x2="539.5322" y1="345.4922" y2="345.4922"/><text fill="#000000" font-family="sans-serif" font-size="13" lengthAdjust="spacing" textLength="133.5928" x="383.749" y="340.4263">findByUserId(userId)</text></g><g class="message" data-participant-1="CampusCardRepository" data-participant-2="CampusCardFacade"><polygon fill="#181818" points="387.749,370.625,377.749,374.625,387.749,378.625" style="stroke:#181818;stroke-width:1;"/><line style="stroke:#181818;stroke-width:1;stroke-dasharray:2,2;" x1="381.749" x2="544.5322" y1="374.625" y2="374.625"/><text fill="#000000" font-family="sans-serif" font-size="13" lengthAdjust="spacing" textLength="83.6113" x="393.749" y="369.5591">CampusCard</text></g><g class="message" data-participant-1="CampusCardFacade" data-participant-2="CampusCard"><polygon fill="#181818" points="677.1113,399.7578,687.1113,403.7578,677.1113,407.7578" style="stroke:#181818;stroke-width:1;"/><line style="stroke:#181818;stroke-width:1;" x1="376.749" x2="683.1113" y1="403.7578" y2="403.7578"/><text fill="#000000" font-family="sans-serif" font-size="13" lengthAdjust="spacing" textLength="160.272" x="383.749" y="398.6919">getTransactionRecords()</text></g><g class="message" data-participant-1="CampusCard" data-participant-2="CampusCardFacade"><polygon fill="#181818" points="387.749,428.8906,377.749,432.8906,387.749,436.8906" style="stroke:#181818;stroke-width:1;"/><line style="stroke:#181818;stroke-width:1;stroke-dasharray:2,2;" x1="381.749" x2="688.1113" y1="432.8906" y2="432.8906"/><text fill="#000000" font-family="sans-serif" font-size="13" lengthAdjust="spacing" textLength="166.5181" x="393.749" y="427.8247">List&lt;TransactionRecord&gt;</text></g><g class="message" data-participant-1="CampusCardFacade" data-participant-2="CampusCardController"><polygon fill="#181818" points="221.9155,442.8906,211.9155,446.8906,221.9155,450.8906" style="stroke:#181818;stroke-width:1;"/><line style="stroke:#181818;stroke-width:1;stroke-dasharray:2,2;" x1="215.9155" x2="375.749" y1="446.8906" y2="446.8906"/></g><g class="message" data-participant-1="CampusCardController" data-participant-2="Student"><polygon fill="#181818" points="46.5557,472.0234,36.5557,476.0234,46.5557,480.0234" style="stroke:#181818;stroke-width:1;"/><line style="stroke:#181818;stroke-width:1;stroke-dasharray:2,2;" x1="40.5557" x2="209.9155" y1="476.0234" y2="476.0234"/><text fill="#000000" font-family="sans-serif" font-size="13" lengthAdjust="spacing" textLength="96.1606" x="52.5557" y="470.9575">transactionList</text></g><!--SRC=[pLBDIiD04BxlK-onFVIWu4MaO0DImKEfzG6cksDTakp6cLaaR-_MMBCb2LHFNaB8pFSxuTBv1WXgpT9Mc9xaZCIwKjnFy3sYDtXF53vsRywK7fdrLRQo0H9dN0DUDc2jymTzVQCK60cadoLQzABKFaHlWLfTGDr4Be1i4RnGg2eaPRhNRFW01YoE3BRO17Q9krM9s4dEUFgo8_2S3BZWjsX26gXl8tgn77MWR_K1PGKLfB0p2INwkHfTF2FeN2PmQedQ4pmoqgETApLOF0FtIHB1g_DsrRvy8Ny8HdSNumwo5aPqfsFlEzCJOHFkr5o_Uc6RsHNuhvMk7Hz3_yTASyWWSFVRyImNd99vIXdl1jZbByvuoV6a5pWAVW80]--></g></svg>