<svg xmlns="http://www.w3.org/2000/svg" xmlns:xlink="http://www.w3.org/1999/xlink" contentStyleType="text/css" data-diagram-type="SEQUENCE" height="396px" preserveAspectRatio="none" style="width:1346px;height:396px;background:#FFFFFF;" version="1.1" viewBox="0 0 1346 396" width="1346px" zoomAndPan="magnify"><defs/><g><g><title>CampusCardTopUp</title><rect fill="#FFFFFF" height="209.6641" style="stroke:#181818;stroke-width:1;" width="10" x="611.2822" y="170.6953"/></g><g><title>Student</title><rect fill="#000000" fill-opacity="0.00000" height="308.0625" width="8" x="31.5557" y="81.2969"/><line style="stroke:#181818;stroke-width:0.5;stroke-dasharray:5,5;" x1="35" x2="35" y1="81.2969" y2="389.3594"/></g><g><title>CampusCardController</title><rect fill="#000000" fill-opacity="0.00000" height="308.0625" width="8" x="200.0093" y="81.2969"/><line style="stroke:#181818;stroke-width:0.5;stroke-dasharray:5,5;" x1="203.4014" x2="203.4014" y1="81.2969" y2="389.3594"/></g><g><title>CampusCardFacade</title><rect fill="#000000" fill-opacity="0.00000" height="308.0625" width="8" x="427.1025" y="81.2969"/><line style="stroke:#181818;stroke-width:0.5;stroke-dasharray:5,5;" x1="430.877" x2="430.877" y1="81.2969" y2="389.3594"/></g><g><title>CampusCardTopUp</title><rect fill="#000000" fill-opacity="0.00000" height="308.0625" width="8" x="612.2822" y="81.2969"/><line style="stroke:#181818;stroke-width:0.5;stroke-dasharray:5,5;" x1="615.6919" x2="615.6919" y1="81.2969" y2="389.3594"/></g><g><title>PaymentAdapter</title><rect fill="#000000" fill-opacity="0.00000" height="308.0625" width="8" x="819.2832" y="81.2969"/><line style="stroke:#181818;stroke-width:0.5;stroke-dasharray:5,5;" x1="822.4292" x2="822.4292" y1="81.2969" y2="389.3594"/></g><g><title>CampusCardRepository</title><rect fill="#000000" fill-opacity="0.00000" height="308.0625" width="8" x="976.6948" y="81.2969"/><line style="stroke:#181818;stroke-width:0.5;stroke-dasharray:5,5;" x1="980.1372" x2="980.1372" y1="81.2969" y2="389.3594"/></g><g><title>TopUpTransaction</title><rect fill="#000000" fill-opacity="0.00000" height="308.0625" width="8" x="1138.895" y="81.2969"/><line style="stroke:#181818;stroke-width:0.5;stroke-dasharray:5,5;" x1="1142.2524" x2="1142.2524" y1="81.2969" y2="389.3594"/></g><g><title>BalanceObserver</title><rect fill="#000000" fill-opacity="0.00000" height="308.0625" width="8" x="1278.5674" y="81.2969"/><line style="stroke:#181818;stroke-width:0.5;stroke-dasharray:5,5;" x1="1282.5376" x2="1282.5376" y1="81.2969" y2="389.3594"/></g><g class="participant participant-head" data-participant="Student"><text fill="#000000" font-family="sans-serif" font-size="14" lengthAdjust="spacing" textLength="55.1113" x="5" y="77.9951">Student</text><ellipse cx="35.5557" cy="13.5" fill="#E2E2F0" rx="8" ry="8" style="stroke:#181818;stroke-width:0.5;"/><path d="M35.5557,21.5 L35.5557,48.5 M22.5557,29.5 L48.5557,29.5 M35.5557,48.5 L22.5557,63.5 M35.5557,48.5 L48.5557,63.5" fill="none" style="stroke:#181818;stroke-width:0.5;"/></g><g class="participant participant-head" data-participant="CampusCardController"><text fill="#000000" font-family="sans-serif" font-size="14" lengthAdjust="spacing" textLength="159.2158" x="121.4014" y="77.9951">CampusCardController</text><path d="M183.5093,37 L183.5093,61 M183.5093,49 L200.5093,49" fill="none" style="stroke:#181818;stroke-width:0.5;"/><ellipse cx="212.5093" cy="49" fill="#E2E2F0" rx="12" ry="12" style="stroke:#181818;stroke-width:0.5;"/></g><g class="participant participant-head" data-participant="CampusCardFacade"><text fill="#000000" font-family="sans-serif" font-size="14" lengthAdjust="spacing" textLength="140.4512" x="357.877" y="77.9951">CampusCardFacade</text><ellipse cx="431.1025" cy="49" fill="#E2E2F0" rx="12" ry="12" style="stroke:#181818;stroke-width:0.5;"/><polygon fill="#181818" points="427.1025,37,433.1025,32,431.1025,37,433.1025,42,427.1025,37" style="stroke:#181818;stroke-width:1;"/></g><g class="participant participant-head" data-participant="CampusCardTopUp"><text fill="#000000" font-family="sans-serif" font-size="14" lengthAdjust="spacing" textLength="135.1807" x="545.6919" y="77.9951">CampusCardTopUp</text><ellipse cx="616.2822" cy="49" fill="#E2E2F0" rx="12" ry="12" style="stroke:#181818;stroke-width:0.5;"/><polygon fill="#181818" points="612.2822,37,618.2822,32,616.2822,37,618.2822,42,612.2822,37" style="stroke:#181818;stroke-width:1;"/></g><g class="participant participant-head" data-participant="PaymentAdapter"><text fill="#000000" font-family="sans-serif" font-size="14" lengthAdjust="spacing" textLength="117.708" x="761.4292" y="77.9951">PaymentAdapter</text><ellipse cx="823.2832" cy="49" fill="#E2E2F0" rx="12" ry="12" style="stroke:#181818;stroke-width:0.5;"/><polygon fill="#181818" points="819.2832,37,825.2832,32,823.2832,37,825.2832,42,819.2832,37" style="stroke:#181818;stroke-width:1;"/></g><g class="participant participant-head" data-participant="CampusCardRepository"><text fill="#000000" font-family="sans-serif" font-size="14" lengthAdjust="spacing" textLength="165.1152" x="895.1372" y="77.9951">CampusCardRepository</text><ellipse cx="980.6948" cy="49" fill="#E2E2F0" rx="12" ry="12" style="stroke:#181818;stroke-width:0.5;"/><polygon fill="#181818" points="976.6948,37,982.6948,32,980.6948,37,982.6948,42,976.6948,37" style="stroke:#181818;stroke-width:1;"/></g><g class="participant participant-head" data-participant="TopUpTransaction"><text fill="#000000" font-family="sans-serif" font-size="14" lengthAdjust="spacing" textLength="127.2852" x="1076.2524" y="77.9951">TopUpTransaction</text><ellipse cx="1142.895" cy="49" fill="#E2E2F0" rx="12" ry="12" style="stroke:#181818;stroke-width:0.5;"/><line style="stroke:#181818;stroke-width:0.5;" x1="1130.895" x2="1154.895" y1="63" y2="63"/></g><g class="participant participant-head" data-participant="BalanceObserver"><text fill="#000000" font-family="sans-serif" font-size="14" lengthAdjust="spacing" textLength="120.0596" x="1219.5376" y="77.9951">BalanceObserver</text><ellipse cx="1282.5674" cy="49" fill="#E2E2F0" rx="12" ry="12" style="stroke:#181818;stroke-width:0.5;"/><polygon fill="#181818" points="1278.5674,37,1284.5674,32,1282.5674,37,1284.5674,42,1278.5674,37" style="stroke:#181818;stroke-width:1;"/></g><g><title>CampusCardTopUp</title><rect fill="#FFFFFF" height="209.6641" style="stroke:#181818;stroke-width:1;" width="10" x="611.2822" y="170.6953"/></g><g class="message" data-participant-1="Student" data-participant-2="CampusCardController"><polygon fill="#181818" points="192.0093,108.4297,202.0093,112.4297,192.0093,116.4297" style="stroke:#181818;stroke-width:1;"/><line style="stroke:#181818;stroke-width:1;" x1="35.5557" x2="198.0093" y1="112.4297" y2="112.4297"/><text fill="#000000" font-family="sans-serif" font-size="13" lengthAdjust="spacing" textLength="144.4536" x="42.5557" y="107.3638">topUp(token, amount)</text></g><g class="message" data-participant-1="CampusCardController" data-participant-2="CampusCardFacade"><polygon fill="#181818" points="419.1025,137.5625,429.1025,141.5625,419.1025,145.5625" style="stroke:#181818;stroke-width:1;"/><line style="stroke:#181818;stroke-width:1;" x1="204.0093" x2="425.1025" y1="141.5625" y2="141.5625"/><text fill="#000000" font-family="sans-serif" font-size="13" lengthAdjust="spacing" textLength="203.0933" x="211.0093" y="136.4966">executeTopUp(userId, amount)</text></g><g class="message" data-participant-1="CampusCardFacade" data-participant-2="CampusCardTopUp"><polygon fill="#181818" points="599.2822,166.6953,609.2822,170.6953,599.2822,174.6953" style="stroke:#181818;stroke-width:1;"/><line style="stroke:#181818;stroke-width:1;" x1="431.1025" x2="605.2822" y1="170.6953" y2="170.6953"/><text fill="#000000" font-family="sans-serif" font-size="13" lengthAdjust="spacing" textLength="161.1797" x="438.1025" y="165.6294">execute(userId, amount)</text></g><g class="message" data-participant-1="CampusCardTopUp" data-participant-2="CampusCardTopUp"><line style="stroke:#181818;stroke-width:1;" x1="621.2822" x2="663.2822" y1="199.8281" y2="199.8281"/><line style="stroke:#181818;stroke-width:1;" x1="663.2822" x2="663.2822" y1="199.8281" y2="212.8281"/><line style="stroke:#181818;stroke-width:1;" x1="622.2822" x2="663.2822" y1="212.8281" y2="212.8281"/><polygon fill="#181818" points="632.2822,208.8281,622.2822,212.8281,632.2822,216.8281" style="stroke:#181818;stroke-width:1;"/><text fill="#000000" font-family="sans-serif" font-size="13" lengthAdjust="spacing" textLength="161.2051" x="628.2822" y="194.7622">validate(userId, amount)</text></g><g class="message" data-participant-1="CampusCardTopUp" data-participant-2="PaymentAdapter"><polygon fill="#181818" points="811.2832,237.9609,821.2832,241.9609,811.2832,245.9609" style="stroke:#181818;stroke-width:1;"/><line style="stroke:#181818;stroke-width:1;" x1="621.2822" x2="817.2832" y1="241.9609" y2="241.9609"/><text fill="#000000" font-family="sans-serif" font-size="13" lengthAdjust="spacing" textLength="178.001" x="628.2822" y="236.895">pay(transactionId, amount)</text></g><g class="message" data-participant-1="PaymentAdapter" data-participant-2="CampusCardTopUp"><polygon fill="#181818" points="632.2822,251.9609,622.2822,255.9609,632.2822,259.9609" style="stroke:#181818;stroke-width:1;"/><line style="stroke:#181818;stroke-width:1;stroke-dasharray:2,2;" x1="626.2822" x2="822.2832" y1="255.9609" y2="255.9609"/></g><g class="message" data-participant-1="CampusCardTopUp" data-participant-2="CampusCardRepository"><polygon fill="#181818" points="968.6948,281.0938,978.6948,285.0938,968.6948,289.0938" style="stroke:#181818;stroke-width:1;"/><line style="stroke:#181818;stroke-width:1;" x1="621.2822" x2="974.6948" y1="285.0938" y2="285.0938"/><text fill="#000000" font-family="sans-serif" font-size="13" lengthAdjust="spacing" textLength="129.6445" x="628.2822" y="280.0278">saveTransaction(tx)</text></g><g class="message" data-participant-1="CampusCardRepository" data-participant-2="CampusCardTopUp"><polygon fill="#181818" points="632.2822,295.0938,622.2822,299.0938,632.2822,303.0938" style="stroke:#181818;stroke-width:1;"/><line style="stroke:#181818;stroke-width:1;stroke-dasharray:2,2;" x1="626.2822" x2="979.6948" y1="299.0938" y2="299.0938"/></g><g class="message" data-participant-1="CampusCardTopUp" data-participant-2="CampusCardRepository"><polygon fill="#181818" points="968.6948,324.2266,978.6948,328.2266,968.6948,332.2266" style="stroke:#181818;stroke-width:1;"/><line style="stroke:#181818;stroke-width:1;" x1="621.2822" x2="974.6948" y1="328.2266" y2="328.2266"/><text fill="#000000" font-family="sans-serif" font-size="13" lengthAdjust="spacing" textLength="235.5742" x="628.2822" y="323.1606">updateBalance(cardId, newBalance)</text></g><g class="message" data-participant-1="CampusCardRepository" data-participant-2="CampusCardTopUp"><polygon fill="#181818" points="632.2822,338.2266,622.2822,342.2266,632.2822,346.2266" style="stroke:#181818;stroke-width:1;"/><line style="stroke:#181818;stroke-width:1;stroke-dasharray:2,2;" x1="626.2822" x2="979.6948" y1="342.2266" y2="342.2266"/></g><g class="message" data-participant-1="CampusCardTopUp" data-participant-2="BalanceObserver"><polygon fill="#181818" points="1270.5674,367.3594,1280.5674,371.3594,1270.5674,375.3594" style="stroke:#181818;stroke-width:1;"/><line style="stroke:#181818;stroke-width:1;" x1="621.2822" x2="1276.5674" y1="371.3594" y2="371.3594"/><text fill="#000000" font-family="sans-serif" font-size="13" lengthAdjust="spacing" textLength="188.4365" x="628.2822" y="366.2935">onBalanceChanged(cardId, n</text></g><!--SRC=[fPBFJiCm3CRlUOeSYyGE877XW3Gg8N5YWl40Nc9jqLed94wtlZtkLgtTMea3bwgo_Vq-_qdQEmeGeTQ9smhb6vtXN5Sg3HdyoKW6bp7wmthdp9um9VqmAbb1P6TS0E8LMEjegn-Vb0B3FkelpXQ9bThuJ1PYgqkeGqubH5jwukYh2gCovzzHyWqCM9n9h7tu3fVu2jfQ-4iBWMSvdnXySj9AgwJESQjFW7K4IjAYytGHlK85Ckh79c5i1ARwvlNYPRPh_QovOnNizqZt6cgPaU_KREqLupoSwF689ZEUMYgo-BxRWQCcWYl8IJGm9l9kkWOO9xjJjunPR0ELip33dPDVdq7K0Tg2XnsFzJUrYwdx7nqE9nMZ10sEZbdmSNo0KUa_VNBebj4_aS98kfk9yD27_kbwy_R4q5CVAtT0MxI3voy0]--></g></svg>