<svg xmlns="http://www.w3.org/2000/svg" xmlns:xlink="http://www.w3.org/1999/xlink" contentStyleType="text/css" data-diagram-type="SEQUENCE" height="1123px" preserveAspectRatio="none" style="width:2244px;height:1123px;background:#FFFFFF;" version="1.1" viewBox="0 0 2244 1123" width="2244px" zoomAndPan="magnify"><defs/><g><rect fill="none" height="294.1328" style="stroke:#000000;stroke-width:1.5;" width="2227.2056" x="10" y="805.3516"/><g><title>Student</title><rect fill="#000000" fill-opacity="0.00000" height="1035.1875" width="8" x="46.5557" y="81.2969"/><line style="stroke:#181818;stroke-width:0.5;stroke-dasharray:5,5;" x1="50" x2="50" y1="81.2969" y2="1116.4844"/></g><g><title>OrderingInterface</title><rect fill="#000000" fill-opacity="0.00000" height="1035.1875" width="8" x="318.6855" y="81.2969"/><line style="stroke:#181818;stroke-width:0.5;stroke-dasharray:5,5;" x1="322.5059" x2="322.5059" y1="81.2969" y2="1116.4844"/></g><g><title>SecurityFilter</title><rect fill="#000000" fill-opacity="0.00000" height="1035.1875" width="8" x="444.5908" y="81.2969"/><line style="stroke:#181818;stroke-width:0.5;stroke-dasharray:5,5;" x1="448.0005" x2="448.0005" y1="81.2969" y2="1116.4844"/></g><g><title>JWTTokenService</title><rect fill="#000000" fill-opacity="0.00000" height="1035.1875" width="8" x="607.4077" y="81.2969"/><line style="stroke:#181818;stroke-width:0.5;stroke-dasharray:5,5;" x1="610.9199" x2="610.9199" y1="81.2969" y2="1116.4844"/></g><g><title>OrderController</title><rect fill="#000000" fill-opacity="0.00000" height="1035.1875" width="8" x="738.4976" y="81.2969"/><line style="stroke:#181818;stroke-width:0.5;stroke-dasharray:5,5;" x1="741.8955" x2="741.8955" y1="81.2969" y2="1116.4844"/></g><g><title>MenuCacheService</title><rect fill="#000000" fill-opacity="0.00000" height="1035.1875" width="8" x="970.8276" y="81.2969"/><line style="stroke:#181818;stroke-width:0.5;stroke-dasharray:5,5;" x1="973.9688" x2="973.9688" y1="81.2969" y2="1116.4844"/></g><g><title>Redis</title><rect fill="#000000" fill-opacity="0.00000" height="1035.1875" width="8" x="1156.8008" y="81.2969"/><line style="stroke:#181818;stroke-width:0.5;stroke-dasharray:5,5;" x1="1160.5952" x2="1160.5952" y1="81.2969" y2="1116.4844"/></g><g><title>OrderRepository</title><rect fill="#000000" fill-opacity="0.00000" height="1035.1875" width="8" x="1424.0557" y="81.2969"/><line style="stroke:#181818;stroke-width:0.5;stroke-dasharray:5,5;" x1="1427.5039" x2="1427.5039" y1="81.2969" y2="1116.4844"/></g><g><title>MySQL</title><rect fill="#000000" fill-opacity="0.00000" height="1035.1875" width="8" x="1576.7163" y="81.2969"/><line style="stroke:#181818;stroke-width:0.5;stroke-dasharray:5,5;" x1="1580.6812" x2="1580.6812" y1="81.2969" y2="1116.4844"/></g><g><title>PaymentAdapter</title><rect fill="#000000" fill-opacity="0.00000" height="1035.1875" width="8" x="1675.6055" y="81.2969"/><line style="stroke:#181818;stroke-width:0.5;stroke-dasharray:5,5;" x1="1678.7515" x2="1678.7515" y1="81.2969" y2="1116.4844"/></g><g><title>WeChatPayAdapter</title><rect fill="#000000" fill-opacity="0.00000" height="1035.1875" width="8" x="1839.0635" y="81.2969"/><line style="stroke:#181818;stroke-width:0.5;stroke-dasharray:5,5;" x1="1842.9297" x2="1842.9297" y1="81.2969" y2="1116.4844"/></g><g><title>PaymentGateway</title><rect fill="#000000" fill-opacity="0.00000" height="1035.1875" width="8" x="2010.2529" y="81.2969"/><line style="stroke:#181818;stroke-width:0.5;stroke-dasharray:5,5;" x1="2013.3706" x2="2013.3706" y1="81.2969" y2="1116.4844"/></g><g><title>NotificationService</title><rect fill="#000000" fill-opacity="0.00000" height="1035.1875" width="8" x="2154.1704" y="81.2969"/><line style="stroke:#181818;stroke-width:0.5;stroke-dasharray:5,5;" x1="2158.1353" x2="2158.1353" y1="81.2969" y2="1116.4844"/></g><g class="participant participant-head" data-participant="Student"><text fill="#000000" font-family="sans-serif" font-size="14" lengthAdjust="spacing" textLength="55.1113" x="20" y="77.9951">Student</text><ellipse cx="50.5557" cy="13.5" fill="#E2E2F0" rx="8" ry="8" style="stroke:#181818;stroke-width:0.5;"/><path d="M50.5557,21.5 L50.5557,48.5 M37.5557,29.5 L63.5557,29.5 M50.5557,48.5 L37.5557,63.5 M50.5557,48.5 L63.5557,63.5" fill="none" style="stroke:#181818;stroke-width:0.5;"/></g><g class="participant participant-head" data-participant="OrderingInterface"><text fill="#000000" font-family="sans-serif" font-size="14" lengthAdjust="spacing" textLength="124.3594" x="257.5059" y="77.9951">OrderingInterface</text><path d="M302.1855,37 L302.1855,61 M302.1855,49 L319.1855,49" fill="none" style="stroke:#181818;stroke-width:0.5;"/><ellipse cx="331.1855" cy="49" fill="#E2E2F0" rx="12" ry="12" style="stroke:#181818;stroke-width:0.5;"/></g><g class="participant participant-head" data-participant="SecurityFilter"><text fill="#000000" font-family="sans-serif" font-size="14" lengthAdjust="spacing" textLength="93.1807" x="399.0005" y="77.9951">SecurityFilter</text><ellipse cx="448.5908" cy="49" fill="#E2E2F0" rx="12" ry="12" style="stroke:#181818;stroke-width:0.5;"/><polygon fill="#181818" points="444.5908,37,450.5908,32,448.5908,37,450.5908,42,444.5908,37" style="stroke:#181818;stroke-width:1;"/></g><g class="participant participant-head" data-participant="JWTTokenService"><text fill="#000000" font-family="sans-serif" font-size="14" lengthAdjust="spacing" textLength="120.9756" x="547.9199" y="77.9951">JWTTokenService</text><ellipse cx="611.4077" cy="49" fill="#E2E2F0" rx="12" ry="12" style="stroke:#181818;stroke-width:0.5;"/><polygon fill="#181818" points="607.4077,37,613.4077,32,611.4077,37,613.4077,42,607.4077,37" style="stroke:#181818;stroke-width:1;"/></g><g class="participant participant-head" data-participant="OrderController"><text fill="#000000" font-family="sans-serif" font-size="14" lengthAdjust="spacing" textLength="109.2041" x="684.8955" y="77.9951">OrderController</text><ellipse cx="742.4976" cy="49" fill="#E2E2F0" rx="12" ry="12" style="stroke:#181818;stroke-width:0.5;"/><polygon fill="#181818" points="738.4976,37,744.4976,32,742.4976,37,744.4976,42,738.4976,37" style="stroke:#181818;stroke-width:1;"/></g><g class="participant participant-head" data-participant="MenuCacheService"><text fill="#000000" font-family="sans-serif" font-size="14" lengthAdjust="spacing" textLength="133.7178" x="904.9688" y="77.9951">MenuCacheService</text><ellipse cx="974.8276" cy="49" fill="#E2E2F0" rx="12" ry="12" style="stroke:#181818;stroke-width:0.5;"/><polygon fill="#181818" points="970.8276,37,976.8276,32,974.8276,37,976.8276,42,970.8276,37" style="stroke:#181818;stroke-width:1;"/></g><g class="participant participant-head" data-participant="Redis"><text fill="#000000" font-family="sans-serif" font-size="14" lengthAdjust="spacing" textLength="38.4111" x="1138.5952" y="77.9951">Redis</text><ellipse cx="1160.8008" cy="49" fill="#E2E2F0" rx="12" ry="12" style="stroke:#181818;stroke-width:0.5;"/><line style="stroke:#181818;stroke-width:0.5;" x1="1148.8008" x2="1172.8008" y1="63" y2="63"/></g><g class="participant participant-head" data-participant="OrderRepository"><text fill="#000000" font-family="sans-serif" font-size="14" lengthAdjust="spacing" textLength="115.1035" x="1367.5039" y="77.9951">OrderRepository</text><ellipse cx="1428.0557" cy="49" fill="#E2E2F0" rx="12" ry="12" style="stroke:#181818;stroke-width:0.5;"/><line style="stroke:#181818;stroke-width:0.5;" x1="1416.0557" x2="1440.0557" y1="63" y2="63"/></g><g class="participant participant-head" data-participant="MySQL"><text fill="#000000" font-family="sans-serif" font-size="14" lengthAdjust="spacing" textLength="48.0703" x="1553.6812" y="77.9951">MySQL</text><ellipse cx="1580.7163" cy="49" fill="#E2E2F0" rx="12" ry="12" style="stroke:#181818;stroke-width:0.5;"/><line style="stroke:#181818;stroke-width:0.5;" x1="1568.7163" x2="1592.7163" y1="63" y2="63"/></g><g class="participant participant-head" data-participant="PaymentAdapter"><text fill="#000000" font-family="sans-serif" font-size="14" lengthAdjust="spacing" textLength="117.708" x="1617.7515" y="77.9951">PaymentAdapter</text><ellipse cx="1679.6055" cy="49" fill="#E2E2F0" rx="12" ry="12" style="stroke:#181818;stroke-width:0.5;"/><polygon fill="#181818" points="1675.6055,37,1681.6055,32,1679.6055,37,1681.6055,42,1675.6055,37" style="stroke:#181818;stroke-width:1;"/></g><g class="participant participant-head" data-participant="WeChatPayAdapter"><text fill="#000000" font-family="sans-serif" font-size="14" lengthAdjust="spacing" textLength="136.2676" x="1771.9297" y="77.9951">WeChatPayAdapter</text><ellipse cx="1843.0635" cy="49" fill="#E2E2F0" rx="12" ry="12" style="stroke:#181818;stroke-width:0.5;"/><polygon fill="#181818" points="1839.0635,37,1845.0635,32,1843.0635,37,1845.0635,42,1839.0635,37" style="stroke:#181818;stroke-width:1;"/></g><g class="participant participant-head" data-participant="PaymentGateway"><text fill="#000000" font-family="sans-serif" font-size="14" lengthAdjust="spacing" textLength="123.7646" x="1949.3706" y="77.9951">PaymentGateway</text><path d="M1993.7529,37 L1993.7529,61 M1993.7529,49 L2010.7529,49" fill="none" style="stroke:#181818;stroke-width:0.5;"/><ellipse cx="2022.7529" cy="49" fill="#E2E2F0" rx="12" ry="12" style="stroke:#181818;stroke-width:0.5;"/></g><g class="participant participant-head" data-participant="NotificationService"><text fill="#000000" font-family="sans-serif" font-size="14" lengthAdjust="spacing" textLength="132.0703" x="2089.1353" y="77.9951">NotificationService</text><ellipse cx="2158.1704" cy="49" fill="#E2E2F0" rx="12" ry="12" style="stroke:#181818;stroke-width:0.5;"/><polygon fill="#181818" points="2154.1704,37,2160.1704,32,2158.1704,37,2160.1704,42,2154.1704,37" style="stroke:#181818;stroke-width:1;"/></g><g class="message" data-participant-1="Student" data-participant-2="OrderingInterface"><polygon fill="#181818" points="310.6855,108.4297,320.6855,112.4297,310.6855,116.4297,314.6855,112.4297" style="stroke:#181818;stroke-width:1;"/><line style="stroke:#181818;stroke-width:1;" x1="50.5557" x2="316.6855" y1="112.4297" y2="112.4297"/><text fill="#000000" font-family="sans-serif" font-size="13" lengthAdjust="spacing" textLength="169.9458" x="57.5557" y="107.3638">Click "Place Order" button</text></g><g class="message" data-participant-1="OrderingInterface" data-participant-2="SecurityFilter"><polygon fill="#181818" points="436.5908,137.5625,446.5908,141.5625,436.5908,145.5625,440.5908,141.5625" style="stroke:#181818;stroke-width:1;"/><line style="stroke:#181818;stroke-width:1;" x1="322.6855" x2="442.5908" y1="141.5625" y2="141.5625"/><text fill="#000000" font-family="sans-serif" font-size="13" lengthAdjust="spacing" textLength="101.9053" x="329.6855" y="136.4966">Pass JWT Token</text></g><g class="message" data-participant-1="SecurityFilter" data-participant-2="JWTTokenService"><polygon fill="#181818" points="599.4077,166.6953,609.4077,170.6953,599.4077,174.6953,603.4077,170.6953" style="stroke:#181818;stroke-width:1;"/><line style="stroke:#181818;stroke-width:1;" x1="448.5908" x2="605.4077" y1="170.6953" y2="170.6953"/><text fill="#000000" font-family="sans-serif" font-size="13" lengthAdjust="spacing" textLength="138.8169" x="455.5908" y="165.6294">validateToken(token)</text></g><g class="message" data-participant-1="JWTTokenService" data-participant-2="SecurityFilter"><polygon fill="#181818" points="459.5908,195.8281,449.5908,199.8281,459.5908,203.8281,455.5908,199.8281" style="stroke:#181818;stroke-width:1;"/><line style="stroke:#181818;stroke-width:1;stroke-dasharray:2,2;" x1="453.5908" x2="610.4077" y1="199.8281" y2="199.8281"/><text fill="#000000" font-family="sans-serif" font-size="13" lengthAdjust="spacing" textLength="109.8652" x="465.5908" y="194.7622">Return studentId</text></g><g class="message" data-participant-1="SecurityFilter" data-participant-2="OrderController"><polygon fill="#181818" points="730.4976,224.9609,740.4976,228.9609,730.4976,232.9609,734.4976,228.9609" style="stroke:#181818;stroke-width:1;"/><line style="stroke:#181818;stroke-width:1;" x1="448.5908" x2="736.4976" y1="228.9609" y2="228.9609"/><text fill="#000000" font-family="sans-serif" font-size="13" lengthAdjust="spacing" textLength="195.0571" x="455.5908" y="223.895">createOrder(studentId, items)</text></g><path d="M747,241.9609 L747,266.9609 L1019,266.9609 L1019,251.9609 L1009,241.9609 L747,241.9609" fill="#FEFFDD" style="stroke:#181818;stroke-width:0.5;"/><path d="M1009,241.9609 L1009,251.9609 L1019,251.9609 L1009,241.9609" fill="#FEFFDD" style="stroke:#181818;stroke-width:0.5;"/><text fill="#000000" font-family="sans-serif" font-size="13" lengthAdjust="spacing" textLength="251.2529" x="753" y="259.0278">Validate dish availability (using cache)</text><g class="message" data-participant-1="OrderController" data-participant-2="MenuCacheService"><polygon fill="#181818" points="962.8276,289.2266,972.8276,293.2266,962.8276,297.2266,966.8276,293.2266" style="stroke:#181818;stroke-width:1;"/><line style="stroke:#181818;stroke-width:1;" x1="742.4976" x2="968.8276" y1="293.2266" y2="293.2266"/><text fill="#000000" font-family="sans-serif" font-size="13" lengthAdjust="spacing" textLength="208.3301" x="749.4976" y="288.1606">validateDishAvailability(dishIds)</text></g><g class="message" data-participant-1="MenuCacheService" data-participant-2="Redis"><polygon fill="#181818" points="1148.8008,318.3594,1158.8008,322.3594,1148.8008,326.3594,1152.8008,322.3594" style="stroke:#181818;stroke-width:1;"/><line style="stroke:#181818;stroke-width:1;" x1="974.8276" x2="1154.8008" y1="322.3594" y2="322.3594"/><text fill="#000000" font-family="sans-serif" font-size="13" lengthAdjust="spacing" textLength="160.2402" x="981.8276" y="317.2935">GET dish_stock_{dishId}</text></g><g class="message" data-participant-1="Redis" data-participant-2="MenuCacheService"><polygon fill="#181818" points="985.8276,347.4922,975.8276,351.4922,985.8276,355.4922,981.8276,351.4922" style="stroke:#181818;stroke-width:1;"/><line style="stroke:#181818;stroke-width:1;stroke-dasharray:2,2;" x1="979.8276" x2="1159.8008" y1="351.4922" y2="351.4922"/><text fill="#000000" font-family="sans-serif" font-size="13" lengthAdjust="spacing" textLength="161.9731" x="991.8276" y="346.4263">Return stock information</text></g><g class="message" data-participant-1="MenuCacheService" data-participant-2="OrderController"><polygon fill="#181818" points="753.4976,376.625,743.4976,380.625,753.4976,384.625,749.4976,380.625" style="stroke:#181818;stroke-width:1;"/><line style="stroke:#181818;stroke-width:1;stroke-dasharray:2,2;" x1="747.4976" x2="973.8276" y1="380.625" y2="380.625"/><text fill="#000000" font-family="sans-serif" font-size="13" lengthAdjust="spacing" textLength="98.7886" x="759.4976" y="375.5591">Stock available</text></g><path d="M747,393.625 L747,418.625 L892,418.625 L892,403.625 L882,393.625 L747,393.625" fill="#FEFFDD" style="stroke:#181818;stroke-width:0.5;"/><path d="M882,393.625 L882,403.625 L892,403.625 L882,393.625" fill="#FEFFDD" style="stroke:#181818;stroke-width:0.5;"/><text fill="#000000" font-family="sans-serif" font-size="13" lengthAdjust="spacing" textLength="124.376" x="753" y="410.6919">Create order entity</text><g class="message" data-participant-1="OrderController" data-participant-2="OrderController"><line style="stroke:#181818;stroke-width:1;" x1="742.4976" x2="784.4976" y1="444.8906" y2="444.8906"/><line style="stroke:#181818;stroke-width:1;" x1="784.4976" x2="784.4976" y1="444.8906" y2="457.8906"/><line style="stroke:#181818;stroke-width:1;" x1="743.4976" x2="784.4976" y1="457.8906" y2="457.8906"/><polygon fill="#181818" points="753.4976,453.8906,743.4976,457.8906,753.4976,461.8906,749.4976,457.8906" style="stroke:#181818;stroke-width:1;"/><text fill="#000000" font-family="sans-serif" font-size="13" lengthAdjust="spacing" textLength="184.5073" x="749.4976" y="439.8247">new Order(studentId, items)</text></g><path d="M747,470.8906 L747,495.8906 L986,495.8906 L986,480.8906 L976,470.8906 L747,470.8906" fill="#FEFFDD" style="stroke:#181818;stroke-width:0.5;"/><path d="M976,470.8906 L976,480.8906 L986,480.8906 L976,470.8906" fill="#FEFFDD" style="stroke:#181818;stroke-width:0.5;"/><text fill="#000000" font-family="sans-serif" font-size="13" lengthAdjust="spacing" textLength="218.5752" x="753" y="487.9575">Persist order (Repository pattern)</text><g class="message" data-participant-1="OrderController" data-participant-2="OrderRepository"><polygon fill="#181818" points="1416.0557,518.1563,1426.0557,522.1563,1416.0557,526.1563,1420.0557,522.1563" style="stroke:#181818;stroke-width:1;"/><line style="stroke:#181818;stroke-width:1;" x1="742.4976" x2="1422.0557" y1="522.1563" y2="522.1563"/><text fill="#000000" font-family="sans-serif" font-size="13" lengthAdjust="spacing" textLength="75.4673" x="749.4976" y="517.0903">save(order)</text></g><g class="message" data-participant-1="OrderRepository" data-participant-2="MySQL"><polygon fill="#181818" points="1568.7163,547.2891,1578.7163,551.2891,1568.7163,555.2891,1572.7163,551.2891" style="stroke:#181818;stroke-width:1;"/><line style="stroke:#181818;stroke-width:1;" x1="1428.0557" x2="1574.7163" y1="551.2891" y2="551.2891"/><text fill="#000000" font-family="sans-serif" font-size="13" lengthAdjust="spacing" textLength="128.6606" x="1435.0557" y="546.2231">INSERT INTO orders</text></g><g class="message" data-participant-1="OrderRepository" data-participant-2="Redis"><polygon fill="#181818" points="1171.8008,576.4219,1161.8008,580.4219,1171.8008,584.4219,1167.8008,580.4219" style="stroke:#181818;stroke-width:1;"/><line style="stroke:#181818;stroke-width:1;" x1="1165.8008" x2="1427.0557" y1="580.4219" y2="580.4219"/><text fill="#000000" font-family="sans-serif" font-size="13" lengthAdjust="spacing" textLength="243.2549" x="1177.8008" y="575.356">SET order_cache_{orderId} (TTL=1h)</text></g><g class="message" data-participant-1="OrderRepository" data-participant-2="OrderController"><polygon fill="#181818" points="753.4976,605.5547,743.4976,609.5547,753.4976,613.5547,749.4976,609.5547" style="stroke:#181818;stroke-width:1;"/><line style="stroke:#181818;stroke-width:1;stroke-dasharray:2,2;" x1="747.4976" x2="1427.0557" y1="609.5547" y2="609.5547"/><text fill="#000000" font-family="sans-serif" font-size="13" lengthAdjust="spacing" textLength="103.3208" x="759.4976" y="604.4888">Save successful</text></g><path d="M747,622.5547 L747,647.5547 L998,647.5547 L998,632.5547 L988,622.5547 L747,622.5547" fill="#FEFFDD" style="stroke:#181818;stroke-width:0.5;"/><path d="M988,622.5547 L988,632.5547 L998,632.5547 L988,622.5547" fill="#FEFFDD" style="stroke:#181818;stroke-width:0.5;"/><text fill="#000000" font-family="sans-serif" font-size="13" lengthAdjust="spacing" textLength="230.0771" x="753" y="639.6216">Process payment (Adapter pattern)</text><g class="message" data-participant-1="OrderController" data-participant-2="PaymentAdapter"><polygon fill="#181818" points="1667.6055,669.8203,1677.6055,673.8203,1667.6055,677.8203,1671.6055,673.8203" style="stroke:#181818;stroke-width:1;"/><line style="stroke:#181818;stroke-width:1;" x1="742.4976" x2="1673.6055" y1="673.8203" y2="673.8203"/><text fill="#000000" font-family="sans-serif" font-size="13" lengthAdjust="spacing" textLength="152.7754" x="749.4976" y="668.7544">processPayment(order)</text></g><g class="message" data-participant-1="PaymentAdapter" data-participant-2="WeChatPayAdapter"><polygon fill="#181818" points="1831.0635,698.9531,1841.0635,702.9531,1831.0635,706.9531,1835.0635,702.9531" style="stroke:#181818;stroke-width:1;"/><line style="stroke:#181818;stroke-width:1;" x1="1679.6055" x2="1837.0635" y1="702.9531" y2="702.9531"/><text fill="#000000" font-family="sans-serif" font-size="13" lengthAdjust="spacing" textLength="139.458" x="1686.6055" y="697.8872">pay(amount, orderId)</text></g><g class="message" data-participant-1="WeChatPayAdapter" data-participant-2="PaymentGateway"><polygon fill="#181818" points="2002.2529,728.0859,2012.2529,732.0859,2002.2529,736.0859,2006.2529,732.0859" style="stroke:#181818;stroke-width:1;"/><line style="stroke:#181818;stroke-width:1;" x1="1843.0635" x2="2008.2529" y1="732.0859" y2="732.0859"/><text fill="#000000" font-family="sans-serif" font-size="13" lengthAdjust="spacing" textLength="131.9614" x="1850.0635" y="727.02">Call WeChat Pay API</text></g><g class="message" data-participant-1="PaymentGateway" data-participant-2="WeChatPayAdapter"><polygon fill="#181818" points="1854.0635,757.2188,1844.0635,761.2188,1854.0635,765.2188,1850.0635,761.2188" style="stroke:#181818;stroke-width:1;"/><line style="stroke:#181818;stroke-width:1;stroke-dasharray:2,2;" x1="1848.0635" x2="2013.2529" y1="761.2188" y2="761.2188"/><text fill="#000000" font-family="sans-serif" font-size="13" lengthAdjust="spacing" textLength="147.1895" x="1860.0635" y="756.1528">Return payment result</text></g><g class="message" data-participant-1="WeChatPayAdapter" data-participant-2="PaymentAdapter"><polygon fill="#181818" points="1690.6055,786.3516,1680.6055,790.3516,1690.6055,794.3516,1686.6055,790.3516" style="stroke:#181818;stroke-width:1;"/><line style="stroke:#181818;stroke-width:1;stroke-dasharray:2,2;" x1="1684.6055" x2="1842.0635" y1="790.3516" y2="790.3516"/><text fill="#000000" font-family="sans-serif" font-size="13" lengthAdjust="spacing" textLength="98.249" x="1696.6055" y="785.2856">PaymentResult</text></g><path d="M10,805.3516 L74.4429,805.3516 L74.4429,812.4844 L64.4429,822.4844 L10,822.4844 L10,805.3516" fill="#EEEEEE" style="stroke:#000000;stroke-width:1.5;"/><rect fill="none" height="294.1328" style="stroke:#000000;stroke-width:1.5;" width="2227.2056" x="10" y="805.3516"/><text fill="#000000" font-family="sans-serif" font-size="13" font-weight="bold" lengthAdjust="spacing" textLength="19.4429" x="25" y="818.4185">alt</text><text fill="#000000" font-family="sans-serif" font-size="11" font-weight="bold" lengthAdjust="spacing" textLength="132.9131" x="89.4429" y="817.562">[Payment successful]</text><g class="message" data-participant-1="PaymentAdapter" data-participant-2="OrderController"><polygon fill="#181818" points="753.4976,839.6172,743.4976,843.6172,753.4976,847.6172,749.4976,843.6172" style="stroke:#181818;stroke-width:1;"/><line style="stroke:#181818;stroke-width:1;stroke-dasharray:2,2;" x1="747.4976" x2="1678.6055" y1="843.6172" y2="843.6172"/><text fill="#000000" font-family="sans-serif" font-size="13" lengthAdjust="spacing" textLength="159.2437" x="759.4976" y="838.5513">PaymentResult(success)</text></g><g class="message" data-participant-1="OrderController" data-participant-2="OrderRepository"><polygon fill="#181818" points="1416.0557,868.75,1426.0557,872.75,1416.0557,876.75,1420.0557,872.75" style="stroke:#181818;stroke-width:1;"/><line style="stroke:#181818;stroke-width:1;" x1="742.4976" x2="1422.0557" y1="872.75" y2="872.75"/><text fill="#000000" font-family="sans-serif" font-size="13" lengthAdjust="spacing" textLength="220.3652" x="749.4976" y="867.6841">updateOrderStatus(orderId, PAID)</text></g><g class="message" data-participant-1="OrderController" data-participant-2="NotificationService"><polygon fill="#181818" points="2146.1704,897.8828,2156.1704,901.8828,2146.1704,905.8828,2150.1704,901.8828" style="stroke:#181818;stroke-width:1;"/><line style="stroke:#181818;stroke-width:1;" x1="742.4976" x2="2152.1704" y1="901.8828" y2="901.8828"/><text fill="#000000" font-family="sans-serif" font-size="13" lengthAdjust="spacing" textLength="279.938" x="749.4976" y="896.8169">sendOrderConfirmation(studentId, orderId)</text></g><g class="message" data-participant-1="OrderController" data-participant-2="OrderingInterface"><polygon fill="#181818" points="333.6855,927.0156,323.6855,931.0156,333.6855,935.0156,329.6855,931.0156" style="stroke:#181818;stroke-width:1;"/><line style="stroke:#181818;stroke-width:1;stroke-dasharray:2,2;" x1="327.6855" x2="741.4976" y1="931.0156" y2="931.0156"/><text fill="#000000" font-family="sans-serif" font-size="13" lengthAdjust="spacing" textLength="169.5142" x="339.6855" y="925.9497">Return order confirmation</text></g><g class="message" data-participant-1="OrderingInterface" data-participant-2="Student"><polygon fill="#181818" points="61.5557,956.1484,51.5557,960.1484,61.5557,964.1484,57.5557,960.1484" style="stroke:#181818;stroke-width:1;"/><line style="stroke:#181818;stroke-width:1;stroke-dasharray:2,2;" x1="55.5557" x2="321.6855" y1="960.1484" y2="960.1484"/><text fill="#000000" font-family="sans-serif" font-size="13" lengthAdjust="spacing" textLength="231.2578" x="67.5557" y="955.0825">Display "Order placed successfully"</text></g><line style="stroke:#000000;stroke-width:1;stroke-dasharray:2,2;" x1="10" x2="2237.2056" y1="969.1484" y2="969.1484"/><text fill="#000000" font-family="sans-serif" font-size="11" font-weight="bold" lengthAdjust="spacing" textLength="103.6353" x="15" y="979.3589">[Payment failed]</text><g class="message" data-participant-1="PaymentAdapter" data-participant-2="OrderController"><polygon fill="#181818" points="753.4976,1000.0859,743.4976,1004.0859,753.4976,1008.0859,749.4976,1004.0859" style="stroke:#181818;stroke-width:1;"/><line style="stroke:#181818;stroke-width:1;stroke-dasharray:2,2;" x1="747.4976" x2="1678.6055" y1="1004.0859" y2="1004.0859"/><text fill="#000000" font-family="sans-serif" font-size="13" lengthAdjust="spacing" textLength="144.4092" x="759.4976" y="999.02">PaymentResult(failed)</text></g><g class="message" data-participant-1="OrderController" data-participant-2="OrderRepository"><polygon fill="#181818" points="1416.0557,1029.2188,1426.0557,1033.2188,1416.0557,1037.2188,1420.0557,1033.2188" style="stroke:#181818;stroke-width:1;"/><line style="stroke:#181818;stroke-width:1;" x1="742.4976" x2="1422.0557" y1="1033.2188" y2="1033.2188"/><text fill="#000000" font-family="sans-serif" font-size="13" lengthAdjust="spacing" textLength="303.729" x="749.4976" y="1028.1528">updateOrderStatus(orderId, PAYMENT_FAILED)</text></g><g class="message" data-participant-1="OrderController" data-participant-2="OrderingInterface"><polygon fill="#181818" points="333.6855,1058.3516,323.6855,1062.3516,333.6855,1066.3516,329.6855,1062.3516" style="stroke:#181818;stroke-width:1;"/><line style="stroke:#181818;stroke-width:1;stroke-dasharray:2,2;" x1="327.6855" x2="741.4976" y1="1062.3516" y2="1062.3516"/><text fill="#000000" font-family="sans-serif" font-size="13" lengthAdjust="spacing" textLength="179.9878" x="339.6855" y="1057.2856">Return payment failure info</text></g><g class="message" data-participant-1="OrderingInterface" data-participant-2="Student"><polygon fill="#181818" points="61.5557,1087.4844,51.5557,1091.4844,61.5557,1095.4844,57.5557,1091.4844" style="stroke:#181818;stroke-width:1;"/><line style="stroke:#181818;stroke-width:1;stroke-dasharray:2,2;" x1="55.5557" x2="321.6855" y1="1091.4844" y2="1091.4844"/><text fill="#000000" font-family="sans-serif" font-size="13" lengthAdjust="spacing" textLength="248.1299" x="67.5557" y="1086.4185">Display "Payment failed, please retry"</text></g><!--SRC=[hLLDRzim3BthLn0vEK1wsDN01WJf1pBq8ukD5Ji5YaqtGXN9aEHqGR7_FacM7TjnrwrO3oaayZsIZnIzOpb28QNPof-4qCn81OcfSXI6R6KbSggEyA1oL4myBOL1LT0CIIQ5KP93Wbcbc3bUCsvDxVNNnpILpoWIL0VMSVT4Y_h0E_vtAAe5pNRO06nuomfhp9bk3Xwynb9gPhCyDjTtn-JRRSkqeiUzDSnpMdOJUiJ5ZXfhR0njRG5mGms-q6CBk9U65IoZXics2XA4WOilvvB4iE0iUuR9YjjJRP_0jZ962dBcxIZwsiKs4wsTSk2b8tsp0mnKZU50ESjjulusCkvtIWPUS34IQescKW9qNSyo9oFH1hsA8LDeO_dhg4NEW1dSwoaXGXe4nPvs1cHnZluUSWNRqHtG0sMSRXbt7OmgRRM1p0t0b0oGBfNXU9mglxHaymvNvDYNkSrdY74yVfnYkBbAVHORRMJsl7cjCR-8DtkzpWEsYba4C558jVUpCH9dJBl4uqBL7DzLQ-6r1kdkeHxqCM7ES09VuACTMg7IJ9iGD3gzD2YfiKCXfc-cSFADGTC3HfuZ-7U8dBJkkSQml4-krgdzbpxK0VMOSsXOOXlcdJP-HZQl_c1R1b6Qtdx-j1k9DDe5cnheAijGwwBYxokYf7ErzViT0L7O7dyKfB-1OYXhad3TADFtShZXYefTs8ZkxQ8oCmWLJydGhHCox30xFPGtAy_POBvQahwFr-SyOfZofbw5kk9c9EH8cU6yhY64SjDSTHK7-pSiVQnJFROe44mz_6zci2hpPbKbXffAHq6_6QpcoyitYKQslXre57dZMx3mxhllg-tDAEluno8eNR-rh4Dy8kb_BzmMhqF6OBTUoMqJ9zuFIlV5oJioy-E48DVOTg2mUmVp3wfVW_-J-3_khkxJpVLyUNjr-H71oav5bKA_Ylz9ihuaCoiUKgkKGgESQYB_3G00]--></g></svg>