<svg xmlns="http://www.w3.org/2000/svg" xmlns:xlink="http://www.w3.org/1999/xlink" contentStyleType="text/css" data-diagram-type="SEQUENCE" height="1222px" preserveAspectRatio="none" style="width:1861px;height:1222px;background:#FFFFFF;" version="1.1" viewBox="0 0 1861 1222" width="1861px" zoomAndPan="magnify"><defs/><g><rect fill="none" height="148.4688" style="stroke:#000000;stroke-width:1.5;" width="449.647" x="1162.9287" y="337.3594"/><g><title>Student</title><rect fill="#000000" fill-opacity="0.00000" height="1134.5859" width="8" x="31.5557" y="81.2969"/><line style="stroke:#181818;stroke-width:0.5;stroke-dasharray:5,5;" x1="35" x2="35" y1="81.2969" y2="1215.8828"/></g><g><title>OrderingInterface</title><rect fill="#000000" fill-opacity="0.00000" height="1134.5859" width="8" x="295.4907" y="81.2969"/><line style="stroke:#181818;stroke-width:0.5;stroke-dasharray:5,5;" x1="299.311" x2="299.311" y1="81.2969" y2="1215.8828"/></g><g><title>SecurityFilter</title><rect fill="#000000" fill-opacity="0.00000" height="1134.5859" width="8" x="427.4707" y="81.2969"/><line style="stroke:#181818;stroke-width:0.5;stroke-dasharray:5,5;" x1="430.8804" x2="430.8804" y1="81.2969" y2="1215.8828"/></g><g><title>JWTTokenService</title><rect fill="#000000" fill-opacity="0.00000" height="1134.5859" width="8" x="590.2876" y="81.2969"/><line style="stroke:#181818;stroke-width:0.5;stroke-dasharray:5,5;" x1="593.7998" x2="593.7998" y1="81.2969" y2="1215.8828"/></g><g><title>OrderController</title><rect fill="#000000" fill-opacity="0.00000" height="1134.5859" width="8" x="838.0107" y="81.2969"/><line style="stroke:#181818;stroke-width:0.5;stroke-dasharray:5,5;" x1="841.4087" x2="841.4087" y1="81.2969" y2="1215.8828"/></g><g><title>OrderRepository</title><rect fill="#000000" fill-opacity="0.00000" height="1134.5859" width="8" x="1229.4805" y="81.2969"/><line style="stroke:#181818;stroke-width:0.5;stroke-dasharray:5,5;" x1="1232.9287" x2="1232.9287" y1="81.2969" y2="1215.8828"/></g><g><title>Redis</title><rect fill="#000000" fill-opacity="0.00000" height="1134.5859" width="8" x="1512.2998" y="81.2969"/><line style="stroke:#181818;stroke-width:0.5;stroke-dasharray:5,5;" x1="1516.0942" x2="1516.0942" y1="81.2969" y2="1215.8828"/></g><g><title>MySQL</title><rect fill="#000000" fill-opacity="0.00000" height="1134.5859" width="8" x="1571.5405" y="81.2969"/><line style="stroke:#181818;stroke-width:0.5;stroke-dasharray:5,5;" x1="1575.5054" x2="1575.5054" y1="81.2969" y2="1215.8828"/></g><g><title>MongoDB</title><rect fill="#000000" fill-opacity="0.00000" height="1134.5859" width="8" x="1645.2529" y="81.2969"/><line style="stroke:#181818;stroke-width:0.5;stroke-dasharray:5,5;" x1="1648.5757" x2="1648.5757" y1="81.2969" y2="1215.8828"/></g><g><title>RankingService</title><rect fill="#000000" fill-opacity="0.00000" height="1134.5859" width="8" x="1799.2451" y="81.2969"/><line style="stroke:#181818;stroke-width:0.5;stroke-dasharray:5,5;" x1="1802.9063" x2="1802.9063" y1="81.2969" y2="1215.8828"/></g><g class="participant participant-head" data-participant="Student"><text fill="#000000" font-family="sans-serif" font-size="14" lengthAdjust="spacing" textLength="55.1113" x="5" y="77.9951">Student</text><ellipse cx="35.5557" cy="13.5" fill="#E2E2F0" rx="8" ry="8" style="stroke:#181818;stroke-width:0.5;"/><path d="M35.5557,21.5 L35.5557,48.5 M22.5557,29.5 L48.5557,29.5 M35.5557,48.5 L22.5557,63.5 M35.5557,48.5 L48.5557,63.5" fill="none" style="stroke:#181818;stroke-width:0.5;"/></g><g class="participant participant-head" data-participant="OrderingInterface"><text fill="#000000" font-family="sans-serif" font-size="14" lengthAdjust="spacing" textLength="124.3594" x="234.311" y="77.9951">OrderingInterface</text><path d="M278.9907,37 L278.9907,61 M278.9907,49 L295.9907,49" fill="none" style="stroke:#181818;stroke-width:0.5;"/><ellipse cx="307.9907" cy="49" fill="#E2E2F0" rx="12" ry="12" style="stroke:#181818;stroke-width:0.5;"/></g><g class="participant participant-head" data-participant="SecurityFilter"><text fill="#000000" font-family="sans-serif" font-size="14" lengthAdjust="spacing" textLength="93.1807" x="381.8804" y="77.9951">SecurityFilter</text><ellipse cx="431.4707" cy="49" fill="#E2E2F0" rx="12" ry="12" style="stroke:#181818;stroke-width:0.5;"/><polygon fill="#181818" points="427.4707,37,433.4707,32,431.4707,37,433.4707,42,427.4707,37" style="stroke:#181818;stroke-width:1;"/></g><g class="participant participant-head" data-participant="JWTTokenService"><text fill="#000000" font-family="sans-serif" font-size="14" lengthAdjust="spacing" textLength="120.9756" x="530.7998" y="77.9951">JWTTokenService</text><ellipse cx="594.2876" cy="49" fill="#E2E2F0" rx="12" ry="12" style="stroke:#181818;stroke-width:0.5;"/><polygon fill="#181818" points="590.2876,37,596.2876,32,594.2876,37,596.2876,42,590.2876,37" style="stroke:#181818;stroke-width:1;"/></g><g class="participant participant-head" data-participant="OrderController"><text fill="#000000" font-family="sans-serif" font-size="14" lengthAdjust="spacing" textLength="109.2041" x="784.4087" y="77.9951">OrderController</text><ellipse cx="842.0107" cy="49" fill="#E2E2F0" rx="12" ry="12" style="stroke:#181818;stroke-width:0.5;"/><polygon fill="#181818" points="838.0107,37,844.0107,32,842.0107,37,844.0107,42,838.0107,37" style="stroke:#181818;stroke-width:1;"/></g><g class="participant participant-head" data-participant="OrderRepository"><text fill="#000000" font-family="sans-serif" font-size="14" lengthAdjust="spacing" textLength="115.1035" x="1172.9287" y="77.9951">OrderRepository</text><ellipse cx="1233.4805" cy="49" fill="#E2E2F0" rx="12" ry="12" style="stroke:#181818;stroke-width:0.5;"/><line style="stroke:#181818;stroke-width:0.5;" x1="1221.4805" x2="1245.4805" y1="63" y2="63"/></g><g class="participant participant-head" data-participant="Redis"><text fill="#000000" font-family="sans-serif" font-size="14" lengthAdjust="spacing" textLength="38.4111" x="1494.0942" y="77.9951">Redis</text><ellipse cx="1516.2998" cy="49" fill="#E2E2F0" rx="12" ry="12" style="stroke:#181818;stroke-width:0.5;"/><line style="stroke:#181818;stroke-width:0.5;" x1="1504.2998" x2="1528.2998" y1="63" y2="63"/></g><g class="participant participant-head" data-participant="MySQL"><text fill="#000000" font-family="sans-serif" font-size="14" lengthAdjust="spacing" textLength="48.0703" x="1548.5054" y="77.9951">MySQL</text><ellipse cx="1575.5405" cy="49" fill="#E2E2F0" rx="12" ry="12" style="stroke:#181818;stroke-width:0.5;"/><line style="stroke:#181818;stroke-width:0.5;" x1="1563.5405" x2="1587.5405" y1="63" y2="63"/></g><g class="participant participant-head" data-participant="MongoDB"><text fill="#000000" font-family="sans-serif" font-size="14" lengthAdjust="spacing" textLength="67.3545" x="1612.5757" y="77.9951">MongoDB</text><ellipse cx="1649.2529" cy="49" fill="#E2E2F0" rx="12" ry="12" style="stroke:#181818;stroke-width:0.5;"/><line style="stroke:#181818;stroke-width:0.5;" x1="1637.2529" x2="1661.2529" y1="63" y2="63"/></g><g class="participant participant-head" data-participant="RankingService"><text fill="#000000" font-family="sans-serif" font-size="14" lengthAdjust="spacing" textLength="108.6777" x="1745.9063" y="77.9951">RankingService</text><ellipse cx="1803.2451" cy="49" fill="#E2E2F0" rx="12" ry="12" style="stroke:#181818;stroke-width:0.5;"/><polygon fill="#181818" points="1799.2451,37,1805.2451,32,1803.2451,37,1805.2451,42,1799.2451,37" style="stroke:#181818;stroke-width:1;"/></g><g class="message" data-participant-1="Student" data-participant-2="OrderingInterface"><polygon fill="#181818" points="287.4907,108.4297,297.4907,112.4297,287.4907,116.4297,291.4907,112.4297" style="stroke:#181818;stroke-width:1;"/><line style="stroke:#181818;stroke-width:1;" x1="35.5557" x2="293.4907" y1="112.4297" y2="112.4297"/><text fill="#000000" font-family="sans-serif" font-size="13" lengthAdjust="spacing" textLength="114.0547" x="42.5557" y="107.3638">Click "My Orders"</text></g><g class="message" data-participant-1="OrderingInterface" data-participant-2="SecurityFilter"><polygon fill="#181818" points="419.4707,137.5625,429.4707,141.5625,419.4707,145.5625,423.4707,141.5625" style="stroke:#181818;stroke-width:1;"/><line style="stroke:#181818;stroke-width:1;" x1="299.4907" x2="425.4707" y1="141.5625" y2="141.5625"/><text fill="#000000" font-family="sans-serif" font-size="13" lengthAdjust="spacing" textLength="107.98" x="306.4907" y="136.4966">Carry JWT Token</text></g><g class="message" data-participant-1="SecurityFilter" data-participant-2="JWTTokenService"><polygon fill="#181818" points="582.2876,166.6953,592.2876,170.6953,582.2876,174.6953,586.2876,170.6953" style="stroke:#181818;stroke-width:1;"/><line style="stroke:#181818;stroke-width:1;" x1="431.4707" x2="588.2876" y1="170.6953" y2="170.6953"/><text fill="#000000" font-family="sans-serif" font-size="13" lengthAdjust="spacing" textLength="138.8169" x="438.4707" y="165.6294">validateToken(token)</text></g><g class="message" data-participant-1="JWTTokenService" data-participant-2="SecurityFilter"><polygon fill="#181818" points="442.4707,195.8281,432.4707,199.8281,442.4707,203.8281,438.4707,199.8281" style="stroke:#181818;stroke-width:1;"/><line style="stroke:#181818;stroke-width:1;stroke-dasharray:2,2;" x1="436.4707" x2="593.2876" y1="199.8281" y2="199.8281"/><text fill="#000000" font-family="sans-serif" font-size="13" lengthAdjust="spacing" textLength="61.7817" x="448.4707" y="194.7622">studentId</text></g><path d="M847,212.8281 L847,237.8281 L1110,237.8281 L1110,222.8281 L1100,212.8281 L847,212.8281" fill="#FEFFDD" style="stroke:#181818;stroke-width:0.5;"/><path d="M1100,212.8281 L1100,222.8281 L1110,222.8281 L1100,212.8281" fill="#FEFFDD" style="stroke:#181818;stroke-width:0.5;"/><text fill="#000000" font-family="sans-serif" font-size="13" lengthAdjust="spacing" textLength="242.9819" x="853" y="229.895">Query order list (cache-first strategy)</text><g class="message" data-participant-1="SecurityFilter" data-participant-2="OrderController"><polygon fill="#181818" points="830.0107,260.0938,840.0107,264.0938,830.0107,268.0938,834.0107,264.0938" style="stroke:#181818;stroke-width:1;"/><line style="stroke:#181818;stroke-width:1;" x1="431.4707" x2="836.0107" y1="264.0938" y2="264.0938"/><text fill="#000000" font-family="sans-serif" font-size="13" lengthAdjust="spacing" textLength="176.6934" x="438.4707" y="259.0278">getOrderHistory(studentId)</text></g><g class="message" data-participant-1="OrderController" data-participant-2="OrderRepository"><polygon fill="#181818" points="1221.4805,289.2266,1231.4805,293.2266,1221.4805,297.2266,1225.4805,293.2266" style="stroke:#181818;stroke-width:1;"/><line style="stroke:#181818;stroke-width:1;" x1="842.0107" x2="1227.4805" y1="293.2266" y2="293.2266"/><text fill="#000000" font-family="sans-serif" font-size="13" lengthAdjust="spacing" textLength="176.4775" x="849.0107" y="288.1606">findByStudentId(studentId)</text></g><g class="message" data-participant-1="OrderRepository" data-participant-2="Redis"><polygon fill="#181818" points="1504.2998,318.3594,1514.2998,322.3594,1504.2998,326.3594,1508.2998,322.3594" style="stroke:#181818;stroke-width:1;"/><line style="stroke:#181818;stroke-width:1;" x1="1233.4805" x2="1510.2998" y1="322.3594" y2="322.3594"/><text fill="#000000" font-family="sans-serif" font-size="13" lengthAdjust="spacing" textLength="201.8491" x="1240.4805" y="317.2935">GET orders_cache_{studentId}</text></g><path d="M1162.9287,337.3594 L1227.3716,337.3594 L1227.3716,344.4922 L1217.3716,354.4922 L1162.9287,354.4922 L1162.9287,337.3594" fill="#EEEEEE" style="stroke:#000000;stroke-width:1.5;"/><rect fill="none" height="148.4688" style="stroke:#000000;stroke-width:1.5;" width="449.647" x="1162.9287" y="337.3594"/><text fill="#000000" font-family="sans-serif" font-size="13" font-weight="bold" lengthAdjust="spacing" textLength="19.4429" x="1177.9287" y="350.4263">alt</text><text fill="#000000" font-family="sans-serif" font-size="11" font-weight="bold" lengthAdjust="spacing" textLength="68.0518" x="1242.3716" y="349.5698">[Cache hit]</text><g class="message" data-participant-1="Redis" data-participant-2="OrderRepository"><polygon fill="#181818" points="1244.4805,371.625,1234.4805,375.625,1244.4805,379.625,1240.4805,375.625" style="stroke:#181818;stroke-width:1;"/><line style="stroke:#181818;stroke-width:1;stroke-dasharray:2,2;" x1="1238.4805" x2="1515.2998" y1="375.625" y2="375.625"/><text fill="#000000" font-family="sans-serif" font-size="13" lengthAdjust="spacing" textLength="106.2026" x="1250.4805" y="370.5591">Return order list</text></g><line style="stroke:#000000;stroke-width:1;stroke-dasharray:2,2;" x1="1162.9287" x2="1612.5757" y1="384.625" y2="384.625"/><text fill="#000000" font-family="sans-serif" font-size="11" font-weight="bold" lengthAdjust="spacing" textLength="79.519" x="1167.9287" y="394.8354">[Cache miss]</text><g class="message" data-participant-1="OrderRepository" data-participant-2="MySQL"><polygon fill="#181818" points="1563.5405,415.5625,1573.5405,419.5625,1563.5405,423.5625,1567.5405,419.5625" style="stroke:#181818;stroke-width:1;"/><line style="stroke:#181818;stroke-width:1;" x1="1233.4805" x2="1569.5405" y1="419.5625" y2="419.5625"/><text fill="#000000" font-family="sans-serif" font-size="13" lengthAdjust="spacing" textLength="297.9336" x="1240.4805" y="414.4966">SELECT * FROM orders WHERE student_id = ?</text></g><g class="message" data-participant-1="MySQL" data-participant-2="OrderRepository"><polygon fill="#181818" points="1244.4805,444.6953,1234.4805,448.6953,1244.4805,452.6953,1240.4805,448.6953" style="stroke:#181818;stroke-width:1;"/><line style="stroke:#181818;stroke-width:1;stroke-dasharray:2,2;" x1="1238.4805" x2="1574.5405" y1="448.6953" y2="448.6953"/><text fill="#000000" font-family="sans-serif" font-size="13" lengthAdjust="spacing" textLength="70.5859" x="1250.4805" y="443.6294">Order data</text></g><g class="message" data-participant-1="OrderRepository" data-participant-2="Redis"><polygon fill="#181818" points="1504.2998,473.8281,1514.2998,477.8281,1504.2998,481.8281,1508.2998,477.8281" style="stroke:#181818;stroke-width:1;"/><line style="stroke:#181818;stroke-width:1;" x1="1233.4805" x2="1510.2998" y1="477.8281" y2="477.8281"/><text fill="#000000" font-family="sans-serif" font-size="13" lengthAdjust="spacing" textLength="258.8193" x="1240.4805" y="472.7622">SET orders_cache_{studentId}, TTL=1h</text></g><g class="message" data-participant-1="OrderRepository" data-participant-2="OrderController"><polygon fill="#181818" points="853.0107,509.9609,843.0107,513.9609,853.0107,517.9609,849.0107,513.9609" style="stroke:#181818;stroke-width:1;"/><line style="stroke:#181818;stroke-width:1;stroke-dasharray:2,2;" x1="847.0107" x2="1232.4805" y1="513.9609" y2="513.9609"/><text fill="#000000" font-family="sans-serif" font-size="13" lengthAdjust="spacing" textLength="81.6816" x="859.0107" y="508.895">List&lt;Order&gt;</text></g><g class="message" data-participant-1="OrderController" data-participant-2="OrderingInterface"><polygon fill="#181818" points="310.4907,539.0938,300.4907,543.0938,310.4907,547.0938,306.4907,543.0938" style="stroke:#181818;stroke-width:1;"/><line style="stroke:#181818;stroke-width:1;stroke-dasharray:2,2;" x1="304.4907" x2="841.0107" y1="543.0938" y2="543.0938"/><text fill="#000000" font-family="sans-serif" font-size="13" lengthAdjust="spacing" textLength="106.2026" x="316.4907" y="538.0278">Return order list</text></g><g class="message" data-participant-1="OrderingInterface" data-participant-2="Student"><polygon fill="#181818" points="46.5557,568.2266,36.5557,572.2266,46.5557,576.2266,42.5557,572.2266" style="stroke:#181818;stroke-width:1;"/><line style="stroke:#181818;stroke-width:1;stroke-dasharray:2,2;" x1="40.5557" x2="298.4907" y1="572.2266" y2="572.2266"/><text fill="#000000" font-family="sans-serif" font-size="13" lengthAdjust="spacing" textLength="135.7891" x="52.5557" y="567.1606">Display order history</text></g><path d="M40,585.2266 L40,610.2266 L321,610.2266 L321,595.2266 L311,585.2266 L40,585.2266" fill="#FEFFDD" style="stroke:#181818;stroke-width:0.5;"/><path d="M311,585.2266 L311,595.2266 L321,595.2266 L311,585.2266" fill="#FEFFDD" style="stroke:#181818;stroke-width:0.5;"/><text fill="#000000" font-family="sans-serif" font-size="13" lengthAdjust="spacing" textLength="260.7109" x="46" y="602.2935">User selects completed order for review</text><g class="message" data-participant-1="Student" data-participant-2="OrderingInterface"><polygon fill="#181818" points="287.4907,632.4922,297.4907,636.4922,287.4907,640.4922,291.4907,636.4922" style="stroke:#181818;stroke-width:1;"/><line style="stroke:#181818;stroke-width:1;" x1="35.5557" x2="293.4907" y1="636.4922" y2="636.4922"/><text fill="#000000" font-family="sans-serif" font-size="13" lengthAdjust="spacing" textLength="141.0449" x="42.5557" y="631.4263">Click "Review" button</text></g><g class="message" data-participant-1="OrderingInterface" data-participant-2="OrderController"><polygon fill="#181818" points="830.0107,661.625,840.0107,665.625,830.0107,669.625,834.0107,665.625" style="stroke:#181818;stroke-width:1;"/><line style="stroke:#181818;stroke-width:1;" x1="299.4907" x2="836.0107" y1="665.625" y2="665.625"/><text fill="#000000" font-family="sans-serif" font-size="13" lengthAdjust="spacing" textLength="321.0581" x="306.4907" y="660.5591">submitReview(orderId, rating, comment, images)</text></g><path d="M847,678.625 L847,703.625 L1031,703.625 L1031,688.625 L1021,678.625 L847,678.625" fill="#FEFFDD" style="stroke:#181818;stroke-width:0.5;"/><path d="M1021,678.625 L1021,688.625 L1031,688.625 L1021,678.625" fill="#FEFFDD" style="stroke:#181818;stroke-width:0.5;"/><text fill="#000000" font-family="sans-serif" font-size="13" lengthAdjust="spacing" textLength="163.5981" x="853" y="695.6919">Validate order ownership</text><g class="message" data-participant-1="OrderController" data-participant-2="JWTTokenService"><polygon fill="#181818" points="605.2876,725.8906,595.2876,729.8906,605.2876,733.8906,601.2876,729.8906" style="stroke:#181818;stroke-width:1;"/><line style="stroke:#181818;stroke-width:1;" x1="599.2876" x2="841.0107" y1="729.8906" y2="729.8906"/><text fill="#000000" font-family="sans-serif" font-size="13" lengthAdjust="spacing" textLength="223.7231" x="611.2876" y="724.8247">validateOwnership(token, orderId)</text></g><g class="message" data-participant-1="JWTTokenService" data-participant-2="OrderController"><polygon fill="#181818" points="830.0107,755.0234,840.0107,759.0234,830.0107,763.0234,834.0107,759.0234" style="stroke:#181818;stroke-width:1;"/><line style="stroke:#181818;stroke-width:1;stroke-dasharray:2,2;" x1="594.2876" x2="836.0107" y1="759.0234" y2="759.0234"/><text fill="#000000" font-family="sans-serif" font-size="13" lengthAdjust="spacing" textLength="115.3496" x="601.2876" y="753.9575">Validation passed</text></g><path d="M847,772.0234 L847,797.0234 L1000,797.0234 L1000,782.0234 L990,772.0234 L847,772.0234" fill="#FEFFDD" style="stroke:#181818;stroke-width:0.5;"/><path d="M990,772.0234 L990,782.0234 L1000,782.0234 L990,772.0234" fill="#FEFFDD" style="stroke:#181818;stroke-width:0.5;"/><text fill="#000000" font-family="sans-serif" font-size="13" lengthAdjust="spacing" textLength="132.7612" x="853" y="789.0903">Create review entity</text><g class="message" data-participant-1="OrderController" data-participant-2="OrderController"><line style="stroke:#181818;stroke-width:1;" x1="842.0107" x2="884.0107" y1="823.2891" y2="823.2891"/><line style="stroke:#181818;stroke-width:1;" x1="884.0107" x2="884.0107" y1="823.2891" y2="836.2891"/><line style="stroke:#181818;stroke-width:1;" x1="843.0107" x2="884.0107" y1="836.2891" y2="836.2891"/><polygon fill="#181818" points="853.0107,832.2891,843.0107,836.2891,853.0107,840.2891,849.0107,836.2891" style="stroke:#181818;stroke-width:1;"/><text fill="#000000" font-family="sans-serif" font-size="13" lengthAdjust="spacing" textLength="377.4697" x="849.0107" y="818.2231">new Review(orderId, studentId, rating, comment, images)</text></g><path d="M847,849.2891 L847,874.2891 L1022,874.2891 L1022,859.2891 L1012,849.2891 L847,849.2891" fill="#FEFFDD" style="stroke:#181818;stroke-width:0.5;"/><path d="M1012,849.2891 L1012,859.2891 L1022,859.2891 L1012,849.2891" fill="#FEFFDD" style="stroke:#181818;stroke-width:0.5;"/><text fill="#000000" font-family="sans-serif" font-size="13" lengthAdjust="spacing" textLength="154.8003" x="853" y="866.356">Hybrid storage strategy</text><g class="message" data-participant-1="OrderController" data-participant-2="MongoDB"><polygon fill="#181818" points="1637.2529,896.5547,1647.2529,900.5547,1637.2529,904.5547,1641.2529,900.5547" style="stroke:#181818;stroke-width:1;"/><line style="stroke:#181818;stroke-width:1;" x1="842.0107" x2="1643.2529" y1="900.5547" y2="900.5547"/><text fill="#000000" font-family="sans-serif" font-size="13" lengthAdjust="spacing" textLength="286.8379" x="849.0107" y="895.4888">Store review document (rich text + images)</text></g><g class="message" data-participant-1="MongoDB" data-participant-2="OrderController"><polygon fill="#181818" points="853.0107,925.6875,843.0107,929.6875,853.0107,933.6875,849.0107,929.6875" style="stroke:#181818;stroke-width:1;"/><line style="stroke:#181818;stroke-width:1;stroke-dasharray:2,2;" x1="847.0107" x2="1648.2529" y1="929.6875" y2="929.6875"/><text fill="#000000" font-family="sans-serif" font-size="13" lengthAdjust="spacing" textLength="122.2749" x="859.0107" y="924.6216">Storage successful</text></g><g class="message" data-participant-1="OrderController" data-participant-2="MySQL"><polygon fill="#181818" points="1563.5405,954.8203,1573.5405,958.8203,1563.5405,962.8203,1567.5405,958.8203" style="stroke:#181818;stroke-width:1;"/><line style="stroke:#181818;stroke-width:1;" x1="842.0107" x2="1569.5405" y1="958.8203" y2="958.8203"/><text fill="#000000" font-family="sans-serif" font-size="13" lengthAdjust="spacing" textLength="343.751" x="849.0107" y="953.7544">UPDATE orders SET has_review = true WHERE id = ?</text></g><g class="message" data-participant-1="MySQL" data-participant-2="OrderController"><polygon fill="#181818" points="853.0107,983.9531,843.0107,987.9531,853.0107,991.9531,849.0107,987.9531" style="stroke:#181818;stroke-width:1;"/><line style="stroke:#181818;stroke-width:1;stroke-dasharray:2,2;" x1="847.0107" x2="1574.5405" y1="987.9531" y2="987.9531"/><text fill="#000000" font-family="sans-serif" font-size="13" lengthAdjust="spacing" textLength="118.4917" x="859.0107" y="982.8872">Update successful</text></g><path d="M847,1000.9531 L847,1025.9531 L1121,1025.9531 L1121,1010.9531 L1111,1000.9531 L847,1000.9531" fill="#FEFFDD" style="stroke:#181818;stroke-width:0.5;"/><path d="M1111,1000.9531 L1111,1010.9531 L1121,1010.9531 L1111,1000.9531" fill="#FEFFDD" style="stroke:#181818;stroke-width:0.5;"/><text fill="#000000" font-family="sans-serif" font-size="13" lengthAdjust="spacing" textLength="253.8555" x="853" y="1018.02">Update dish ranking (Redis Sorted Set)</text><g class="message" data-participant-1="OrderController" data-participant-2="RankingService"><polygon fill="#181818" points="1791.2451,1048.2188,1801.2451,1052.2188,1791.2451,1056.2188,1795.2451,1052.2188" style="stroke:#181818;stroke-width:1;"/><line style="stroke:#181818;stroke-width:1;" x1="842.0107" x2="1797.2451" y1="1052.2188" y2="1052.2188"/><text fill="#000000" font-family="sans-serif" font-size="13" lengthAdjust="spacing" textLength="223.1899" x="849.0107" y="1047.1528">updateDishRanking(dishId, rating)</text></g><g class="message" data-participant-1="RankingService" data-participant-2="Redis"><polygon fill="#181818" points="1527.2998,1077.3516,1517.2998,1081.3516,1527.2998,1085.3516,1523.2998,1081.3516" style="stroke:#181818;stroke-width:1;"/><line style="stroke:#181818;stroke-width:1;" x1="1521.2998" x2="1802.2451" y1="1081.3516" y2="1081.3516"/><text fill="#000000" font-family="sans-serif" font-size="13" lengthAdjust="spacing" textLength="262.9453" x="1533.2998" y="1076.2856">ZINCRBY dish_ranking {dishId} {rating}</text></g><g class="message" data-participant-1="Redis" data-participant-2="RankingService"><polygon fill="#181818" points="1791.2451,1106.4844,1801.2451,1110.4844,1791.2451,1114.4844,1795.2451,1110.4844" style="stroke:#181818;stroke-width:1;"/><line style="stroke:#181818;stroke-width:1;stroke-dasharray:2,2;" x1="1516.2998" x2="1797.2451" y1="1110.4844" y2="1110.4844"/><text fill="#000000" font-family="sans-serif" font-size="13" lengthAdjust="spacing" textLength="118.4917" x="1523.2998" y="1105.4185">Update successful</text></g><g class="message" data-participant-1="RankingService" data-participant-2="OrderController"><polygon fill="#181818" points="853.0107,1135.6172,843.0107,1139.6172,853.0107,1143.6172,849.0107,1139.6172" style="stroke:#181818;stroke-width:1;"/><line style="stroke:#181818;stroke-width:1;stroke-dasharray:2,2;" x1="847.0107" x2="1802.2451" y1="1139.6172" y2="1139.6172"/><text fill="#000000" font-family="sans-serif" font-size="13" lengthAdjust="spacing" textLength="111.0586" x="859.0107" y="1134.5513">Ranking updated</text></g><g class="message" data-participant-1="OrderController" data-participant-2="OrderingInterface"><polygon fill="#181818" points="310.4907,1164.75,300.4907,1168.75,310.4907,1172.75,306.4907,1168.75" style="stroke:#181818;stroke-width:1;"/><line style="stroke:#181818;stroke-width:1;stroke-dasharray:2,2;" x1="304.4907" x2="841.0107" y1="1168.75" y2="1168.75"/><text fill="#000000" font-family="sans-serif" font-size="13" lengthAdjust="spacing" textLength="211.7578" x="316.4907" y="1163.6841">"Review submitted successfully"</text></g><g class="message" data-participant-1="OrderingInterface" data-participant-2="Student"><polygon fill="#181818" points="46.5557,1193.8828,36.5557,1197.8828,46.5557,1201.8828,42.5557,1197.8828" style="stroke:#181818;stroke-width:1;"/><line style="stroke:#181818;stroke-width:1;stroke-dasharray:2,2;" x1="40.5557" x2="298.4907" y1="1197.8828" y2="1197.8828"/><text fill="#000000" font-family="sans-serif" font-size="13" lengthAdjust="spacing" textLength="239.9351" x="52.5557" y="1192.8169">Display "Thank you for your review!"</text></g><!--SRC=[fLN1Rjf04BtlLqmvGKiElLfDguQGXeeqZUqqQY_8s0DUnNZHxZg95UNVErwl3TXB4waSG1xFs_TcTkQHyWHX9OHUYYV6ebWB2O4k4imrMueYJo9PmhLCKF9yFSirobKK8uj5hgN88C2ua5oN5poZLstu-rqOYdlC0vGFV2_T73If7pBA9nO2rs4Vjq9nuY-Ri8y9Lyt3LHdSpDi7aQ_5-LbxhX_bzwIleMEs0ZZvtDVkmIJZyJqChYon6h1UKeKyh8rWaQHUK6bWQcE7xoj4fsmF7gAC9v564ntgwdl4Ebbmuk1ITG6pXB5SQ0J9rwa6iUfsq8ER0acLgCAGSQLX64TnYYShBkb1QKdqwtBaKDixQetQn2xf6Bg6OIjYn3gvBNntQHwiU9wSbK43seUpJdA5DxVhmRTfMAjN2oDyyTpYNcWWCqrzfp2aN3EWZu6PdlK4-AWBcU_rWc6cqE8tN2bpW4EAcIqFWkbyEWdXFLpurrTM5DnTJlrfSnyBdi0fV37d691RY0a0NNnqZD4M7_oZ-364uVpqOqepdpWQwBh0ETNyoKG_zs_ClGlzdZbseHhGMfS7vrnjiwYPkBGUbUwKjjctYf8KPXXh1R7OR3FKc5ZmYhn6uWF7nxSjh6zo1x0ij1QvUsbxFL75SiDr3HqQtbao1jeAGeuhIHlY7GFVH6jKerVNxPVTQ5k2UCpfybA-TMt8KJkuRb2r9Op1wd9xmp4DNEImZPJ2rqrY8h7IN3SRQXCzkjFxm9pIkxrhH_G_sdXPBYNjKZKy16XjogN9UZqj2oMtDIGYBYfA64eUfw3nISE7bjvYtEqB6j8YZb6fLP4n9szj2hS_px-6qyODgeLD8xMmAav1omAjHrXlwFZ2FlFjrepEFl4hVR88CekKcct-v61OMs0WPBLA0MgdFH_-9NfGc9DeUrFxPbWTkhl44Jj4xBdKdzcFYN_sswXOD2gUQ_WBFDVu5xPpvYvtl-ukbwjRDiSgJzXRBStwXDtygaSxugmSlDNW1c5A0g0KXJ4g-ctSwjtWBm00]--></g></svg>