<svg width="866" height="104" viewBox="0 0 866 104" fill="none" xmlns="http://www.w3.org/2000/svg">
<path d="M86.5 8H17.5C15.3829 8 13.6667 9.34315 13.6667 11V65C13.6667 66.6569 15.3829 68 17.5 68H86.5C88.6171 68 90.3333 66.6569 90.3333 65V11C90.3333 9.34315 88.6171 8 86.5 8Z" stroke="#333333" stroke-width="2" stroke-linecap="round" stroke-linejoin="round"/>
<path d="M32.8333 8V68" stroke="#333333" stroke-width="2" stroke-linecap="round"/>
<path d="M52 8V68" stroke="#333333" stroke-width="2" stroke-linecap="round"/>
<path d="M71.1667 8V68" stroke="#333333" stroke-width="2" stroke-linecap="round"/>
<path d="M13.6667 23H90.3333" stroke="#333333" stroke-width="2" stroke-linecap="round" stroke-linejoin="round"/>
<path d="M13.6667 53H90.3333" stroke="#333333" stroke-width="2" stroke-linecap="round" stroke-linejoin="round"/>
<path d="M13.6667 38H90.3333" stroke="#333333" stroke-width="2" stroke-linecap="round" stroke-linejoin="round"/>
<path d="M5.46165 99H0.68892L3.10369 84.4545H7.89773C9.32765 84.4545 10.509 84.7528 11.4418 85.3494C12.3745 85.9413 13.0279 86.7888 13.402 87.892C13.776 88.9905 13.8352 90.3045 13.5795 91.8338C13.3333 93.33 12.8504 94.6132 12.1307 95.6832C11.4157 96.7486 10.4948 97.5677 9.3679 98.1406C8.241 98.7135 6.93892 99 5.46165 99ZM3.21023 97.0824H5.55398C6.66193 97.0824 7.62074 96.867 8.4304 96.4361C9.24479 96.0052 9.9053 95.3802 10.4119 94.5611C10.9186 93.742 11.2689 92.7453 11.4631 91.571C11.6525 90.4536 11.6359 89.509 11.4134 88.7372C11.1908 87.9607 10.7599 87.3736 10.1207 86.9759C9.48153 86.5734 8.63163 86.3722 7.57102 86.3722H4.97869L3.21023 97.0824ZM18.0984 99.2415C17.4071 99.2415 16.8034 99.1136 16.2873 98.858C15.7712 98.5975 15.39 98.2211 15.1438 97.7287C14.8976 97.2363 14.8337 96.6326 14.9521 95.9176C15.0562 95.3021 15.2598 94.7955 15.5629 94.3977C15.8706 94 16.2447 93.6851 16.685 93.4531C17.1254 93.2164 17.6036 93.0388 18.1197 92.9205C18.6358 92.8021 19.1566 92.7145 19.6822 92.6577C20.3451 92.5819 20.8825 92.518 21.2944 92.4659C21.7111 92.4138 22.0236 92.3333 22.2319 92.2244C22.4402 92.1108 22.5657 91.9261 22.6083 91.6705V91.6207C22.7077 91.0052 22.6178 90.527 22.3384 90.1861C22.0638 89.8404 21.5856 89.6676 20.9038 89.6676C20.1935 89.6676 19.5969 89.8239 19.114 90.1364C18.6358 90.4489 18.283 90.7992 18.0558 91.1875L16.1523 90.733C16.4933 90.0701 16.9265 89.535 17.4521 89.1278C17.9824 88.7159 18.5624 88.4176 19.1921 88.233C19.8219 88.0436 20.4658 87.9489 21.1239 87.9489C21.5595 87.9489 22.0117 88.0009 22.4805 88.1051C22.9492 88.2045 23.3754 88.3892 23.7589 88.6591C24.1471 88.929 24.436 89.3149 24.6254 89.8168C24.8147 90.3139 24.8432 90.9602 24.7106 91.7557L23.5103 99H21.4364L21.6921 97.5085H21.6069C21.427 97.7831 21.176 98.053 20.854 98.3182C20.5368 98.5833 20.1486 98.8035 19.6893 98.9787C19.23 99.1539 18.6997 99.2415 18.0984 99.2415ZM18.8228 97.5369C19.4147 97.5369 19.9379 97.4209 20.3924 97.1889C20.8517 96.9569 21.2234 96.6539 21.5075 96.2798C21.7915 95.901 21.9691 95.4962 22.0401 95.0653L22.2745 93.6591C22.1845 93.7348 22.0259 93.8035 21.7987 93.8651C21.5761 93.9266 21.3252 93.9811 21.0458 94.0284C20.7665 94.0758 20.4918 94.116 20.2219 94.1491C19.9568 94.1823 19.7366 94.2131 19.5614 94.2415C19.1448 94.2936 18.7541 94.3812 18.3896 94.5043C18.0297 94.6274 17.729 94.8049 17.4876 95.0369C17.2461 95.2642 17.0946 95.5672 17.033 95.946C16.9478 96.4716 17.0733 96.8693 17.4094 97.1392C17.7504 97.4044 18.2215 97.5369 18.8228 97.5369ZM35.8913 90.7543L33.9098 91.0952C33.8672 90.8442 33.7796 90.6075 33.647 90.3849C33.5192 90.1624 33.3227 89.9825 33.0575 89.8452C32.7924 89.7031 32.4396 89.6321 31.9993 89.6321C31.3885 89.6321 30.8535 89.7718 30.3942 90.0511C29.9396 90.3305 29.6792 90.6856 29.6129 91.1165C29.5514 91.4669 29.6342 91.7509 29.8615 91.9688C30.0888 92.1818 30.4889 92.3594 31.0618 92.5014L32.7379 92.8991C33.7038 93.1312 34.3951 93.4934 34.8118 93.9858C35.2332 94.4735 35.38 95.108 35.2521 95.8892C35.1432 96.5379 34.8591 97.1132 34.3999 97.6151C33.9453 98.117 33.3629 98.5099 32.6527 98.794C31.9425 99.0781 31.1518 99.2202 30.2805 99.2202C29.04 99.2202 28.0741 98.9574 27.3828 98.4318C26.6915 97.9063 26.3364 97.1629 26.3175 96.2017L28.4197 95.8892C28.4576 96.4242 28.6494 96.8291 28.995 97.1037C29.3454 97.3736 29.8307 97.5085 30.451 97.5085C31.1612 97.5133 31.7554 97.3641 32.2337 97.0611C32.7119 96.758 32.9841 96.3911 33.0504 95.9602C33.1072 95.6241 33.0315 95.3447 32.8232 95.1222C32.6196 94.8996 32.2597 94.7292 31.7436 94.6108L29.9822 94.206C28.9974 93.974 28.3014 93.5999 27.8942 93.0838C27.487 92.5677 27.3497 91.919 27.4822 91.1378C27.5864 90.4986 27.8563 89.9422 28.2919 89.4688C28.7322 88.9905 29.2886 88.6188 29.9609 88.3537C30.6333 88.0838 31.3767 87.9489 32.1911 87.9489C33.3795 87.9489 34.272 88.2045 34.8686 88.7159C35.4652 89.2225 35.8061 89.902 35.8913 90.7543ZM40.2575 92.5227L39.1921 99H37.0685L39.4833 84.4545H41.5785L40.6836 89.8665H40.8185C41.1642 89.2746 41.6282 88.8082 42.2106 88.4673C42.7977 88.1217 43.5174 87.9489 44.3697 87.9489C45.1178 87.9489 45.7451 88.1027 46.2518 88.4105C46.7631 88.7183 47.123 89.1776 47.3313 89.7884C47.5444 90.3944 47.5775 91.152 47.4308 92.0611L46.266 99H44.1424L45.2504 92.3168C45.3829 91.5166 45.2788 90.8963 44.9379 90.456C44.5969 90.0109 44.0643 89.7884 43.3398 89.7884C42.8332 89.7884 42.3645 89.8949 41.9336 90.108C41.5075 90.321 41.1476 90.6335 40.854 91.0455C40.5605 91.4527 40.3616 91.9451 40.2575 92.5227ZM49.2631 99L51.6779 84.4545H53.8015L52.9137 89.8594H53.0415C53.2025 89.6321 53.4227 89.3693 53.7021 89.071C53.9862 88.7727 54.3531 88.5123 54.8029 88.2898C55.2527 88.0625 55.8162 87.9489 56.4933 87.9489C57.3739 87.9489 58.122 88.1714 58.7376 88.6165C59.3531 89.0616 59.7887 89.7031 60.0444 90.5412C60.3001 91.3793 60.3308 92.3878 60.1367 93.5668C59.9426 94.7457 59.578 95.7566 59.043 96.5994C58.5127 97.4375 57.8664 98.0838 57.104 98.5384C56.3417 98.9882 55.5202 99.2131 54.6396 99.2131C53.9767 99.2131 53.4535 99.1018 53.07 98.8793C52.6912 98.6567 52.4071 98.3963 52.2177 98.098C52.033 97.7997 51.8933 97.5346 51.7987 97.3026H51.6211L51.337 99H49.2631ZM52.2532 93.5455C52.1301 94.3125 52.1301 94.9848 52.2532 95.5625C52.381 96.1402 52.6296 96.5923 52.9989 96.919C53.373 97.241 53.863 97.402 54.4691 97.402C55.1036 97.402 55.6623 97.2339 56.1452 96.8977C56.6282 96.5568 57.0259 96.0952 57.3384 95.5128C57.6509 94.9304 57.8687 94.2746 57.9918 93.5455C58.1055 92.8258 58.1031 92.1795 57.9847 91.6065C57.8664 91.0336 57.6201 90.5814 57.2461 90.25C56.8768 89.9186 56.3725 89.7528 55.7333 89.7528C55.1178 89.7528 54.5709 89.9115 54.0927 90.2287C53.6145 90.5459 53.2191 90.9886 52.9066 91.5568C52.5941 92.125 52.3763 92.7879 52.2532 93.5455ZM66.2571 99.2202C65.2202 99.2202 64.3537 98.9834 63.6577 98.5099C62.9616 98.0317 62.4716 97.3641 62.1875 96.5071C61.9081 95.6454 61.8608 94.6439 62.0455 93.5028C62.2254 92.3854 62.5876 91.41 63.1321 90.5767C63.6813 89.7434 64.3679 89.0971 65.1918 88.6378C66.0204 88.1785 66.9413 87.9489 67.9545 87.9489C68.9915 87.9489 69.8556 88.188 70.5469 88.6662C71.2429 89.1444 71.733 89.8144 72.017 90.6761C72.3011 91.5379 72.3509 92.5417 72.1662 93.6875C71.9863 94.7955 71.6193 95.7661 71.0653 96.5994C70.5161 97.428 69.8295 98.072 69.0057 98.5312C68.1818 98.9905 67.2656 99.2202 66.2571 99.2202ZM66.3778 97.4375C67.0597 97.4375 67.6539 97.2576 68.1605 96.8977C68.6719 96.5379 69.0885 96.0597 69.4105 95.4631C69.7325 94.8665 69.9527 94.2131 70.071 93.5028C70.1799 92.8163 70.1776 92.1889 70.0639 91.6207C69.955 91.0478 69.7183 90.5885 69.3537 90.2429C68.9891 89.8973 68.4825 89.7244 67.8338 89.7244C67.152 89.7244 66.553 89.9067 66.0369 90.2713C65.5256 90.6312 65.1089 91.1117 64.7869 91.7131C64.4697 92.3144 64.2543 92.9702 64.1406 93.6804C64.0317 94.3622 64.0317 94.9896 64.1406 95.5625C64.2495 96.1307 64.4863 96.5852 64.8509 96.9261C65.2154 97.267 65.7244 97.4375 66.3778 97.4375ZM76.8093 99.2415C76.118 99.2415 75.5143 99.1136 74.9982 98.858C74.4821 98.5975 74.101 98.2211 73.8548 97.7287C73.6085 97.2363 73.5446 96.6326 73.663 95.9176C73.7672 95.3021 73.9708 94.7955 74.2738 94.3977C74.5816 94 74.9556 93.6851 75.396 93.4531C75.8363 93.2164 76.3145 93.0388 76.8306 92.9205C77.3467 92.8021 77.8675 92.7145 78.3931 92.6577C79.056 92.5819 79.5934 92.518 80.0053 92.4659C80.422 92.4138 80.7345 92.3333 80.9428 92.2244C81.1512 92.1108 81.2766 91.9261 81.3192 91.6705V91.6207C81.4187 91.0052 81.3287 90.527 81.0494 90.1861C80.7747 89.8404 80.2965 89.6676 79.6147 89.6676C78.9045 89.6676 78.3079 89.8239 77.8249 90.1364C77.3467 90.4489 76.994 90.7992 76.7667 91.1875L74.8633 90.733C75.2042 90.0701 75.6374 89.535 76.163 89.1278C76.6933 88.7159 77.2733 88.4176 77.9031 88.233C78.5328 88.0436 79.1767 87.9489 79.8349 87.9489C80.2705 87.9489 80.7227 88.0009 81.1914 88.1051C81.6602 88.2045 82.0863 88.3892 82.4698 88.6591C82.8581 88.929 83.1469 89.3149 83.3363 89.8168C83.5257 90.3139 83.5541 90.9602 83.4215 91.7557L82.2212 99H80.1474L80.4031 97.5085H80.3178C80.1379 97.7831 79.887 98.053 79.565 98.3182C79.2478 98.5833 78.8595 98.8035 78.4002 98.9787C77.9409 99.1539 77.4106 99.2415 76.8093 99.2415ZM77.5337 97.5369C78.1256 97.5369 78.6488 97.4209 79.1033 97.1889C79.5626 96.9569 79.9343 96.6539 80.2184 96.2798C80.5025 95.901 80.68 95.4962 80.7511 95.0653L80.9854 93.6591C80.8955 93.7348 80.7369 93.8035 80.5096 93.8651C80.2871 93.9266 80.0361 93.9811 79.7567 94.0284C79.4774 94.0758 79.2028 94.116 78.9329 94.1491C78.6677 94.1823 78.4476 94.2131 78.2724 94.2415C77.8557 94.2936 77.4651 94.3812 77.1005 94.5043C76.7406 94.6274 76.44 94.8049 76.1985 95.0369C75.957 95.2642 75.8055 95.5672 75.744 95.946C75.6587 96.4716 75.7842 96.8693 76.1204 97.1392C76.4613 97.4044 76.9324 97.5369 77.5337 97.5369ZM85.0497 99L86.8679 88.0909H88.9205L88.6293 89.8239H88.7429C89.0365 89.2367 89.465 88.7751 90.0284 88.4389C90.5919 88.098 91.1932 87.9276 91.8324 87.9276C91.9697 87.9276 92.1259 87.9323 92.3011 87.9418C92.4763 87.9465 92.6184 87.9583 92.7273 87.9773L92.3864 90.0085C92.3059 89.9848 92.1591 89.9588 91.946 89.9304C91.733 89.8973 91.5128 89.8807 91.2855 89.8807C90.7884 89.8807 90.3267 89.9872 89.9006 90.2003C89.4744 90.4086 89.117 90.6998 88.8281 91.0739C88.5393 91.4432 88.3523 91.8646 88.267 92.3381L87.1733 99H85.0497ZM96.4435 99.2131C95.5581 99.2131 94.8076 98.9882 94.1921 98.5384C93.5813 98.0838 93.1481 97.4375 92.8924 96.5994C92.6415 95.7566 92.613 94.7457 92.8072 93.5668C93.006 92.3878 93.373 91.3793 93.908 90.5412C94.4431 89.7031 95.0917 89.0616 95.854 88.6165C96.6164 88.1714 97.4379 87.9489 98.3185 87.9489C98.9956 87.9489 99.5212 88.0625 99.8952 88.2898C100.274 88.5123 100.553 88.7727 100.733 89.071C100.913 89.3693 101.048 89.6321 101.138 89.8594H101.259L102.161 84.4545H104.284L101.87 99H99.7958L100.087 97.3026H99.9094C99.7437 97.5346 99.5141 97.7997 99.2205 98.098C98.9317 98.3963 98.5624 98.6567 98.1126 98.8793C97.6628 99.1018 97.1064 99.2131 96.4435 99.2131ZM97.1609 97.402C97.7717 97.402 98.3185 97.241 98.8015 96.919C99.2892 96.5923 99.694 96.1402 100.016 95.5625C100.343 94.9848 100.57 94.3125 100.698 93.5455C100.826 92.7879 100.823 92.125 100.691 91.5568C100.558 90.9886 100.302 90.5459 99.9237 90.2287C99.5449 89.9115 99.0453 89.7528 98.4251 89.7528C97.7859 89.7528 97.2295 89.9186 96.756 90.25C96.2826 90.5814 95.8943 91.0336 95.5913 91.6065C95.293 92.1795 95.0846 92.8258 94.9663 93.5455C94.8432 94.2746 94.8384 94.9304 94.9521 95.5128C95.0657 96.0952 95.3048 96.5568 95.6694 96.8977C96.034 97.2339 96.5311 97.402 97.1609 97.402Z" fill="black"/>
<path d="M5.46165 99H0.68892L3.10369 84.4545H7.89773C9.32765 84.4545 10.509 84.7528 11.4418 85.3494C12.3745 85.9413 13.0279 86.7888 13.402 87.892C13.776 88.9905 13.8352 90.3045 13.5795 91.8338C13.3333 93.33 12.8504 94.6132 12.1307 95.6832C11.4157 96.7486 10.4948 97.5677 9.3679 98.1406C8.241 98.7135 6.93892 99 5.46165 99ZM3.21023 97.0824H5.55398C6.66193 97.0824 7.62074 96.867 8.4304 96.4361C9.24479 96.0052 9.9053 95.3802 10.4119 94.5611C10.9186 93.742 11.2689 92.7453 11.4631 91.571C11.6525 90.4536 11.6359 89.509 11.4134 88.7372C11.1908 87.9607 10.7599 87.3736 10.1207 86.9759C9.48153 86.5734 8.63163 86.3722 7.57102 86.3722H4.97869L3.21023 97.0824ZM18.0984 99.2415C17.4071 99.2415 16.8034 99.1136 16.2873 98.858C15.7712 98.5975 15.39 98.2211 15.1438 97.7287C14.8976 97.2363 14.8337 96.6326 14.9521 95.9176C15.0562 95.3021 15.2598 94.7955 15.5629 94.3977C15.8706 94 16.2447 93.6851 16.685 93.4531C17.1254 93.2164 17.6036 93.0388 18.1197 92.9205C18.6358 92.8021 19.1566 92.7145 19.6822 92.6577C20.3451 92.5819 20.8825 92.518 21.2944 92.4659C21.7111 92.4138 22.0236 92.3333 22.2319 92.2244C22.4402 92.1108 22.5657 91.9261 22.6083 91.6705V91.6207C22.7077 91.0052 22.6178 90.527 22.3384 90.1861C22.0638 89.8404 21.5856 89.6676 20.9038 89.6676C20.1935 89.6676 19.5969 89.8239 19.114 90.1364C18.6358 90.4489 18.283 90.7992 18.0558 91.1875L16.1523 90.733C16.4933 90.0701 16.9265 89.535 17.4521 89.1278C17.9824 88.7159 18.5624 88.4176 19.1921 88.233C19.8219 88.0436 20.4658 87.9489 21.1239 87.9489C21.5595 87.9489 22.0117 88.0009 22.4805 88.1051C22.9492 88.2045 23.3754 88.3892 23.7589 88.6591C24.1471 88.929 24.436 89.3149 24.6254 89.8168C24.8147 90.3139 24.8432 90.9602 24.7106 91.7557L23.5103 99H21.4364L21.6921 97.5085H21.6069C21.427 97.7831 21.176 98.053 20.854 98.3182C20.5368 98.5833 20.1486 98.8035 19.6893 98.9787C19.23 99.1539 18.6997 99.2415 18.0984 99.2415ZM18.8228 97.5369C19.4147 97.5369 19.9379 97.4209 20.3924 97.1889C20.8517 96.9569 21.2234 96.6539 21.5075 96.2798C21.7915 95.901 21.9691 95.4962 22.0401 95.0653L22.2745 93.6591C22.1845 93.7348 22.0259 93.8035 21.7987 93.8651C21.5761 93.9266 21.3252 93.9811 21.0458 94.0284C20.7665 94.0758 20.4918 94.116 20.2219 94.1491C19.9568 94.1823 19.7366 94.2131 19.5614 94.2415C19.1448 94.2936 18.7541 94.3812 18.3896 94.5043C18.0297 94.6274 17.729 94.8049 17.4876 95.0369C17.2461 95.2642 17.0946 95.5672 17.033 95.946C16.9478 96.4716 17.0733 96.8693 17.4094 97.1392C17.7504 97.4044 18.2215 97.5369 18.8228 97.5369ZM35.8913 90.7543L33.9098 91.0952C33.8672 90.8442 33.7796 90.6075 33.647 90.3849C33.5192 90.1624 33.3227 89.9825 33.0575 89.8452C32.7924 89.7031 32.4396 89.6321 31.9993 89.6321C31.3885 89.6321 30.8535 89.7718 30.3942 90.0511C29.9396 90.3305 29.6792 90.6856 29.6129 91.1165C29.5514 91.4669 29.6342 91.7509 29.8615 91.9688C30.0888 92.1818 30.4889 92.3594 31.0618 92.5014L32.7379 92.8991C33.7038 93.1312 34.3951 93.4934 34.8118 93.9858C35.2332 94.4735 35.38 95.108 35.2521 95.8892C35.1432 96.5379 34.8591 97.1132 34.3999 97.6151C33.9453 98.117 33.3629 98.5099 32.6527 98.794C31.9425 99.0781 31.1518 99.2202 30.2805 99.2202C29.04 99.2202 28.0741 98.9574 27.3828 98.4318C26.6915 97.9063 26.3364 97.1629 26.3175 96.2017L28.4197 95.8892C28.4576 96.4242 28.6494 96.8291 28.995 97.1037C29.3454 97.3736 29.8307 97.5085 30.451 97.5085C31.1612 97.5133 31.7554 97.3641 32.2337 97.0611C32.7119 96.758 32.9841 96.3911 33.0504 95.9602C33.1072 95.6241 33.0315 95.3447 32.8232 95.1222C32.6196 94.8996 32.2597 94.7292 31.7436 94.6108L29.9822 94.206C28.9974 93.974 28.3014 93.5999 27.8942 93.0838C27.487 92.5677 27.3497 91.919 27.4822 91.1378C27.5864 90.4986 27.8563 89.9422 28.2919 89.4688C28.7322 88.9905 29.2886 88.6188 29.9609 88.3537C30.6333 88.0838 31.3767 87.9489 32.1911 87.9489C33.3795 87.9489 34.272 88.2045 34.8686 88.7159C35.4652 89.2225 35.8061 89.902 35.8913 90.7543ZM40.2575 92.5227L39.1921 99H37.0685L39.4833 84.4545H41.5785L40.6836 89.8665H40.8185C41.1642 89.2746 41.6282 88.8082 42.2106 88.4673C42.7977 88.1217 43.5174 87.9489 44.3697 87.9489C45.1178 87.9489 45.7451 88.1027 46.2518 88.4105C46.7631 88.7183 47.123 89.1776 47.3313 89.7884C47.5444 90.3944 47.5775 91.152 47.4308 92.0611L46.266 99H44.1424L45.2504 92.3168C45.3829 91.5166 45.2788 90.8963 44.9379 90.456C44.5969 90.0109 44.0643 89.7884 43.3398 89.7884C42.8332 89.7884 42.3645 89.8949 41.9336 90.108C41.5075 90.321 41.1476 90.6335 40.854 91.0455C40.5605 91.4527 40.3616 91.9451 40.2575 92.5227ZM49.2631 99L51.6779 84.4545H53.8015L52.9137 89.8594H53.0415C53.2025 89.6321 53.4227 89.3693 53.7021 89.071C53.9862 88.7727 54.3531 88.5123 54.8029 88.2898C55.2527 88.0625 55.8162 87.9489 56.4933 87.9489C57.3739 87.9489 58.122 88.1714 58.7376 88.6165C59.3531 89.0616 59.7887 89.7031 60.0444 90.5412C60.3001 91.3793 60.3308 92.3878 60.1367 93.5668C59.9426 94.7457 59.578 95.7566 59.043 96.5994C58.5127 97.4375 57.8664 98.0838 57.104 98.5384C56.3417 98.9882 55.5202 99.2131 54.6396 99.2131C53.9767 99.2131 53.4535 99.1018 53.07 98.8793C52.6912 98.6567 52.4071 98.3963 52.2177 98.098C52.033 97.7997 51.8933 97.5346 51.7987 97.3026H51.6211L51.337 99H49.2631ZM52.2532 93.5455C52.1301 94.3125 52.1301 94.9848 52.2532 95.5625C52.381 96.1402 52.6296 96.5923 52.9989 96.919C53.373 97.241 53.863 97.402 54.4691 97.402C55.1036 97.402 55.6623 97.2339 56.1452 96.8977C56.6282 96.5568 57.0259 96.0952 57.3384 95.5128C57.6509 94.9304 57.8687 94.2746 57.9918 93.5455C58.1055 92.8258 58.1031 92.1795 57.9847 91.6065C57.8664 91.0336 57.6201 90.5814 57.2461 90.25C56.8768 89.9186 56.3725 89.7528 55.7333 89.7528C55.1178 89.7528 54.5709 89.9115 54.0927 90.2287C53.6145 90.5459 53.2191 90.9886 52.9066 91.5568C52.5941 92.125 52.3763 92.7879 52.2532 93.5455ZM66.2571 99.2202C65.2202 99.2202 64.3537 98.9834 63.6577 98.5099C62.9616 98.0317 62.4716 97.3641 62.1875 96.5071C61.9081 95.6454 61.8608 94.6439 62.0455 93.5028C62.2254 92.3854 62.5876 91.41 63.1321 90.5767C63.6813 89.7434 64.3679 89.0971 65.1918 88.6378C66.0204 88.1785 66.9413 87.9489 67.9545 87.9489C68.9915 87.9489 69.8556 88.188 70.5469 88.6662C71.2429 89.1444 71.733 89.8144 72.017 90.6761C72.3011 91.5379 72.3509 92.5417 72.1662 93.6875C71.9863 94.7955 71.6193 95.7661 71.0653 96.5994C70.5161 97.428 69.8295 98.072 69.0057 98.5312C68.1818 98.9905 67.2656 99.2202 66.2571 99.2202ZM66.3778 97.4375C67.0597 97.4375 67.6539 97.2576 68.1605 96.8977C68.6719 96.5379 69.0885 96.0597 69.4105 95.4631C69.7325 94.8665 69.9527 94.2131 70.071 93.5028C70.1799 92.8163 70.1776 92.1889 70.0639 91.6207C69.955 91.0478 69.7183 90.5885 69.3537 90.2429C68.9891 89.8973 68.4825 89.7244 67.8338 89.7244C67.152 89.7244 66.553 89.9067 66.0369 90.2713C65.5256 90.6312 65.1089 91.1117 64.7869 91.7131C64.4697 92.3144 64.2543 92.9702 64.1406 93.6804C64.0317 94.3622 64.0317 94.9896 64.1406 95.5625C64.2495 96.1307 64.4863 96.5852 64.8509 96.9261C65.2154 97.267 65.7244 97.4375 66.3778 97.4375ZM76.8093 99.2415C76.118 99.2415 75.5143 99.1136 74.9982 98.858C74.4821 98.5975 74.101 98.2211 73.8548 97.7287C73.6085 97.2363 73.5446 96.6326 73.663 95.9176C73.7672 95.3021 73.9708 94.7955 74.2738 94.3977C74.5816 94 74.9556 93.6851 75.396 93.4531C75.8363 93.2164 76.3145 93.0388 76.8306 92.9205C77.3467 92.8021 77.8675 92.7145 78.3931 92.6577C79.056 92.5819 79.5934 92.518 80.0053 92.4659C80.422 92.4138 80.7345 92.3333 80.9428 92.2244C81.1512 92.1108 81.2766 91.9261 81.3192 91.6705V91.6207C81.4187 91.0052 81.3287 90.527 81.0494 90.1861C80.7747 89.8404 80.2965 89.6676 79.6147 89.6676C78.9045 89.6676 78.3079 89.8239 77.8249 90.1364C77.3467 90.4489 76.994 90.7992 76.7667 91.1875L74.8633 90.733C75.2042 90.0701 75.6374 89.535 76.163 89.1278C76.6933 88.7159 77.2733 88.4176 77.9031 88.233C78.5328 88.0436 79.1767 87.9489 79.8349 87.9489C80.2705 87.9489 80.7227 88.0009 81.1914 88.1051C81.6602 88.2045 82.0863 88.3892 82.4698 88.6591C82.8581 88.929 83.1469 89.3149 83.3363 89.8168C83.5257 90.3139 83.5541 90.9602 83.4215 91.7557L82.2212 99H80.1474L80.4031 97.5085H80.3178C80.1379 97.7831 79.887 98.053 79.565 98.3182C79.2478 98.5833 78.8595 98.8035 78.4002 98.9787C77.9409 99.1539 77.4106 99.2415 76.8093 99.2415ZM77.5337 97.5369C78.1256 97.5369 78.6488 97.4209 79.1033 97.1889C79.5626 96.9569 79.9343 96.6539 80.2184 96.2798C80.5025 95.901 80.68 95.4962 80.7511 95.0653L80.9854 93.6591C80.8955 93.7348 80.7369 93.8035 80.5096 93.8651C80.2871 93.9266 80.0361 93.9811 79.7567 94.0284C79.4774 94.0758 79.2028 94.116 78.9329 94.1491C78.6677 94.1823 78.4476 94.2131 78.2724 94.2415C77.8557 94.2936 77.4651 94.3812 77.1005 94.5043C76.7406 94.6274 76.44 94.8049 76.1985 95.0369C75.957 95.2642 75.8055 95.5672 75.744 95.946C75.6587 96.4716 75.7842 96.8693 76.1204 97.1392C76.4613 97.4044 76.9324 97.5369 77.5337 97.5369ZM85.0497 99L86.8679 88.0909H88.9205L88.6293 89.8239H88.7429C89.0365 89.2367 89.465 88.7751 90.0284 88.4389C90.5919 88.098 91.1932 87.9276 91.8324 87.9276C91.9697 87.9276 92.1259 87.9323 92.3011 87.9418C92.4763 87.9465 92.6184 87.9583 92.7273 87.9773L92.3864 90.0085C92.3059 89.9848 92.1591 89.9588 91.946 89.9304C91.733 89.8973 91.5128 89.8807 91.2855 89.8807C90.7884 89.8807 90.3267 89.9872 89.9006 90.2003C89.4744 90.4086 89.117 90.6998 88.8281 91.0739C88.5393 91.4432 88.3523 91.8646 88.267 92.3381L87.1733 99H85.0497ZM96.4435 99.2131C95.5581 99.2131 94.8076 98.9882 94.1921 98.5384C93.5813 98.0838 93.1481 97.4375 92.8924 96.5994C92.6415 95.7566 92.613 94.7457 92.8072 93.5668C93.006 92.3878 93.373 91.3793 93.908 90.5412C94.4431 89.7031 95.0917 89.0616 95.854 88.6165C96.6164 88.1714 97.4379 87.9489 98.3185 87.9489C98.9956 87.9489 99.5212 88.0625 99.8952 88.2898C100.274 88.5123 100.553 88.7727 100.733 89.071C100.913 89.3693 101.048 89.6321 101.138 89.8594H101.259L102.161 84.4545H104.284L101.87 99H99.7958L100.087 97.3026H99.9094C99.7437 97.5346 99.5141 97.7997 99.2205 98.098C98.9317 98.3963 98.5624 98.6567 98.1126 98.8793C97.6628 99.1018 97.1064 99.2131 96.4435 99.2131ZM97.1609 97.402C97.7717 97.402 98.3185 97.241 98.8015 96.919C99.2892 96.5923 99.694 96.1402 100.016 95.5625C100.343 94.9848 100.57 94.3125 100.698 93.5455C100.826 92.7879 100.823 92.125 100.691 91.5568C100.558 90.9886 100.302 90.5459 99.9237 90.2287C99.5449 89.9115 99.0453 89.7528 98.4251 89.7528C97.7859 89.7528 97.2295 89.9186 96.756 90.25C96.2826 90.5814 95.8943 91.0336 95.5913 91.6065C95.293 92.1795 95.0846 92.8258 94.9663 93.5455C94.8432 94.2746 94.8384 94.9304 94.9521 95.5128C95.0657 96.0952 95.3048 96.5568 95.6694 96.8977C96.034 97.2339 96.5311 97.402 97.1609 97.402Z" fill="black"/>
<path d="M5.46165 99H0.68892L3.10369 84.4545H7.89773C9.32765 84.4545 10.509 84.7528 11.4418 85.3494C12.3745 85.9413 13.0279 86.7888 13.402 87.892C13.776 88.9905 13.8352 90.3045 13.5795 91.8338C13.3333 93.33 12.8504 94.6132 12.1307 95.6832C11.4157 96.7486 10.4948 97.5677 9.3679 98.1406C8.241 98.7135 6.93892 99 5.46165 99ZM3.21023 97.0824H5.55398C6.66193 97.0824 7.62074 96.867 8.4304 96.4361C9.24479 96.0052 9.9053 95.3802 10.4119 94.5611C10.9186 93.742 11.2689 92.7453 11.4631 91.571C11.6525 90.4536 11.6359 89.509 11.4134 88.7372C11.1908 87.9607 10.7599 87.3736 10.1207 86.9759C9.48153 86.5734 8.63163 86.3722 7.57102 86.3722H4.97869L3.21023 97.0824ZM18.0984 99.2415C17.4071 99.2415 16.8034 99.1136 16.2873 98.858C15.7712 98.5975 15.39 98.2211 15.1438 97.7287C14.8976 97.2363 14.8337 96.6326 14.9521 95.9176C15.0562 95.3021 15.2598 94.7955 15.5629 94.3977C15.8706 94 16.2447 93.6851 16.685 93.4531C17.1254 93.2164 17.6036 93.0388 18.1197 92.9205C18.6358 92.8021 19.1566 92.7145 19.6822 92.6577C20.3451 92.5819 20.8825 92.518 21.2944 92.4659C21.7111 92.4138 22.0236 92.3333 22.2319 92.2244C22.4402 92.1108 22.5657 91.9261 22.6083 91.6705V91.6207C22.7077 91.0052 22.6178 90.527 22.3384 90.1861C22.0638 89.8404 21.5856 89.6676 20.9038 89.6676C20.1935 89.6676 19.5969 89.8239 19.114 90.1364C18.6358 90.4489 18.283 90.7992 18.0558 91.1875L16.1523 90.733C16.4933 90.0701 16.9265 89.535 17.4521 89.1278C17.9824 88.7159 18.5624 88.4176 19.1921 88.233C19.8219 88.0436 20.4658 87.9489 21.1239 87.9489C21.5595 87.9489 22.0117 88.0009 22.4805 88.1051C22.9492 88.2045 23.3754 88.3892 23.7589 88.6591C24.1471 88.929 24.436 89.3149 24.6254 89.8168C24.8147 90.3139 24.8432 90.9602 24.7106 91.7557L23.5103 99H21.4364L21.6921 97.5085H21.6069C21.427 97.7831 21.176 98.053 20.854 98.3182C20.5368 98.5833 20.1486 98.8035 19.6893 98.9787C19.23 99.1539 18.6997 99.2415 18.0984 99.2415ZM18.8228 97.5369C19.4147 97.5369 19.9379 97.4209 20.3924 97.1889C20.8517 96.9569 21.2234 96.6539 21.5075 96.2798C21.7915 95.901 21.9691 95.4962 22.0401 95.0653L22.2745 93.6591C22.1845 93.7348 22.0259 93.8035 21.7987 93.8651C21.5761 93.9266 21.3252 93.9811 21.0458 94.0284C20.7665 94.0758 20.4918 94.116 20.2219 94.1491C19.9568 94.1823 19.7366 94.2131 19.5614 94.2415C19.1448 94.2936 18.7541 94.3812 18.3896 94.5043C18.0297 94.6274 17.729 94.8049 17.4876 95.0369C17.2461 95.2642 17.0946 95.5672 17.033 95.946C16.9478 96.4716 17.0733 96.8693 17.4094 97.1392C17.7504 97.4044 18.2215 97.5369 18.8228 97.5369ZM35.8913 90.7543L33.9098 91.0952C33.8672 90.8442 33.7796 90.6075 33.647 90.3849C33.5192 90.1624 33.3227 89.9825 33.0575 89.8452C32.7924 89.7031 32.4396 89.6321 31.9993 89.6321C31.3885 89.6321 30.8535 89.7718 30.3942 90.0511C29.9396 90.3305 29.6792 90.6856 29.6129 91.1165C29.5514 91.4669 29.6342 91.7509 29.8615 91.9688C30.0888 92.1818 30.4889 92.3594 31.0618 92.5014L32.7379 92.8991C33.7038 93.1312 34.3951 93.4934 34.8118 93.9858C35.2332 94.4735 35.38 95.108 35.2521 95.8892C35.1432 96.5379 34.8591 97.1132 34.3999 97.6151C33.9453 98.117 33.3629 98.5099 32.6527 98.794C31.9425 99.0781 31.1518 99.2202 30.2805 99.2202C29.04 99.2202 28.0741 98.9574 27.3828 98.4318C26.6915 97.9063 26.3364 97.1629 26.3175 96.2017L28.4197 95.8892C28.4576 96.4242 28.6494 96.8291 28.995 97.1037C29.3454 97.3736 29.8307 97.5085 30.451 97.5085C31.1612 97.5133 31.7554 97.3641 32.2337 97.0611C32.7119 96.758 32.9841 96.3911 33.0504 95.9602C33.1072 95.6241 33.0315 95.3447 32.8232 95.1222C32.6196 94.8996 32.2597 94.7292 31.7436 94.6108L29.9822 94.206C28.9974 93.974 28.3014 93.5999 27.8942 93.0838C27.487 92.5677 27.3497 91.919 27.4822 91.1378C27.5864 90.4986 27.8563 89.9422 28.2919 89.4688C28.7322 88.9905 29.2886 88.6188 29.9609 88.3537C30.6333 88.0838 31.3767 87.9489 32.1911 87.9489C33.3795 87.9489 34.272 88.2045 34.8686 88.7159C35.4652 89.2225 35.8061 89.902 35.8913 90.7543ZM40.2575 92.5227L39.1921 99H37.0685L39.4833 84.4545H41.5785L40.6836 89.8665H40.8185C41.1642 89.2746 41.6282 88.8082 42.2106 88.4673C42.7977 88.1217 43.5174 87.9489 44.3697 87.9489C45.1178 87.9489 45.7451 88.1027 46.2518 88.4105C46.7631 88.7183 47.123 89.1776 47.3313 89.7884C47.5444 90.3944 47.5775 91.152 47.4308 92.0611L46.266 99H44.1424L45.2504 92.3168C45.3829 91.5166 45.2788 90.8963 44.9379 90.456C44.5969 90.0109 44.0643 89.7884 43.3398 89.7884C42.8332 89.7884 42.3645 89.8949 41.9336 90.108C41.5075 90.321 41.1476 90.6335 40.854 91.0455C40.5605 91.4527 40.3616 91.9451 40.2575 92.5227ZM49.2631 99L51.6779 84.4545H53.8015L52.9137 89.8594H53.0415C53.2025 89.6321 53.4227 89.3693 53.7021 89.071C53.9862 88.7727 54.3531 88.5123 54.8029 88.2898C55.2527 88.0625 55.8162 87.9489 56.4933 87.9489C57.3739 87.9489 58.122 88.1714 58.7376 88.6165C59.3531 89.0616 59.7887 89.7031 60.0444 90.5412C60.3001 91.3793 60.3308 92.3878 60.1367 93.5668C59.9426 94.7457 59.578 95.7566 59.043 96.5994C58.5127 97.4375 57.8664 98.0838 57.104 98.5384C56.3417 98.9882 55.5202 99.2131 54.6396 99.2131C53.9767 99.2131 53.4535 99.1018 53.07 98.8793C52.6912 98.6567 52.4071 98.3963 52.2177 98.098C52.033 97.7997 51.8933 97.5346 51.7987 97.3026H51.6211L51.337 99H49.2631ZM52.2532 93.5455C52.1301 94.3125 52.1301 94.9848 52.2532 95.5625C52.381 96.1402 52.6296 96.5923 52.9989 96.919C53.373 97.241 53.863 97.402 54.4691 97.402C55.1036 97.402 55.6623 97.2339 56.1452 96.8977C56.6282 96.5568 57.0259 96.0952 57.3384 95.5128C57.6509 94.9304 57.8687 94.2746 57.9918 93.5455C58.1055 92.8258 58.1031 92.1795 57.9847 91.6065C57.8664 91.0336 57.6201 90.5814 57.2461 90.25C56.8768 89.9186 56.3725 89.7528 55.7333 89.7528C55.1178 89.7528 54.5709 89.9115 54.0927 90.2287C53.6145 90.5459 53.2191 90.9886 52.9066 91.5568C52.5941 92.125 52.3763 92.7879 52.2532 93.5455ZM66.2571 99.2202C65.2202 99.2202 64.3537 98.9834 63.6577 98.5099C62.9616 98.0317 62.4716 97.3641 62.1875 96.5071C61.9081 95.6454 61.8608 94.6439 62.0455 93.5028C62.2254 92.3854 62.5876 91.41 63.1321 90.5767C63.6813 89.7434 64.3679 89.0971 65.1918 88.6378C66.0204 88.1785 66.9413 87.9489 67.9545 87.9489C68.9915 87.9489 69.8556 88.188 70.5469 88.6662C71.2429 89.1444 71.733 89.8144 72.017 90.6761C72.3011 91.5379 72.3509 92.5417 72.1662 93.6875C71.9863 94.7955 71.6193 95.7661 71.0653 96.5994C70.5161 97.428 69.8295 98.072 69.0057 98.5312C68.1818 98.9905 67.2656 99.2202 66.2571 99.2202ZM66.3778 97.4375C67.0597 97.4375 67.6539 97.2576 68.1605 96.8977C68.6719 96.5379 69.0885 96.0597 69.4105 95.4631C69.7325 94.8665 69.9527 94.2131 70.071 93.5028C70.1799 92.8163 70.1776 92.1889 70.0639 91.6207C69.955 91.0478 69.7183 90.5885 69.3537 90.2429C68.9891 89.8973 68.4825 89.7244 67.8338 89.7244C67.152 89.7244 66.553 89.9067 66.0369 90.2713C65.5256 90.6312 65.1089 91.1117 64.7869 91.7131C64.4697 92.3144 64.2543 92.9702 64.1406 93.6804C64.0317 94.3622 64.0317 94.9896 64.1406 95.5625C64.2495 96.1307 64.4863 96.5852 64.8509 96.9261C65.2154 97.267 65.7244 97.4375 66.3778 97.4375ZM76.8093 99.2415C76.118 99.2415 75.5143 99.1136 74.9982 98.858C74.4821 98.5975 74.101 98.2211 73.8548 97.7287C73.6085 97.2363 73.5446 96.6326 73.663 95.9176C73.7672 95.3021 73.9708 94.7955 74.2738 94.3977C74.5816 94 74.9556 93.6851 75.396 93.4531C75.8363 93.2164 76.3145 93.0388 76.8306 92.9205C77.3467 92.8021 77.8675 92.7145 78.3931 92.6577C79.056 92.5819 79.5934 92.518 80.0053 92.4659C80.422 92.4138 80.7345 92.3333 80.9428 92.2244C81.1512 92.1108 81.2766 91.9261 81.3192 91.6705V91.6207C81.4187 91.0052 81.3287 90.527 81.0494 90.1861C80.7747 89.8404 80.2965 89.6676 79.6147 89.6676C78.9045 89.6676 78.3079 89.8239 77.8249 90.1364C77.3467 90.4489 76.994 90.7992 76.7667 91.1875L74.8633 90.733C75.2042 90.0701 75.6374 89.535 76.163 89.1278C76.6933 88.7159 77.2733 88.4176 77.9031 88.233C78.5328 88.0436 79.1767 87.9489 79.8349 87.9489C80.2705 87.9489 80.7227 88.0009 81.1914 88.1051C81.6602 88.2045 82.0863 88.3892 82.4698 88.6591C82.8581 88.929 83.1469 89.3149 83.3363 89.8168C83.5257 90.3139 83.5541 90.9602 83.4215 91.7557L82.2212 99H80.1474L80.4031 97.5085H80.3178C80.1379 97.7831 79.887 98.053 79.565 98.3182C79.2478 98.5833 78.8595 98.8035 78.4002 98.9787C77.9409 99.1539 77.4106 99.2415 76.8093 99.2415ZM77.5337 97.5369C78.1256 97.5369 78.6488 97.4209 79.1033 97.1889C79.5626 96.9569 79.9343 96.6539 80.2184 96.2798C80.5025 95.901 80.68 95.4962 80.7511 95.0653L80.9854 93.6591C80.8955 93.7348 80.7369 93.8035 80.5096 93.8651C80.2871 93.9266 80.0361 93.9811 79.7567 94.0284C79.4774 94.0758 79.2028 94.116 78.9329 94.1491C78.6677 94.1823 78.4476 94.2131 78.2724 94.2415C77.8557 94.2936 77.4651 94.3812 77.1005 94.5043C76.7406 94.6274 76.44 94.8049 76.1985 95.0369C75.957 95.2642 75.8055 95.5672 75.744 95.946C75.6587 96.4716 75.7842 96.8693 76.1204 97.1392C76.4613 97.4044 76.9324 97.5369 77.5337 97.5369ZM85.0497 99L86.8679 88.0909H88.9205L88.6293 89.8239H88.7429C89.0365 89.2367 89.465 88.7751 90.0284 88.4389C90.5919 88.098 91.1932 87.9276 91.8324 87.9276C91.9697 87.9276 92.1259 87.9323 92.3011 87.9418C92.4763 87.9465 92.6184 87.9583 92.7273 87.9773L92.3864 90.0085C92.3059 89.9848 92.1591 89.9588 91.946 89.9304C91.733 89.8973 91.5128 89.8807 91.2855 89.8807C90.7884 89.8807 90.3267 89.9872 89.9006 90.2003C89.4744 90.4086 89.117 90.6998 88.8281 91.0739C88.5393 91.4432 88.3523 91.8646 88.267 92.3381L87.1733 99H85.0497ZM96.4435 99.2131C95.5581 99.2131 94.8076 98.9882 94.1921 98.5384C93.5813 98.0838 93.1481 97.4375 92.8924 96.5994C92.6415 95.7566 92.613 94.7457 92.8072 93.5668C93.006 92.3878 93.373 91.3793 93.908 90.5412C94.4431 89.7031 95.0917 89.0616 95.854 88.6165C96.6164 88.1714 97.4379 87.9489 98.3185 87.9489C98.9956 87.9489 99.5212 88.0625 99.8952 88.2898C100.274 88.5123 100.553 88.7727 100.733 89.071C100.913 89.3693 101.048 89.6321 101.138 89.8594H101.259L102.161 84.4545H104.284L101.87 99H99.7958L100.087 97.3026H99.9094C99.7437 97.5346 99.5141 97.7997 99.2205 98.098C98.9317 98.3963 98.5624 98.6567 98.1126 98.8793C97.6628 99.1018 97.1064 99.2131 96.4435 99.2131ZM97.1609 97.402C97.7717 97.402 98.3185 97.241 98.8015 96.919C99.2892 96.5923 99.694 96.1402 100.016 95.5625C100.343 94.9848 100.57 94.3125 100.698 93.5455C100.826 92.7879 100.823 92.125 100.691 91.5568C100.558 90.9886 100.302 90.5459 99.9237 90.2287C99.5449 89.9115 99.0453 89.7528 98.4251 89.7528C97.7859 89.7528 97.2295 89.9186 96.756 90.25C96.2826 90.5814 95.8943 91.0336 95.5913 91.6065C95.293 92.1795 95.0846 92.8258 94.9663 93.5455C94.8432 94.2746 94.8384 94.9304 94.9521 95.5128C95.0657 96.0952 95.3048 96.5568 95.6694 96.8977C96.034 97.2339 96.5311 97.402 97.1609 97.402Z" fill="black"/>
<path d="M167.833 8V68" stroke="#333333" stroke-width="2" stroke-linecap="round" stroke-linejoin="round"/>
<path d="M156.333 9.5V24.5C156.333 32 167.833 32 167.833 32C167.833 32 179.333 32 179.333 24.5V9.5" stroke="#333333" stroke-width="2" stroke-linecap="round" stroke-linejoin="round"/>
<path d="M213.833 33.5H198.5V20C198.5 8 213.833 8 213.833 8V33.5ZM213.833 33.5V68" stroke="#333333" stroke-width="2" stroke-linecap="round" stroke-linejoin="round"/>
<path d="M125.689 99L128.104 84.4545H130.298L128.196 97.1108H134.787L134.474 99H125.689ZM136.808 99L138.626 88.0909H140.749L138.931 99H136.808ZM140.131 86.3864C139.762 86.3864 139.45 86.2633 139.194 86.017C138.943 85.7661 138.827 85.4678 138.846 85.1222C138.865 84.7718 139.012 84.4735 139.286 84.2273C139.561 83.9763 139.88 83.8509 140.245 83.8509C140.614 83.8509 140.924 83.9763 141.175 84.2273C141.426 84.4735 141.545 84.7718 141.531 85.1222C141.512 85.4678 141.365 85.7661 141.09 86.017C140.82 86.2633 140.501 86.3864 140.131 86.3864ZM148.798 88.0909L148.521 89.7955H142.356L142.633 88.0909H148.798ZM142.505 99L144.537 86.8267C144.641 86.1449 144.88 85.5791 145.254 85.1293C145.628 84.6747 146.08 84.3362 146.61 84.1136C147.141 83.8864 147.695 83.7727 148.272 83.7727C148.699 83.7727 149.056 83.8082 149.345 83.8793C149.638 83.9455 149.851 84.0071 149.984 84.0639L149.21 85.7827C149.115 85.7543 148.994 85.7211 148.848 85.6832C148.701 85.6406 148.516 85.6193 148.294 85.6193C147.778 85.6193 147.387 85.7472 147.122 86.0028C146.861 86.2585 146.686 86.6278 146.596 87.1108L144.629 99H142.505ZM153.414 99.2202C152.344 99.2202 151.459 98.9905 150.758 98.5312C150.062 98.0672 149.574 97.4162 149.295 96.5781C149.016 95.7353 148.971 94.7481 149.16 93.6165C149.345 92.4991 149.717 91.5142 150.275 90.6619C150.834 89.8097 151.53 89.1444 152.363 88.6662C153.201 88.188 154.127 87.9489 155.14 87.9489C155.756 87.9489 156.336 88.0507 156.88 88.2543C157.43 88.4579 157.896 88.7775 158.279 89.2131C158.663 89.6487 158.928 90.2145 159.075 90.9105C159.226 91.6018 159.222 92.4422 159.061 93.4318L158.94 94.1847H150.261L150.51 92.5938H157.1C157.2 92.035 157.174 91.5402 157.022 91.1094C156.871 90.6738 156.61 90.3305 156.241 90.0795C155.877 89.8286 155.417 89.7031 154.863 89.7031C154.295 89.7031 153.765 89.8523 153.272 90.1506C152.78 90.4489 152.368 90.83 152.037 91.294C151.71 91.7533 151.504 92.2268 151.419 92.7145L151.17 94.1705C151.047 94.9659 151.068 95.6051 151.234 96.0881C151.404 96.571 151.703 96.9214 152.129 97.1392C152.555 97.357 153.088 97.4659 153.727 97.4659C154.139 97.4659 154.52 97.4091 154.87 97.2955C155.225 97.1771 155.54 97.0043 155.815 96.777C156.09 96.545 156.319 96.2562 156.504 95.9105L158.45 96.2727C158.19 96.8646 157.815 97.383 157.328 97.8281C156.84 98.2685 156.265 98.6117 155.602 98.858C154.944 99.0994 154.215 99.2202 153.414 99.2202ZM175.676 88.3608C175.681 87.6458 175.449 87.099 174.98 86.7202C174.516 86.3414 173.868 86.152 173.034 86.152C172.438 86.152 171.905 86.2467 171.436 86.4361C170.972 86.6207 170.594 86.8764 170.3 87.2031C170.011 87.5251 169.834 87.892 169.767 88.304C169.706 88.6496 169.737 88.9479 169.86 89.1989C169.988 89.4498 170.17 89.6605 170.407 89.831C170.648 89.9967 170.913 90.1364 171.202 90.25C171.491 90.3589 171.77 90.4489 172.04 90.5199L173.404 90.8892C173.844 91.0028 174.292 91.1567 174.746 91.3509C175.201 91.545 175.61 91.8007 175.975 92.1179C176.339 92.4351 176.612 92.8281 176.792 93.2969C176.971 93.7656 177.007 94.3267 176.898 94.9801C176.756 95.804 176.422 96.5355 175.897 97.1747C175.371 97.8139 174.677 98.3182 173.816 98.6875C172.954 99.0568 171.955 99.2415 170.819 99.2415C169.73 99.2415 168.813 99.0687 168.07 98.723C167.331 98.3774 166.789 97.8873 166.444 97.2528C166.098 96.6136 165.975 95.8561 166.074 94.9801H168.283C168.231 95.5057 168.326 95.9437 168.567 96.294C168.813 96.6397 169.159 96.8977 169.604 97.0682C170.049 97.2339 170.553 97.3168 171.117 97.3168C171.742 97.3168 172.312 97.2197 172.828 97.0256C173.345 96.8267 173.771 96.5521 174.107 96.2017C174.443 95.8466 174.649 95.4323 174.725 94.9588C174.801 94.5279 174.739 94.1752 174.54 93.9006C174.346 93.6259 174.052 93.3987 173.659 93.2188C173.271 93.0388 172.828 92.8802 172.331 92.7429L170.691 92.2741C169.578 91.9569 168.735 91.4905 168.162 90.875C167.589 90.2595 167.383 89.4451 167.544 88.4318C167.686 87.5937 168.037 86.8622 168.596 86.2372C169.154 85.6122 169.85 85.1269 170.684 84.7812C171.517 84.4309 172.421 84.2557 173.397 84.2557C174.382 84.2557 175.22 84.4309 175.911 84.7812C176.602 85.1316 177.114 85.6146 177.445 86.2301C177.776 86.8456 177.892 87.5559 177.793 88.3608H175.676ZM183.356 99.2202C182.286 99.2202 181.4 98.9905 180.7 98.5312C180.004 98.0672 179.516 97.4162 179.237 96.5781C178.957 95.7353 178.912 94.7481 179.102 93.6165C179.286 92.4991 179.658 91.5142 180.217 90.6619C180.775 89.8097 181.471 89.1444 182.305 88.6662C183.143 88.188 184.068 87.9489 185.082 87.9489C185.697 87.9489 186.277 88.0507 186.822 88.2543C187.371 88.4579 187.837 88.7775 188.221 89.2131C188.604 89.6487 188.87 90.2145 189.016 90.9105C189.168 91.6018 189.163 92.4422 189.002 93.4318L188.881 94.1847H180.202L180.451 92.5938H187.042C187.141 92.035 187.115 91.5402 186.964 91.1094C186.812 90.6738 186.552 90.3305 186.183 90.0795C185.818 89.8286 185.359 89.7031 184.805 89.7031C184.237 89.7031 183.706 89.8523 183.214 90.1506C182.721 90.4489 182.309 90.83 181.978 91.294C181.651 91.7533 181.445 92.2268 181.36 92.7145L181.112 94.1705C180.988 94.9659 181.01 95.6051 181.175 96.0881C181.346 96.571 181.644 96.9214 182.07 97.1392C182.496 97.357 183.029 97.4659 183.668 97.4659C184.08 97.4659 184.461 97.4091 184.812 97.2955C185.167 97.1771 185.482 97.0043 185.756 96.777C186.031 96.545 186.261 96.2562 186.445 95.9105L188.391 96.2727C188.131 96.8646 187.757 97.383 187.269 97.8281C186.781 98.2685 186.206 98.6117 185.543 98.858C184.885 99.0994 184.156 99.2202 183.356 99.2202ZM190.46 99L192.278 88.0909H194.331L194.039 89.8239H194.153C194.447 89.2367 194.875 88.7751 195.439 88.4389C196.002 88.098 196.603 87.9276 197.243 87.9276C197.38 87.9276 197.536 87.9323 197.711 87.9418C197.886 87.9465 198.029 87.9583 198.137 87.9773L197.797 90.0085C197.716 89.9848 197.569 89.9588 197.356 89.9304C197.143 89.8973 196.923 89.8807 196.696 89.8807C196.199 89.8807 195.737 89.9872 195.311 90.2003C194.885 90.4086 194.527 90.6998 194.238 91.0739C193.949 91.4432 193.762 91.8646 193.677 92.3381L192.583 99H190.46ZM209.657 88.0909L203.883 99H201.61L199.466 88.0909H201.66L203.024 96.4858H203.137L207.292 88.0909H209.657ZM209.835 99L211.653 88.0909H213.777L211.958 99H209.835ZM213.159 86.3864C212.789 86.3864 212.477 86.2633 212.221 86.017C211.97 85.7661 211.854 85.4678 211.873 85.1222C211.892 84.7718 212.039 84.4735 212.314 84.2273C212.588 83.9763 212.908 83.8509 213.272 83.8509C213.642 83.8509 213.952 83.9763 214.203 84.2273C214.454 84.4735 214.572 84.7718 214.558 85.1222C214.539 85.4678 214.392 85.7661 214.118 86.017C213.848 86.2633 213.528 86.3864 213.159 86.3864ZM219.382 99.2202C218.321 99.2202 217.453 98.9811 216.776 98.5028C216.098 98.0199 215.627 97.3546 215.362 96.5071C215.097 95.6596 215.054 94.6889 215.234 93.5952C215.414 92.4872 215.781 91.5095 216.335 90.6619C216.894 89.8097 217.592 89.1444 218.43 88.6662C219.273 88.188 220.208 87.9489 221.236 87.9489C222.064 87.9489 222.777 88.1027 223.374 88.4105C223.97 88.7135 224.422 89.1397 224.73 89.6889C225.038 90.2382 225.17 90.8797 225.128 91.6136H223.061C223.028 91.1023 222.839 90.6619 222.493 90.2926C222.147 89.9233 221.638 89.7386 220.966 89.7386C220.374 89.7386 219.83 89.8949 219.332 90.2074C218.835 90.5152 218.416 90.9555 218.075 91.5284C217.734 92.0966 217.502 92.7689 217.379 93.5455C217.247 94.3409 217.254 95.0275 217.401 95.6051C217.547 96.1828 217.817 96.6302 218.21 96.9474C218.603 97.2647 219.098 97.4233 219.695 97.4233C220.102 97.4233 220.481 97.3499 220.831 97.2031C221.186 97.0516 221.499 96.8362 221.768 96.5568C222.043 96.2775 222.256 95.9413 222.408 95.5483H224.482C224.278 96.2538 223.937 96.8835 223.459 97.4375C222.985 97.9915 222.403 98.4271 221.712 98.7443C221.02 99.0616 220.244 99.2202 219.382 99.2202ZM230.836 99.2202C229.766 99.2202 228.881 98.9905 228.18 98.5312C227.484 98.0672 226.996 97.4162 226.717 96.5781C226.438 95.7353 226.393 94.7481 226.582 93.6165C226.767 92.4991 227.138 91.5142 227.697 90.6619C228.256 89.8097 228.952 89.1444 229.785 88.6662C230.623 88.188 231.549 87.9489 232.562 87.9489C233.178 87.9489 233.758 88.0507 234.302 88.2543C234.851 88.4579 235.318 88.7775 235.701 89.2131C236.085 89.6487 236.35 90.2145 236.497 90.9105C236.648 91.6018 236.644 92.4422 236.483 93.4318L236.362 94.1847H227.683L227.931 92.5938H234.522C234.622 92.035 234.596 91.5402 234.444 91.1094C234.293 90.6738 234.032 90.3305 233.663 90.0795C233.298 89.8286 232.839 89.7031 232.285 89.7031C231.717 89.7031 231.187 89.8523 230.694 90.1506C230.202 90.4489 229.79 90.83 229.458 91.294C229.132 91.7533 228.926 92.2268 228.841 92.7145L228.592 94.1705C228.469 94.9659 228.49 95.6051 228.656 96.0881C228.826 96.571 229.125 96.9214 229.551 97.1392C229.977 97.357 230.51 97.4659 231.149 97.4659C231.561 97.4659 231.942 97.4091 232.292 97.2955C232.647 97.1771 232.962 97.0043 233.237 96.777C233.511 96.545 233.741 96.2562 233.926 95.9105L235.872 96.2727C235.611 96.8646 235.237 97.383 234.75 97.8281C234.262 98.2685 233.687 98.6117 233.024 98.858C232.366 99.0994 231.636 99.2202 230.836 99.2202ZM247.493 90.7543L245.511 91.0952C245.469 90.8442 245.381 90.6075 245.249 90.3849C245.121 90.1624 244.924 89.9825 244.659 89.8452C244.394 89.7031 244.041 89.6321 243.601 89.6321C242.99 89.6321 242.455 89.7718 241.996 90.0511C241.541 90.3305 241.281 90.6856 241.214 91.1165C241.153 91.4669 241.236 91.7509 241.463 91.9688C241.69 92.1818 242.09 92.3594 242.663 92.5014L244.339 92.8991C245.305 93.1312 245.997 93.4934 246.413 93.9858C246.835 94.4735 246.982 95.108 246.854 95.8892C246.745 96.5379 246.461 97.1132 246.001 97.6151C245.547 98.117 244.964 98.5099 244.254 98.794C243.544 99.0781 242.753 99.2202 241.882 99.2202C240.642 99.2202 239.676 98.9574 238.984 98.4318C238.293 97.9063 237.938 97.1629 237.919 96.2017L240.021 95.8892C240.059 96.4242 240.251 96.8291 240.597 97.1037C240.947 97.3736 241.432 97.5085 242.053 97.5085C242.763 97.5133 243.357 97.3641 243.835 97.0611C244.313 96.758 244.586 96.3911 244.652 95.9602C244.709 95.6241 244.633 95.3447 244.425 95.1222C244.221 94.8996 243.861 94.7292 243.345 94.6108L241.584 94.206C240.599 93.974 239.903 93.5999 239.496 93.0838C239.089 92.5677 238.951 91.919 239.084 91.1378C239.188 90.4986 239.458 89.9422 239.893 89.4688C240.334 88.9905 240.89 88.6188 241.562 88.3537C242.235 88.0838 242.978 87.9489 243.793 87.9489C244.981 87.9489 245.874 88.2045 246.47 88.7159C247.067 89.2225 247.408 89.902 247.493 90.7543Z" fill="black"/>
<path d="M735.667 19.5L774 12L812.333 19.5L774 27L735.667 19.5Z" stroke="#333333" stroke-width="2" stroke-linecap="round" stroke-linejoin="round"/>
<path d="M752.917 24V38.9559C752.917 38.9559 762.5 43.5 774 43.5C785.5 43.5 795.083 38.9559 795.083 38.9559V24" stroke="#333333" stroke-width="2" stroke-linecap="round" stroke-linejoin="round"/>
<path d="M741.417 21V54" stroke="#333333" stroke-width="2" stroke-linecap="round" stroke-linejoin="round"/>
<path d="M747.167 51H735.667V60H747.167V51Z" stroke="#333333" stroke-width="2" stroke-linecap="round" stroke-linejoin="round"/>
<path d="M683.918 98H681.588L689.237 83.4545H691.773L694.592 98H692.263L690.139 86.0966H690.026L683.918 98ZM685.253 92.304H692.81L692.497 94.1506H684.94L685.253 92.304ZM700.913 98.2202C699.853 98.2202 698.984 97.9811 698.307 97.5028C697.63 97.0199 697.159 96.3546 696.893 95.5071C696.628 94.6596 696.586 93.6889 696.766 92.5952C696.946 91.4872 697.313 90.5095 697.866 89.6619C698.425 88.8097 699.124 88.1444 699.962 87.6662C700.804 87.188 701.74 86.9489 702.767 86.9489C703.596 86.9489 704.308 87.1027 704.905 87.4105C705.501 87.7135 705.954 88.1397 706.261 88.6889C706.569 89.2382 706.702 89.8797 706.659 90.6136H704.592C704.559 90.1023 704.37 89.6619 704.024 89.2926C703.679 88.9233 703.17 88.7386 702.497 88.7386C701.905 88.7386 701.361 88.8949 700.864 89.2074C700.366 89.5152 699.947 89.9555 699.607 90.5284C699.266 91.0966 699.034 91.7689 698.911 92.5455C698.778 93.3409 698.785 94.0275 698.932 94.6051C699.079 95.1828 699.348 95.6302 699.741 95.9474C700.134 96.2647 700.629 96.4233 701.226 96.4233C701.633 96.4233 702.012 96.3499 702.362 96.2031C702.717 96.0516 703.03 95.8362 703.3 95.5568C703.574 95.2775 703.787 94.9413 703.939 94.5483H706.013C705.809 95.2538 705.468 95.8835 704.99 96.4375C704.517 96.9915 703.934 97.4271 703.243 97.7443C702.552 98.0616 701.775 98.2202 700.913 98.2202ZM710.841 98.2415C710.149 98.2415 709.546 98.1136 709.029 97.858C708.513 97.5975 708.132 97.2211 707.886 96.7287C707.64 96.2363 707.576 95.6326 707.694 94.9176C707.798 94.3021 708.002 93.7955 708.305 93.3977C708.613 93 708.987 92.6851 709.427 92.4531C709.868 92.2164 710.346 92.0388 710.862 91.9205C711.378 91.8021 711.899 91.7145 712.424 91.6577C713.087 91.5819 713.625 91.518 714.037 91.4659C714.453 91.4138 714.766 91.3333 714.974 91.2244C715.182 91.1108 715.308 90.9261 715.35 90.6705V90.6207C715.45 90.0052 715.36 89.527 715.081 89.1861C714.806 88.8404 714.328 88.6676 713.646 88.6676C712.936 88.6676 712.339 88.8239 711.856 89.1364C711.378 89.4489 711.025 89.7992 710.798 90.1875L708.895 89.733C709.235 89.0701 709.669 88.535 710.194 88.1278C710.725 87.7159 711.305 87.4176 711.934 87.233C712.564 87.0436 713.208 86.9489 713.866 86.9489C714.302 86.9489 714.754 87.0009 715.223 87.1051C715.691 87.2045 716.118 87.3892 716.501 87.6591C716.889 87.929 717.178 88.3149 717.368 88.8168C717.557 89.3139 717.585 89.9602 717.453 90.7557L716.252 98H714.179L714.434 96.5085H714.349C714.169 96.7831 713.918 97.053 713.596 97.3182C713.279 97.5833 712.891 97.8035 712.431 97.9787C711.972 98.1539 711.442 98.2415 710.841 98.2415ZM711.565 96.5369C712.157 96.5369 712.68 96.4209 713.135 96.1889C713.594 95.9569 713.966 95.6539 714.25 95.2798C714.534 94.901 714.711 94.4962 714.782 94.0653L715.017 92.6591C714.927 92.7348 714.768 92.8035 714.541 92.8651C714.318 92.9266 714.067 92.9811 713.788 93.0284C713.509 93.0758 713.234 93.116 712.964 93.1491C712.699 93.1823 712.479 93.2131 712.304 93.2415C711.887 93.2936 711.496 93.3812 711.132 93.5043C710.772 93.6274 710.471 93.8049 710.23 94.0369C709.988 94.2642 709.837 94.5672 709.775 94.946C709.69 95.4716 709.815 95.8693 710.152 96.1392C710.493 96.4044 710.964 96.5369 711.565 96.5369ZM723.151 98.2131C722.265 98.2131 721.515 97.9882 720.899 97.5384C720.288 97.0838 719.855 96.4375 719.599 95.5994C719.348 94.7566 719.32 93.7457 719.514 92.5668C719.713 91.3878 720.08 90.3793 720.615 89.5412C721.15 88.7031 721.799 88.0616 722.561 87.6165C723.323 87.1714 724.145 86.9489 725.026 86.9489C725.703 86.9489 726.228 87.0625 726.602 87.2898C726.981 87.5123 727.26 87.7727 727.44 88.071C727.62 88.3693 727.755 88.6321 727.845 88.8594H727.966L728.868 83.4545H730.991L728.577 98H726.503L726.794 96.3026H726.616C726.451 96.5346 726.221 96.7997 725.928 97.098C725.639 97.3963 725.269 97.6567 724.82 97.8793C724.37 98.1018 723.813 98.2131 723.151 98.2131ZM723.868 96.402C724.479 96.402 725.026 96.241 725.509 95.919C725.996 95.5923 726.401 95.1402 726.723 94.5625C727.05 93.9848 727.277 93.3125 727.405 92.5455C727.533 91.7879 727.53 91.125 727.398 90.5568C727.265 89.9886 727.009 89.5459 726.631 89.2287C726.252 88.9115 725.752 88.7528 725.132 88.7528C724.493 88.7528 723.937 88.9186 723.463 89.25C722.99 89.5814 722.601 90.0336 722.298 90.6065C722 91.1795 721.792 91.8258 721.673 92.5455C721.55 93.2746 721.545 93.9304 721.659 94.5128C721.773 95.0952 722.012 95.5568 722.376 95.8977C722.741 96.2339 723.238 96.402 723.868 96.402ZM736.274 98.2202C735.204 98.2202 734.318 97.9905 733.618 97.5312C732.922 97.0672 732.434 96.4162 732.154 95.5781C731.875 94.7353 731.83 93.7481 732.02 92.6165C732.204 91.4991 732.576 90.5142 733.135 89.6619C733.693 88.8097 734.389 88.1444 735.223 87.6662C736.061 87.188 736.986 86.9489 738 86.9489C738.615 86.9489 739.195 87.0507 739.74 87.2543C740.289 87.4579 740.755 87.7775 741.139 88.2131C741.522 88.6487 741.788 89.2145 741.934 89.9105C742.086 90.6018 742.081 91.4422 741.92 92.4318L741.799 93.1847H733.12L733.369 91.5938H739.96C740.059 91.035 740.033 90.5402 739.882 90.1094C739.73 89.6738 739.47 89.3305 739.1 89.0795C738.736 88.8286 738.277 88.7031 737.723 88.7031C737.154 88.7031 736.624 88.8523 736.132 89.1506C735.639 89.4489 735.227 89.83 734.896 90.294C734.569 90.7533 734.363 91.2268 734.278 91.7145L734.029 93.1705C733.906 93.9659 733.928 94.6051 734.093 95.0881C734.264 95.571 734.562 95.9214 734.988 96.1392C735.414 96.357 735.947 96.4659 736.586 96.4659C736.998 96.4659 737.379 96.4091 737.73 96.2955C738.085 96.1771 738.4 96.0043 738.674 95.777C738.949 95.545 739.179 95.2562 739.363 94.9105L741.309 95.2727C741.049 95.8646 740.675 96.383 740.187 96.8281C739.699 97.2685 739.124 97.6117 738.461 97.858C737.803 98.0994 737.074 98.2202 736.274 98.2202ZM743.385 98L745.203 87.0909H747.241L746.943 88.8665H747.078C747.41 88.2652 747.859 87.7964 748.428 87.4602C749 87.1193 749.649 86.9489 750.374 86.9489C751.093 86.9489 751.673 87.1193 752.114 87.4602C752.559 87.8011 752.85 88.2699 752.987 88.8665H753.101C753.451 88.2794 753.941 87.813 754.571 87.4673C755.201 87.1217 755.909 86.9489 756.695 86.9489C757.675 86.9489 758.428 87.2614 758.953 87.8864C759.483 88.5066 759.644 89.4394 759.436 90.6847L758.214 98H756.084L757.277 90.8835C757.395 90.1402 757.282 89.6051 756.936 89.2784C756.59 88.947 756.138 88.7812 755.58 88.7812C754.888 88.7812 754.315 88.9943 753.861 89.4205C753.406 89.8419 753.127 90.384 753.023 91.0469L751.851 98H749.741L750.956 90.7486C751.051 90.152 750.942 89.6761 750.629 89.321C750.321 88.9612 749.872 88.7812 749.28 88.7812C748.877 88.7812 748.487 88.8878 748.108 89.1009C747.734 89.3139 747.414 89.6075 747.149 89.9815C746.884 90.3556 746.711 90.7865 746.631 91.2741L745.509 98H743.385ZM761.054 98L762.872 87.0909H764.995L763.177 98H761.054ZM764.377 85.3864C764.008 85.3864 763.696 85.2633 763.44 85.017C763.189 84.7661 763.073 84.4678 763.092 84.1222C763.111 83.7718 763.258 83.4735 763.532 83.2273C763.807 82.9763 764.127 82.8509 764.491 82.8509C764.86 82.8509 765.171 82.9763 765.422 83.2273C765.672 83.4735 765.791 83.7718 765.777 84.1222C765.758 84.4678 765.611 84.7661 765.336 85.017C765.066 85.2633 764.747 85.3864 764.377 85.3864ZM770.601 98.2202C769.54 98.2202 768.671 97.9811 767.994 97.5028C767.317 97.0199 766.846 96.3546 766.581 95.5071C766.316 94.6596 766.273 93.6889 766.453 92.5952C766.633 91.4872 767 90.5095 767.554 89.6619C768.113 88.8097 768.811 88.1444 769.649 87.6662C770.492 87.188 771.427 86.9489 772.455 86.9489C773.283 86.9489 773.996 87.1027 774.592 87.4105C775.189 87.7135 775.641 88.1397 775.949 88.6889C776.257 89.2382 776.389 89.8797 776.347 90.6136H774.28C774.247 90.1023 774.057 89.6619 773.712 89.2926C773.366 88.9233 772.857 88.7386 772.185 88.7386C771.593 88.7386 771.048 88.8949 770.551 89.2074C770.054 89.5152 769.635 89.9555 769.294 90.5284C768.953 91.0966 768.721 91.7689 768.598 92.5455C768.465 93.3409 768.473 94.0275 768.619 94.6051C768.766 95.1828 769.036 95.6302 769.429 95.9474C769.822 96.2647 770.317 96.4233 770.913 96.4233C771.321 96.4233 771.699 96.3499 772.05 96.2031C772.405 96.0516 772.717 95.8362 772.987 95.5568C773.262 95.2775 773.475 94.9413 773.626 94.5483H775.7C775.497 95.2538 775.156 95.8835 774.678 96.4375C774.204 96.9915 773.622 97.4271 772.93 97.7443C772.239 98.0616 771.463 98.2202 770.601 98.2202ZM792.54 87.3608C792.545 86.6458 792.312 86.099 791.844 85.7202C791.38 85.3414 790.731 85.152 789.898 85.152C789.301 85.152 788.768 85.2467 788.3 85.4361C787.836 85.6207 787.457 85.8764 787.163 86.2031C786.875 86.5251 786.697 86.892 786.631 87.304C786.569 87.6496 786.6 87.9479 786.723 88.1989C786.851 88.4498 787.033 88.6605 787.27 88.831C787.511 88.9967 787.777 89.1364 788.065 89.25C788.354 89.3589 788.634 89.4489 788.903 89.5199L790.267 89.8892C790.707 90.0028 791.155 90.1567 791.609 90.3509C792.064 90.545 792.473 90.8007 792.838 91.1179C793.203 91.4351 793.475 91.8281 793.655 92.2969C793.835 92.7656 793.87 93.3267 793.761 93.9801C793.619 94.804 793.286 95.5355 792.76 96.1747C792.234 96.8139 791.541 97.3182 790.679 97.6875C789.817 98.0568 788.818 98.2415 787.682 98.2415C786.593 98.2415 785.677 98.0687 784.933 97.723C784.195 97.3774 783.652 96.8873 783.307 96.2528C782.961 95.6136 782.838 94.8561 782.938 93.9801H785.146C785.094 94.5057 785.189 94.9437 785.43 95.294C785.677 95.6397 786.022 95.8977 786.467 96.0682C786.912 96.2339 787.417 96.3168 787.98 96.3168C788.605 96.3168 789.176 96.2197 789.692 96.0256C790.208 95.8267 790.634 95.5521 790.97 95.2017C791.306 94.8466 791.512 94.4323 791.588 93.9588C791.664 93.5279 791.602 93.1752 791.403 92.9006C791.209 92.6259 790.916 92.3987 790.523 92.2188C790.134 92.0388 789.692 91.8802 789.195 91.7429L787.554 91.2741C786.441 90.9569 785.598 90.4905 785.026 89.875C784.453 89.2595 784.247 88.4451 784.408 87.4318C784.55 86.5937 784.9 85.8622 785.459 85.2372C786.018 84.6122 786.714 84.1269 787.547 83.7812C788.38 83.4309 789.285 83.2557 790.26 83.2557C791.245 83.2557 792.083 83.4309 792.774 83.7812C793.465 84.1316 793.977 84.6146 794.308 85.2301C794.64 85.8456 794.756 86.5559 794.656 87.3608H792.54ZM800.219 98.2202C799.149 98.2202 798.264 97.9905 797.563 97.5312C796.867 97.0672 796.379 96.4162 796.1 95.5781C795.82 94.7353 795.775 93.7481 795.965 92.6165C796.15 91.4991 796.521 90.5142 797.08 89.6619C797.639 88.8097 798.335 88.1444 799.168 87.6662C800.006 87.188 800.932 86.9489 801.945 86.9489C802.56 86.9489 803.141 87.0507 803.685 87.2543C804.234 87.4579 804.701 87.7775 805.084 88.2131C805.468 88.6487 805.733 89.2145 805.88 89.9105C806.031 90.6018 806.026 91.4422 805.865 92.4318L805.745 93.1847H797.066L797.314 91.5938H803.905C804.005 91.035 803.979 90.5402 803.827 90.1094C803.676 89.6738 803.415 89.3305 803.046 89.0795C802.681 88.8286 802.222 88.7031 801.668 88.7031C801.1 88.7031 800.569 88.8523 800.077 89.1506C799.585 89.4489 799.173 89.83 798.841 90.294C798.515 90.7533 798.309 91.2268 798.223 91.7145L797.975 93.1705C797.852 93.9659 797.873 94.6051 798.039 95.0881C798.209 95.571 798.507 95.9214 798.934 96.1392C799.36 96.357 799.892 96.4659 800.532 96.4659C800.944 96.4659 801.325 96.4091 801.675 96.2955C802.03 96.1771 802.345 96.0043 802.62 95.777C802.894 95.545 803.124 95.2562 803.309 94.9105L805.255 95.2727C804.994 95.8646 804.62 96.383 804.132 96.8281C803.645 97.2685 803.069 97.6117 802.407 97.858C801.748 98.0994 801.019 98.2202 800.219 98.2202ZM807.323 98L809.141 87.0909H811.194L810.903 88.8239H811.016C811.31 88.2367 811.738 87.7751 812.302 87.4389C812.865 87.098 813.467 86.9276 814.106 86.9276C814.243 86.9276 814.399 86.9323 814.575 86.9418C814.75 86.9465 814.892 86.9583 815.001 86.9773L814.66 89.0085C814.579 88.9848 814.433 88.9588 814.219 88.9304C814.006 88.8973 813.786 88.8807 813.559 88.8807C813.062 88.8807 812.6 88.9872 812.174 89.2003C811.748 89.4086 811.39 89.6998 811.102 90.0739C810.813 90.4432 810.626 90.8646 810.54 91.3381L809.447 98H807.323ZM826.521 87.0909L820.746 98H818.474L816.329 87.0909H818.523L819.887 95.4858H820.001L824.156 87.0909H826.521ZM826.698 98L828.516 87.0909H830.64L828.822 98H826.698ZM830.022 85.3864C829.653 85.3864 829.34 85.2633 829.085 85.017C828.834 84.7661 828.718 84.4678 828.737 84.1222C828.755 83.7718 828.902 83.4735 829.177 83.2273C829.451 82.9763 829.771 82.8509 830.136 82.8509C830.505 82.8509 830.815 82.9763 831.066 83.2273C831.317 83.4735 831.435 83.7718 831.421 84.1222C831.402 84.4678 831.255 84.7661 830.981 85.017C830.711 85.2633 830.391 85.3864 830.022 85.3864ZM836.245 98.2202C835.185 98.2202 834.316 97.9811 833.639 97.5028C832.962 97.0199 832.491 96.3546 832.225 95.5071C831.96 94.6596 831.918 93.6889 832.098 92.5952C832.278 91.4872 832.645 90.5095 833.199 89.6619C833.757 88.8097 834.456 88.1444 835.294 87.6662C836.136 87.188 837.072 86.9489 838.099 86.9489C838.928 86.9489 839.64 87.1027 840.237 87.4105C840.833 87.7135 841.286 88.1397 841.593 88.6889C841.901 89.2382 842.034 89.8797 841.991 90.6136H839.924C839.891 90.1023 839.702 89.6619 839.356 89.2926C839.011 88.9233 838.502 88.7386 837.829 88.7386C837.237 88.7386 836.693 88.8949 836.196 89.2074C835.699 89.5152 835.279 89.9555 834.939 90.5284C834.598 91.0966 834.366 91.7689 834.243 92.5455C834.11 93.3409 834.117 94.0275 834.264 94.6051C834.411 95.1828 834.681 95.6302 835.074 95.9474C835.467 96.2647 835.961 96.4233 836.558 96.4233C836.965 96.4233 837.344 96.3499 837.694 96.2031C838.049 96.0516 838.362 95.8362 838.632 95.5568C838.906 95.2775 839.119 94.9413 839.271 94.5483H841.345C841.141 95.2538 840.8 95.8835 840.322 96.4375C839.849 96.9915 839.266 97.4271 838.575 97.7443C837.884 98.0616 837.107 98.2202 836.245 98.2202ZM847.7 98.2202C846.629 98.2202 845.744 97.9905 845.043 97.5312C844.347 97.0672 843.86 96.4162 843.58 95.5781C843.301 94.7353 843.256 93.7481 843.445 92.6165C843.63 91.4991 844.002 90.5142 844.56 89.6619C845.119 88.8097 845.815 88.1444 846.648 87.6662C847.487 87.188 848.412 86.9489 849.425 86.9489C850.041 86.9489 850.621 87.0507 851.165 87.2543C851.715 87.4579 852.181 87.7775 852.565 88.2131C852.948 88.6487 853.213 89.2145 853.36 89.9105C853.512 90.6018 853.507 91.4422 853.346 92.4318L853.225 93.1847H844.546L844.795 91.5938H851.386C851.485 91.035 851.459 90.5402 851.308 90.1094C851.156 89.6738 850.896 89.3305 850.526 89.0795C850.162 88.8286 849.702 88.7031 849.148 88.7031C848.58 88.7031 848.05 88.8523 847.558 89.1506C847.065 89.4489 846.653 89.83 846.322 90.294C845.995 90.7533 845.789 91.2268 845.704 91.7145L845.455 93.1705C845.332 93.9659 845.353 94.6051 845.519 95.0881C845.69 95.571 845.988 95.9214 846.414 96.1392C846.84 96.357 847.373 96.4659 848.012 96.4659C848.424 96.4659 848.805 96.4091 849.156 96.2955C849.511 96.1771 849.826 96.0043 850.1 95.777C850.375 95.545 850.604 95.2562 850.789 94.9105L852.735 95.2727C852.475 95.8646 852.101 96.383 851.613 96.8281C851.125 97.2685 850.55 97.6117 849.887 97.858C849.229 98.0994 848.5 98.2202 847.7 98.2202ZM864.356 89.7543L862.375 90.0952C862.332 89.8442 862.244 89.6075 862.112 89.3849C861.984 89.1624 861.788 88.9825 861.522 88.8452C861.257 88.7031 860.904 88.6321 860.464 88.6321C859.853 88.6321 859.318 88.7718 858.859 89.0511C858.404 89.3305 858.144 89.6856 858.078 90.1165C858.016 90.4669 858.099 90.7509 858.326 90.9688C858.554 91.1818 858.954 91.3594 859.527 91.5014L861.203 91.8991C862.169 92.1312 862.86 92.4934 863.277 92.9858C863.698 93.4735 863.845 94.108 863.717 94.8892C863.608 95.5379 863.324 96.1132 862.865 96.6151C862.41 97.117 861.828 97.5099 861.118 97.794C860.407 98.0781 859.617 98.2202 858.745 98.2202C857.505 98.2202 856.539 97.9574 855.848 97.4318C855.156 96.9063 854.801 96.1629 854.782 95.2017L856.885 94.8892C856.922 95.4242 857.114 95.8291 857.46 96.1037C857.81 96.3736 858.296 96.5085 858.916 96.5085C859.626 96.5133 860.22 96.3641 860.699 96.0611C861.177 95.758 861.449 95.3911 861.515 94.9602C861.572 94.6241 861.496 94.3447 861.288 94.1222C861.084 93.8996 860.725 93.7292 860.208 93.6108L858.447 93.206C857.462 92.974 856.766 92.5999 856.359 92.0838C855.952 91.5677 855.815 90.919 855.947 90.1378C856.051 89.4986 856.321 88.9422 856.757 88.4688C857.197 87.9905 857.753 87.6188 858.426 87.3537C859.098 87.0838 859.842 86.9489 860.656 86.9489C861.844 86.9489 862.737 87.2045 863.333 87.7159C863.93 88.2225 864.271 88.902 864.356 89.7543Z" fill="black"/>
<path d="M347 33.5V68C340.691 62 321.371 62 312.5 62V29C331.426 29 343.386 32 347 33.5Z" stroke="#333333" stroke-width="2" stroke-linecap="round" stroke-linejoin="round"/>
<path d="M347 33.5V68C353.309 62 372.629 62 381.5 62V29C362.574 29 350.614 32 347 33.5Z" stroke="#333333" stroke-width="2" stroke-linecap="round" stroke-linejoin="round"/>
<path d="M347 32C355.468 32 362.333 26.6274 362.333 20C362.333 13.3726 355.468 8 347 8C338.532 8 331.667 13.3726 331.667 20C331.667 26.6274 338.532 32 347 32Z" stroke="#333333" stroke-width="2"/>
<path d="M269.689 99L272.104 84.4545H274.298L272.196 97.1108H278.787L278.474 99H269.689ZM280.808 99L282.626 88.0909H284.749L282.931 99H280.808ZM284.131 86.3864C283.762 86.3864 283.45 86.2633 283.194 86.017C282.943 85.7661 282.827 85.4678 282.846 85.1222C282.865 84.7718 283.012 84.4735 283.286 84.2273C283.561 83.9763 283.88 83.8509 284.245 83.8509C284.614 83.8509 284.924 83.9763 285.175 84.2273C285.426 84.4735 285.545 84.7718 285.531 85.1222C285.512 85.4678 285.365 85.7661 285.09 86.017C284.82 86.2633 284.501 86.3864 284.131 86.3864ZM285.958 99L288.373 84.4545H290.497L289.609 89.8594H289.737C289.898 89.6321 290.118 89.3693 290.397 89.071C290.681 88.7727 291.048 88.5123 291.498 88.2898C291.948 88.0625 292.511 87.9489 293.189 87.9489C294.069 87.9489 294.817 88.1714 295.433 88.6165C296.048 89.0616 296.484 89.7031 296.74 90.5412C296.995 91.3793 297.026 92.3878 296.832 93.5668C296.638 94.7457 296.273 95.7566 295.738 96.5994C295.208 97.4375 294.562 98.0838 293.799 98.5384C293.037 98.9882 292.216 99.2131 291.335 99.2131C290.672 99.2131 290.149 99.1018 289.765 98.8793C289.386 98.6567 289.102 98.3963 288.913 98.098C288.728 97.7997 288.589 97.5346 288.494 97.3026H288.316L288.032 99H285.958ZM288.949 93.5455C288.825 94.3125 288.825 94.9848 288.949 95.5625C289.076 96.1402 289.325 96.5923 289.694 96.919C290.068 97.241 290.558 97.402 291.164 97.402C291.799 97.402 292.358 97.2339 292.841 96.8977C293.324 96.5568 293.721 96.0952 294.034 95.5128C294.346 94.9304 294.564 94.2746 294.687 93.5455C294.801 92.8258 294.798 92.1795 294.68 91.6065C294.562 91.0336 294.315 90.5814 293.941 90.25C293.572 89.9186 293.068 89.7528 292.429 89.7528C291.813 89.7528 291.266 89.9115 290.788 90.2287C290.31 90.5459 289.914 90.9886 289.602 91.5568C289.289 92.125 289.072 92.7879 288.949 93.5455ZM298.308 99L300.126 88.0909H302.178L301.887 89.8239H302.001C302.294 89.2367 302.723 88.7751 303.286 88.4389C303.85 88.098 304.451 87.9276 305.09 87.9276C305.228 87.9276 305.384 87.9323 305.559 87.9418C305.734 87.9465 305.876 87.9583 305.985 87.9773L305.644 90.0085C305.564 89.9848 305.417 89.9588 305.204 89.9304C304.991 89.8973 304.771 89.8807 304.543 89.8807C304.046 89.8807 303.585 89.9872 303.158 90.2003C302.732 90.4086 302.375 90.6998 302.086 91.0739C301.797 91.4432 301.61 91.8646 301.525 92.3381L300.431 99H298.308ZM309.071 99.2415C308.38 99.2415 307.776 99.1136 307.26 98.858C306.744 98.5975 306.363 98.2211 306.116 97.7287C305.87 97.2363 305.806 96.6326 305.925 95.9176C306.029 95.3021 306.232 94.7955 306.536 94.3977C306.843 94 307.217 93.6851 307.658 93.4531C308.098 93.2164 308.576 93.0388 309.092 92.9205C309.608 92.8021 310.129 92.7145 310.655 92.6577C311.318 92.5819 311.855 92.518 312.267 92.4659C312.684 92.4138 312.996 92.3333 313.205 92.2244C313.413 92.1108 313.538 91.9261 313.581 91.6705V91.6207C313.68 91.0052 313.59 90.527 313.311 90.1861C313.036 89.8404 312.558 89.6676 311.876 89.6676C311.166 89.6676 310.57 89.8239 310.087 90.1364C309.608 90.4489 309.256 90.7992 309.028 91.1875L307.125 90.733C307.466 90.0701 307.899 89.535 308.425 89.1278C308.955 88.7159 309.535 88.4176 310.165 88.233C310.795 88.0436 311.438 87.9489 312.097 87.9489C312.532 87.9489 312.984 88.0009 313.453 88.1051C313.922 88.2045 314.348 88.3892 314.732 88.6591C315.12 88.929 315.409 89.3149 315.598 89.8168C315.787 90.3139 315.816 90.9602 315.683 91.7557L314.483 99H312.409L312.665 97.5085H312.58C312.4 97.7831 312.149 98.053 311.827 98.3182C311.509 98.5833 311.121 98.8035 310.662 98.9787C310.203 99.1539 309.672 99.2415 309.071 99.2415ZM309.795 97.5369C310.387 97.5369 310.911 97.4209 311.365 97.1889C311.824 96.9569 312.196 96.6539 312.48 96.2798C312.764 95.901 312.942 95.4962 313.013 95.0653L313.247 93.6591C313.157 93.7348 312.999 93.8035 312.771 93.8651C312.549 93.9266 312.298 93.9811 312.018 94.0284C311.739 94.0758 311.464 94.116 311.195 94.1491C310.929 94.1823 310.709 94.2131 310.534 94.2415C310.117 94.2936 309.727 94.3812 309.362 94.5043C309.002 94.6274 308.702 94.8049 308.46 95.0369C308.219 95.2642 308.067 95.5672 308.006 95.946C307.92 96.4716 308.046 96.8693 308.382 97.1392C308.723 97.4044 309.194 97.5369 309.795 97.5369ZM317.311 99L319.13 88.0909H321.182L320.891 89.8239H321.005C321.298 89.2367 321.727 88.7751 322.29 88.4389C322.854 88.098 323.455 87.9276 324.094 87.9276C324.231 87.9276 324.388 87.9323 324.563 87.9418C324.738 87.9465 324.88 87.9583 324.989 87.9773L324.648 90.0085C324.568 89.9848 324.421 89.9588 324.208 89.9304C323.995 89.8973 323.775 89.8807 323.547 89.8807C323.05 89.8807 322.588 89.9872 322.162 90.2003C321.736 90.4086 321.379 90.6998 321.09 91.0739C320.801 91.4432 320.614 91.8646 320.529 92.3381L319.435 99H317.311ZM326.033 103.091C325.711 103.091 325.425 103.065 325.174 103.013C324.923 102.965 324.736 102.913 324.613 102.857L325.422 101.116C325.796 101.221 326.13 101.261 326.424 101.237C326.722 101.214 327.001 101.09 327.262 100.868C327.522 100.645 327.787 100.295 328.057 99.8168L328.455 99.0994L326.317 88.0909H328.505L329.854 96.5781H329.968L334.144 88.0909H336.509L329.968 100.442C329.66 101.029 329.31 101.517 328.917 101.905C328.528 102.298 328.093 102.594 327.61 102.793C327.132 102.991 326.606 103.091 326.033 103.091ZM351.844 88.3608C351.849 87.6458 351.617 87.099 351.148 86.7202C350.684 86.3414 350.036 86.152 349.202 86.152C348.606 86.152 348.073 86.2467 347.604 86.4361C347.14 86.6207 346.762 86.8764 346.468 87.2031C346.179 87.5251 346.002 87.892 345.935 88.304C345.874 88.6496 345.905 88.9479 346.028 89.1989C346.156 89.4498 346.338 89.6605 346.575 89.831C346.816 89.9967 347.081 90.1364 347.37 90.25C347.659 90.3589 347.938 90.4489 348.208 90.5199L349.572 90.8892C350.012 91.0028 350.46 91.1567 350.914 91.3509C351.369 91.545 351.778 91.8007 352.143 92.1179C352.507 92.4351 352.78 92.8281 352.96 93.2969C353.139 93.7656 353.175 94.3267 353.066 94.9801C352.924 95.804 352.59 96.5355 352.065 97.1747C351.539 97.8139 350.845 98.3182 349.984 98.6875C349.122 99.0568 348.123 99.2415 346.987 99.2415C345.897 99.2415 344.981 99.0687 344.238 98.723C343.499 98.3774 342.957 97.8873 342.612 97.2528C342.266 96.6136 342.143 95.8561 342.242 94.9801H344.451C344.399 95.5057 344.494 95.9437 344.735 96.294C344.981 96.6397 345.327 96.8977 345.772 97.0682C346.217 97.2339 346.721 97.3168 347.285 97.3168C347.91 97.3168 348.48 97.2197 348.996 97.0256C349.513 96.8267 349.939 96.5521 350.275 96.2017C350.611 95.8466 350.817 95.4323 350.893 94.9588C350.969 94.5279 350.907 94.1752 350.708 93.9006C350.514 93.6259 350.22 93.3987 349.827 93.2188C349.439 93.0388 348.996 92.8802 348.499 92.7429L346.859 92.2741C345.746 91.9569 344.903 91.4905 344.33 90.875C343.757 90.2595 343.551 89.4451 343.712 88.4318C343.854 87.5937 344.205 86.8622 344.763 86.2372C345.322 85.6122 346.018 85.1269 346.852 84.7812C347.685 84.4309 348.589 84.2557 349.565 84.2557C350.549 84.2557 351.388 84.4309 352.079 84.7812C352.77 85.1316 353.281 85.6146 353.613 86.2301C353.944 86.8456 354.06 87.5559 353.961 88.3608H351.844ZM359.524 99.2202C358.454 99.2202 357.568 98.9905 356.868 98.5312C356.172 98.0672 355.684 97.4162 355.404 96.5781C355.125 95.7353 355.08 94.7481 355.27 93.6165C355.454 92.4991 355.826 91.5142 356.385 90.6619C356.943 89.8097 357.639 89.1444 358.473 88.6662C359.311 88.188 360.236 87.9489 361.25 87.9489C361.865 87.9489 362.445 88.0507 362.99 88.2543C363.539 88.4579 364.005 88.7775 364.389 89.2131C364.772 89.6487 365.038 90.2145 365.184 90.9105C365.336 91.6018 365.331 92.4422 365.17 93.4318L365.049 94.1847H356.37L356.619 92.5938H363.21C363.309 92.035 363.283 91.5402 363.132 91.1094C362.98 90.6738 362.72 90.3305 362.35 90.0795C361.986 89.8286 361.527 89.7031 360.973 89.7031C360.404 89.7031 359.874 89.8523 359.382 90.1506C358.889 90.4489 358.477 90.83 358.146 91.294C357.819 91.7533 357.613 92.2268 357.528 92.7145L357.279 94.1705C357.156 94.9659 357.178 95.6051 357.343 96.0881C357.514 96.571 357.812 96.9214 358.238 97.1392C358.664 97.357 359.197 97.4659 359.836 97.4659C360.248 97.4659 360.629 97.4091 360.98 97.2955C361.335 97.1771 361.65 97.0043 361.924 96.777C362.199 96.545 362.429 96.2562 362.613 95.9105L364.559 96.2727C364.299 96.8646 363.925 97.383 363.437 97.8281C362.949 98.2685 362.374 98.6117 361.711 98.858C361.053 99.0994 360.324 99.2202 359.524 99.2202ZM366.628 99L368.446 88.0909H370.499L370.207 89.8239H370.321C370.615 89.2367 371.043 88.7751 371.607 88.4389C372.17 88.098 372.771 87.9276 373.411 87.9276C373.548 87.9276 373.704 87.9323 373.879 87.9418C374.054 87.9465 374.196 87.9583 374.305 87.9773L373.964 90.0085C373.884 89.9848 373.737 89.9588 373.524 89.9304C373.311 89.8973 373.091 89.8807 372.864 89.8807C372.366 89.8807 371.905 89.9872 371.479 90.2003C371.053 90.4086 370.695 90.6998 370.406 91.0739C370.117 91.4432 369.93 91.8646 369.845 92.3381L368.751 99H366.628ZM385.825 88.0909L380.051 99H377.778L375.634 88.0909H377.828L379.192 96.4858H379.305L383.46 88.0909H385.825ZM386.003 99L387.821 88.0909H389.945L388.126 99H386.003ZM389.327 86.3864C388.957 86.3864 388.645 86.2633 388.389 86.017C388.138 85.7661 388.022 85.4678 388.041 85.1222C388.06 84.7718 388.207 84.4735 388.482 84.2273C388.756 83.9763 389.076 83.8509 389.44 83.8509C389.81 83.8509 390.12 83.9763 390.371 84.2273C390.622 84.4735 390.74 84.7718 390.726 85.1222C390.707 85.4678 390.56 85.7661 390.286 86.017C390.016 86.2633 389.696 86.3864 389.327 86.3864ZM395.55 99.2202C394.489 99.2202 393.621 98.9811 392.944 98.5028C392.266 98.0199 391.795 97.3546 391.53 96.5071C391.265 95.6596 391.222 94.6889 391.402 93.5952C391.582 92.4872 391.949 91.5095 392.503 90.6619C393.062 89.8097 393.76 89.1444 394.598 88.6662C395.441 88.188 396.376 87.9489 397.404 87.9489C398.232 87.9489 398.945 88.1027 399.542 88.4105C400.138 88.7135 400.59 89.1397 400.898 89.6889C401.206 90.2382 401.338 90.8797 401.296 91.6136H399.229C399.196 91.1023 399.007 90.6619 398.661 90.2926C398.315 89.9233 397.806 89.7386 397.134 89.7386C396.542 89.7386 395.998 89.8949 395.5 90.2074C395.003 90.5152 394.584 90.9555 394.243 91.5284C393.902 92.0966 393.67 92.7689 393.547 93.5455C393.415 94.3409 393.422 95.0275 393.569 95.6051C393.715 96.1828 393.985 96.6302 394.378 96.9474C394.771 97.2647 395.266 97.4233 395.863 97.4233C396.27 97.4233 396.649 97.3499 396.999 97.2031C397.354 97.0516 397.667 96.8362 397.936 96.5568C398.211 96.2775 398.424 95.9413 398.576 95.5483H400.65C400.446 96.2538 400.105 96.8835 399.627 97.4375C399.153 97.9915 398.571 98.4271 397.88 98.7443C397.188 99.0616 396.412 99.2202 395.55 99.2202ZM407.004 99.2202C405.934 99.2202 405.049 98.9905 404.348 98.5312C403.652 98.0672 403.164 97.4162 402.885 96.5781C402.606 95.7353 402.561 94.7481 402.75 93.6165C402.935 92.4991 403.306 91.5142 403.865 90.6619C404.424 89.8097 405.12 89.1444 405.953 88.6662C406.791 88.188 407.717 87.9489 408.73 87.9489C409.346 87.9489 409.926 88.0507 410.47 88.2543C411.019 88.4579 411.486 88.7775 411.869 89.2131C412.253 89.6487 412.518 90.2145 412.665 90.9105C412.816 91.6018 412.812 92.4422 412.651 93.4318L412.53 94.1847H403.851L404.099 92.5938H410.69C410.79 92.035 410.764 91.5402 410.612 91.1094C410.461 90.6738 410.2 90.3305 409.831 90.0795C409.466 89.8286 409.007 89.7031 408.453 89.7031C407.885 89.7031 407.355 89.8523 406.862 90.1506C406.37 90.4489 405.958 90.83 405.626 91.294C405.3 91.7533 405.094 92.2268 405.009 92.7145L404.76 94.1705C404.637 94.9659 404.658 95.6051 404.824 96.0881C404.994 96.571 405.293 96.9214 405.719 97.1392C406.145 97.357 406.678 97.4659 407.317 97.4659C407.729 97.4659 408.11 97.4091 408.46 97.2955C408.815 97.1771 409.13 97.0043 409.405 96.777C409.679 96.545 409.909 96.2562 410.094 95.9105L412.04 96.2727C411.779 96.8646 411.405 97.383 410.918 97.8281C410.43 98.2685 409.855 98.6117 409.192 98.858C408.534 99.0994 407.804 99.2202 407.004 99.2202ZM423.661 90.7543L421.679 91.0952C421.637 90.8442 421.549 90.6075 421.417 90.3849C421.289 90.1624 421.092 89.9825 420.827 89.8452C420.562 89.7031 420.209 89.6321 419.769 89.6321C419.158 89.6321 418.623 89.7718 418.164 90.0511C417.709 90.3305 417.449 90.6856 417.382 91.1165C417.321 91.4669 417.404 91.7509 417.631 91.9688C417.858 92.1818 418.258 92.3594 418.831 92.5014L420.507 92.8991C421.473 93.1312 422.165 93.4934 422.581 93.9858C423.003 94.4735 423.15 95.108 423.022 95.8892C422.913 96.5379 422.629 97.1132 422.169 97.6151C421.715 98.117 421.132 98.5099 420.422 98.794C419.712 99.0781 418.921 99.2202 418.05 99.2202C416.81 99.2202 415.844 98.9574 415.152 98.4318C414.461 97.9063 414.106 97.1629 414.087 96.2017L416.189 95.8892C416.227 96.4242 416.419 96.8291 416.765 97.1037C417.115 97.3736 417.6 97.5085 418.221 97.5085C418.931 97.5133 419.525 97.3641 420.003 97.0611C420.481 96.758 420.754 96.3911 420.82 95.9602C420.877 95.6241 420.801 95.3447 420.593 95.1222C420.389 94.8996 420.029 94.7292 419.513 94.6108L417.752 94.206C416.767 93.974 416.071 93.5999 415.664 93.0838C415.257 92.5677 415.119 91.919 415.252 91.1378C415.356 90.4986 415.626 89.9422 416.061 89.4688C416.502 88.9905 417.058 88.6188 417.73 88.3537C418.403 88.0838 419.146 87.9489 419.961 87.9489C421.149 87.9489 422.042 88.2045 422.638 88.7159C423.235 89.2225 423.576 89.902 423.661 90.7543Z" fill="black"/>
<path d="M591.333 25.3333C591.333 35.4125 581.036 43.5833 568.333 43.5833C564.449 43.5833 560.789 42.8191 557.58 41.47L524.25 67.9167L514.667 60.3125L547.997 33.8658C546.296 31.3195 545.333 28.4156 545.333 25.3333C545.333 15.2541 555.631 7.08333 568.333 7.08333C572.218 7.08333 575.878 7.84747 579.087 9.19666L564.5 20.7708L574.083 28.375L588.67 16.8008C590.37 19.3472 591.333 22.2511 591.333 25.3333Z" stroke="#333333" stroke-width="2" stroke-linecap="round" stroke-linejoin="round"/>
<path d="M445.689 99L448.104 84.4545H450.298L448.196 97.1108H454.787L454.474 99H445.689ZM461.452 99.2202C460.415 99.2202 459.549 98.9834 458.853 98.5099C458.157 98.0317 457.667 97.3641 457.383 96.5071C457.103 95.6454 457.056 94.6439 457.241 93.5028C457.421 92.3854 457.783 91.41 458.327 90.5767C458.877 89.7434 459.563 89.0971 460.387 88.6378C461.216 88.1785 462.137 87.9489 463.15 87.9489C464.187 87.9489 465.051 88.188 465.742 88.6662C466.438 89.1444 466.928 89.8144 467.212 90.6761C467.496 91.5379 467.546 92.5417 467.362 93.6875C467.182 94.7955 466.815 95.7661 466.261 96.5994C465.711 97.428 465.025 98.072 464.201 98.5312C463.377 98.9905 462.461 99.2202 461.452 99.2202ZM461.573 97.4375C462.255 97.4375 462.849 97.2576 463.356 96.8977C463.867 96.5379 464.284 96.0597 464.606 95.4631C464.928 94.8665 465.148 94.2131 465.266 93.5028C465.375 92.8163 465.373 92.1889 465.259 91.6207C465.15 91.0478 464.914 90.5885 464.549 90.2429C464.184 89.8973 463.678 89.7244 463.029 89.7244C462.347 89.7244 461.748 89.9067 461.232 90.2713C460.721 90.6312 460.304 91.1117 459.982 91.7131C459.665 92.3144 459.45 92.9702 459.336 93.6804C459.227 94.3622 459.227 94.9896 459.336 95.5625C459.445 96.1307 459.682 96.5852 460.046 96.9261C460.411 97.267 460.92 97.4375 461.573 97.4375ZM472.75 103.318C471.879 103.318 471.15 103.205 470.563 102.977C469.98 102.75 469.521 102.449 469.185 102.075C468.854 101.701 468.624 101.292 468.496 100.847L470.456 100.094C470.551 100.302 470.684 100.522 470.854 100.754C471.025 100.991 471.278 101.192 471.614 101.358C471.955 101.524 472.421 101.607 473.013 101.607C473.818 101.607 474.521 101.41 475.123 101.017C475.724 100.629 476.096 100.009 476.238 99.1562L476.571 97.0114H476.436C476.275 97.2434 476.053 97.5014 475.769 97.7855C475.485 98.0696 475.118 98.3158 474.668 98.5241C474.218 98.7325 473.659 98.8366 472.992 98.8366C472.13 98.8366 471.387 98.6354 470.762 98.233C470.141 97.8258 469.696 97.2268 469.426 96.4361C469.157 95.6406 469.119 94.6629 469.313 93.5028C469.502 92.3428 469.862 91.3485 470.392 90.5199C470.927 89.6913 471.576 89.0568 472.338 88.6165C473.105 88.1714 473.927 87.9489 474.803 87.9489C475.48 87.9489 476.008 88.0625 476.387 88.2898C476.77 88.5123 477.054 88.7727 477.239 89.071C477.424 89.3693 477.559 89.6321 477.644 89.8594H477.8L478.091 88.0909H480.172L478.326 99.2415C478.174 100.179 477.831 100.948 477.296 101.55C476.766 102.151 476.105 102.596 475.314 102.885C474.528 103.174 473.674 103.318 472.75 103.318ZM473.716 97.0753C474.322 97.0753 474.862 96.9332 475.336 96.6491C475.814 96.3603 476.212 95.9484 476.529 95.4134C476.846 94.8736 477.066 94.2273 477.189 93.4744C477.312 92.7405 477.305 92.0942 477.168 91.5355C477.035 90.9768 476.777 90.5412 476.394 90.2287C476.015 89.9115 475.52 89.7528 474.909 89.7528C474.266 89.7528 473.707 89.9186 473.233 90.25C472.76 90.5767 472.374 91.0218 472.076 91.5852C471.782 92.1487 471.576 92.7784 471.458 93.4744C471.344 94.1894 471.346 94.8168 471.465 95.3565C471.588 95.8963 471.834 96.3177 472.203 96.6207C472.573 96.9238 473.077 97.0753 473.716 97.0753ZM481.202 99L483.02 88.0909H485.144L483.326 99H481.202ZM484.526 86.3864C484.157 86.3864 483.844 86.2633 483.588 86.017C483.337 85.7661 483.221 85.4678 483.24 85.1222C483.259 84.7718 483.406 84.4735 483.681 84.2273C483.955 83.9763 484.275 83.8509 484.64 83.8509C485.009 83.8509 485.319 83.9763 485.57 84.2273C485.821 84.4735 485.939 84.7718 485.925 85.1222C485.906 85.4678 485.759 85.7661 485.485 86.017C485.215 86.2633 484.895 86.3864 484.526 86.3864ZM495.735 90.7543L493.754 91.0952C493.711 90.8442 493.623 90.6075 493.491 90.3849C493.363 90.1624 493.166 89.9825 492.901 89.8452C492.636 89.7031 492.283 89.6321 491.843 89.6321C491.232 89.6321 490.697 89.7718 490.238 90.0511C489.783 90.3305 489.523 90.6856 489.457 91.1165C489.395 91.4669 489.478 91.7509 489.705 91.9688C489.933 92.1818 490.333 92.3594 490.906 92.5014L492.582 92.8991C493.548 93.1312 494.239 93.4934 494.656 93.9858C495.077 94.4735 495.224 95.108 495.096 95.8892C494.987 96.5379 494.703 97.1132 494.244 97.6151C493.789 98.117 493.207 98.5099 492.496 98.794C491.786 99.0781 490.996 99.2202 490.124 99.2202C488.884 99.2202 487.918 98.9574 487.227 98.4318C486.535 97.9063 486.18 97.1629 486.161 96.2017L488.263 95.8892C488.301 96.4242 488.493 96.8291 488.839 97.1037C489.189 97.3736 489.674 97.5085 490.295 97.5085C491.005 97.5133 491.599 97.3641 492.077 97.0611C492.556 96.758 492.828 96.3911 492.894 95.9602C492.951 95.6241 492.875 95.3447 492.667 95.1222C492.463 94.8996 492.103 94.7292 491.587 94.6108L489.826 94.206C488.841 93.974 488.145 93.5999 487.738 93.0838C487.331 92.5677 487.193 91.919 487.326 91.1378C487.43 90.4986 487.7 89.9422 488.136 89.4688C488.576 88.9905 489.132 88.6188 489.805 88.3537C490.477 88.0838 491.22 87.9489 492.035 87.9489C493.223 87.9489 494.116 88.2045 494.712 88.7159C495.309 89.2225 495.65 89.902 495.735 90.7543ZM503.816 88.0909L503.539 89.7955H497.58L497.857 88.0909H503.816ZM499.881 85.4773H502.005L500.286 95.7969C500.22 96.2088 500.231 96.5189 500.321 96.7273C500.411 96.9309 500.549 97.0705 500.733 97.1463C500.923 97.2173 501.133 97.2528 501.365 97.2528C501.536 97.2528 501.685 97.241 501.813 97.2173C501.941 97.1937 502.042 97.1747 502.118 97.1605L502.232 98.9148C502.09 98.9621 501.898 99.0095 501.657 99.0568C501.42 99.1089 501.131 99.1373 500.79 99.142C500.231 99.1515 499.727 99.0521 499.277 98.8438C498.828 98.6307 498.491 98.3087 498.269 97.8778C498.046 97.4422 497.992 96.8954 498.105 96.2372L499.881 85.4773ZM504.347 99L506.165 88.0909H508.288L506.47 99H504.347ZM507.67 86.3864C507.301 86.3864 506.989 86.2633 506.733 86.017C506.482 85.7661 506.366 85.4678 506.385 85.1222C506.404 84.7718 506.551 84.4735 506.825 84.2273C507.1 83.9763 507.42 83.8509 507.784 83.8509C508.153 83.8509 508.464 83.9763 508.714 84.2273C508.965 84.4735 509.084 84.7718 509.07 85.1222C509.051 85.4678 508.904 85.7661 508.629 86.017C508.359 86.2633 508.04 86.3864 507.67 86.3864ZM513.894 99.2202C512.833 99.2202 511.964 98.9811 511.287 98.5028C510.61 98.0199 510.139 97.3546 509.874 96.5071C509.609 95.6596 509.566 94.6889 509.746 93.5952C509.926 92.4872 510.293 91.5095 510.847 90.6619C511.406 89.8097 512.104 89.1444 512.942 88.6662C513.785 88.188 514.72 87.9489 515.748 87.9489C516.576 87.9489 517.289 88.1027 517.885 88.4105C518.482 88.7135 518.934 89.1397 519.242 89.6889C519.55 90.2382 519.682 90.8797 519.64 91.6136H517.573C517.54 91.1023 517.35 90.6619 517.005 90.2926C516.659 89.9233 516.15 89.7386 515.478 89.7386C514.886 89.7386 514.341 89.8949 513.844 90.2074C513.347 90.5152 512.928 90.9555 512.587 91.5284C512.246 92.0966 512.014 92.7689 511.891 93.5455C511.758 94.3409 511.766 95.0275 511.912 95.6051C512.059 96.1828 512.329 96.6302 512.722 96.9474C513.115 97.2647 513.61 97.4233 514.206 97.4233C514.614 97.4233 514.992 97.3499 515.343 97.2031C515.698 97.0516 516.01 96.8362 516.28 96.5568C516.555 96.2775 516.768 95.9413 516.919 95.5483H518.993C518.79 96.2538 518.449 96.8835 517.971 97.4375C517.497 97.9915 516.915 98.4271 516.223 98.7443C515.532 99.0616 514.756 99.2202 513.894 99.2202ZM530.227 90.7543L528.246 91.0952C528.203 90.8442 528.116 90.6075 527.983 90.3849C527.855 90.1624 527.659 89.9825 527.393 89.8452C527.128 89.7031 526.776 89.6321 526.335 89.6321C525.724 89.6321 525.189 89.7718 524.73 90.0511C524.276 90.3305 524.015 90.6856 523.949 91.1165C523.887 91.4669 523.97 91.7509 524.197 91.9688C524.425 92.1818 524.825 92.3594 525.398 92.5014L527.074 92.8991C528.04 93.1312 528.731 93.4934 529.148 93.9858C529.569 94.4735 529.716 95.108 529.588 95.8892C529.479 96.5379 529.195 97.1132 528.736 97.6151C528.281 98.117 527.699 98.5099 526.989 98.794C526.278 99.0781 525.488 99.2202 524.616 99.2202C523.376 99.2202 522.41 98.9574 521.719 98.4318C521.027 97.9063 520.672 97.1629 520.653 96.2017L522.756 95.8892C522.794 96.4242 522.985 96.8291 523.331 97.1037C523.681 97.3736 524.167 97.5085 524.787 97.5085C525.497 97.5133 526.091 97.3641 526.57 97.0611C527.048 96.758 527.32 96.3911 527.386 95.9602C527.443 95.6241 527.367 95.3447 527.159 95.1222C526.955 94.8996 526.596 94.7292 526.08 94.6108L524.318 94.206C523.333 93.974 522.637 93.5999 522.23 93.0838C521.823 92.5677 521.686 91.919 521.818 91.1378C521.922 90.4986 522.192 89.9422 522.628 89.4688C523.068 88.9905 523.625 88.6188 524.297 88.3537C524.969 88.0838 525.713 87.9489 526.527 87.9489C527.715 87.9489 528.608 88.2045 529.205 88.7159C529.801 89.2225 530.142 89.902 530.227 90.7543ZM539.276 84.4545H541.939L544.709 95.7614H544.879L551.371 84.4545H554.034L551.619 99H549.531L551.286 88.4744H551.151L545.114 98.9787H543.374L540.845 88.4673H540.71L538.949 99H536.861L539.276 84.4545ZM557.786 99.2415C557.095 99.2415 556.491 99.1136 555.975 98.858C555.459 98.5975 555.078 98.2211 554.831 97.7287C554.585 97.2363 554.521 96.6326 554.64 95.9176C554.744 95.3021 554.947 94.7955 555.25 94.3977C555.558 94 555.932 93.6851 556.373 93.4531C556.813 93.2164 557.291 93.0388 557.807 92.9205C558.323 92.8021 558.844 92.7145 559.37 92.6577C560.033 92.5819 560.57 92.518 560.982 92.4659C561.399 92.4138 561.711 92.3333 561.919 92.2244C562.128 92.1108 562.253 91.9261 562.296 91.6705V91.6207C562.395 91.0052 562.305 90.527 562.026 90.1861C561.751 89.8404 561.273 89.6676 560.591 89.6676C559.881 89.6676 559.284 89.8239 558.801 90.1364C558.323 90.4489 557.971 90.7992 557.743 91.1875L555.84 90.733C556.181 90.0701 556.614 89.535 557.14 89.1278C557.67 88.7159 558.25 88.4176 558.88 88.233C559.509 88.0436 560.153 87.9489 560.811 87.9489C561.247 87.9489 561.699 88.0009 562.168 88.1051C562.637 88.2045 563.063 88.3892 563.446 88.6591C563.835 88.929 564.123 89.3149 564.313 89.8168C564.502 90.3139 564.531 90.9602 564.398 91.7557L563.198 99H561.124L561.38 97.5085H561.294C561.114 97.7831 560.864 98.053 560.542 98.3182C560.224 98.5833 559.836 98.8035 559.377 98.9787C558.917 99.1539 558.387 99.2415 557.786 99.2415ZM558.51 97.5369C559.102 97.5369 559.625 97.4209 560.08 97.1889C560.539 96.9569 560.911 96.6539 561.195 96.2798C561.479 95.901 561.657 95.4962 561.728 95.0653L561.962 93.6591C561.872 93.7348 561.713 93.8035 561.486 93.8651C561.264 93.9266 561.013 93.9811 560.733 94.0284C560.454 94.0758 560.179 94.116 559.909 94.1491C559.644 94.1823 559.424 94.2131 559.249 94.2415C558.832 94.2936 558.442 94.3812 558.077 94.5043C557.717 94.6274 557.417 94.8049 557.175 95.0369C556.934 95.2642 556.782 95.5672 556.721 95.946C556.635 96.4716 556.761 96.8693 557.097 97.1392C557.438 97.4044 557.909 97.5369 558.51 97.5369ZM569.222 92.5227L568.157 99H566.033L567.852 88.0909H569.89L569.592 89.8665H569.727C570.072 89.2841 570.543 88.8201 571.14 88.4744C571.741 88.1241 572.451 87.9489 573.271 87.9489C574.009 87.9489 574.629 88.1051 575.131 88.4176C575.638 88.7254 575.996 89.1847 576.204 89.7955C576.417 90.4062 576.45 91.1615 576.303 92.0611L575.138 99H573.015L574.13 92.3168C574.258 91.526 574.154 90.9081 573.817 90.4631C573.486 90.0133 572.958 89.7884 572.234 89.7884C571.741 89.7884 571.284 89.8949 570.863 90.108C570.446 90.321 570.094 90.6335 569.805 91.0455C569.521 91.4527 569.326 91.9451 569.222 92.5227ZM581.126 99.2415C580.434 99.2415 579.831 99.1136 579.315 98.858C578.799 98.5975 578.417 98.2211 578.171 97.7287C577.925 97.2363 577.861 96.6326 577.979 95.9176C578.084 95.3021 578.287 94.7955 578.59 94.3977C578.898 94 579.272 93.6851 579.712 93.4531C580.153 93.2164 580.631 93.0388 581.147 92.9205C581.663 92.8021 582.184 92.7145 582.71 92.6577C583.372 92.5819 583.91 92.518 584.322 92.4659C584.738 92.4138 585.051 92.3333 585.259 92.2244C585.468 92.1108 585.593 91.9261 585.636 91.6705V91.6207C585.735 91.0052 585.645 90.527 585.366 90.1861C585.091 89.8404 584.613 89.6676 583.931 89.6676C583.221 89.6676 582.624 89.8239 582.141 90.1364C581.663 90.4489 581.31 90.7992 581.083 91.1875L579.18 90.733C579.521 90.0701 579.954 89.535 580.479 89.1278C581.01 88.7159 581.59 88.4176 582.219 88.233C582.849 88.0436 583.493 87.9489 584.151 87.9489C584.587 87.9489 585.039 88.0009 585.508 88.1051C585.977 88.2045 586.403 88.3892 586.786 88.6591C587.174 88.929 587.463 89.3149 587.653 89.8168C587.842 90.3139 587.871 90.9602 587.738 91.7557L586.538 99H584.464L584.719 97.5085H584.634C584.454 97.7831 584.203 98.053 583.881 98.3182C583.564 98.5833 583.176 98.8035 582.717 98.9787C582.257 99.1539 581.727 99.2415 581.126 99.2415ZM581.85 97.5369C582.442 97.5369 582.965 97.4209 583.42 97.1889C583.879 96.9569 584.251 96.6539 584.535 96.2798C584.819 95.901 584.996 95.4962 585.067 95.0653L585.302 93.6591C585.212 93.7348 585.053 93.8035 584.826 93.8651C584.603 93.9266 584.353 93.9811 584.073 94.0284C583.794 94.0758 583.519 94.116 583.249 94.1491C582.984 94.1823 582.764 94.2131 582.589 94.2415C582.172 94.2936 581.781 94.3812 581.417 94.5043C581.057 94.6274 580.756 94.8049 580.515 95.0369C580.273 95.2642 580.122 95.5672 580.06 95.946C579.975 96.4716 580.101 96.8693 580.437 97.1392C580.778 97.4044 581.249 97.5369 581.85 97.5369ZM593.258 103.318C592.387 103.318 591.658 103.205 591.071 102.977C590.488 102.75 590.029 102.449 589.693 102.075C589.361 101.701 589.132 101.292 589.004 100.847L590.964 100.094C591.059 100.302 591.191 100.522 591.362 100.754C591.532 100.991 591.786 101.192 592.122 101.358C592.463 101.524 592.929 101.607 593.521 101.607C594.326 101.607 595.029 101.41 595.63 101.017C596.232 100.629 596.603 100.009 596.745 99.1562L597.079 97.0114H596.944C596.783 97.2434 596.561 97.5014 596.277 97.7855C595.993 98.0696 595.626 98.3158 595.176 98.5241C594.726 98.7325 594.167 98.8366 593.5 98.8366C592.638 98.8366 591.895 98.6354 591.27 98.233C590.649 97.8258 590.204 97.2268 589.934 96.4361C589.664 95.6406 589.627 94.6629 589.821 93.5028C590.01 92.3428 590.37 91.3485 590.9 90.5199C591.435 89.6913 592.084 89.0568 592.846 88.6165C593.613 88.1714 594.435 87.9489 595.311 87.9489C595.988 87.9489 596.516 88.0625 596.895 88.2898C597.278 88.5123 597.562 88.7727 597.747 89.071C597.931 89.3693 598.066 89.6321 598.152 89.8594H598.308L598.599 88.0909H600.68L598.833 99.2415C598.682 100.179 598.339 100.948 597.804 101.55C597.273 102.151 596.613 102.596 595.822 102.885C595.036 103.174 594.181 103.318 593.258 103.318ZM594.224 97.0753C594.83 97.0753 595.37 96.9332 595.843 96.6491C596.322 96.3603 596.719 95.9484 597.037 95.4134C597.354 94.8736 597.574 94.2273 597.697 93.4744C597.82 92.7405 597.813 92.0942 597.676 91.5355C597.543 90.9768 597.285 90.5412 596.902 90.2287C596.523 89.9115 596.028 89.7528 595.417 89.7528C594.773 89.7528 594.215 89.9186 593.741 90.25C593.268 90.5767 592.882 91.0218 592.583 91.5852C592.29 92.1487 592.084 92.7784 591.966 93.4744C591.852 94.1894 591.854 94.8168 591.973 95.3565C592.096 95.8963 592.342 96.3177 592.711 96.6207C593.081 96.9238 593.585 97.0753 594.224 97.0753ZM606.383 99.2202C605.313 99.2202 604.428 98.9905 603.727 98.5312C603.031 98.0672 602.543 97.4162 602.264 96.5781C601.984 95.7353 601.94 94.7481 602.129 93.6165C602.314 92.4991 602.685 91.5142 603.244 90.6619C603.803 89.8097 604.499 89.1444 605.332 88.6662C606.17 88.188 607.096 87.9489 608.109 87.9489C608.725 87.9489 609.305 88.0507 609.849 88.2543C610.398 88.4579 610.865 88.7775 611.248 89.2131C611.632 89.6487 611.897 90.2145 612.044 90.9105C612.195 91.6018 612.19 92.4422 612.029 93.4318L611.909 94.1847H603.23L603.478 92.5938H610.069C610.169 92.035 610.143 91.5402 609.991 91.1094C609.84 90.6738 609.579 90.3305 609.21 90.0795C608.845 89.8286 608.386 89.7031 607.832 89.7031C607.264 89.7031 606.734 89.8523 606.241 90.1506C605.749 90.4489 605.337 90.83 605.005 91.294C604.679 91.7533 604.473 92.2268 604.387 92.7145L604.139 94.1705C604.016 94.9659 604.037 95.6051 604.203 96.0881C604.373 96.571 604.672 96.9214 605.098 97.1392C605.524 97.357 606.056 97.4659 606.696 97.4659C607.108 97.4659 607.489 97.4091 607.839 97.2955C608.194 97.1771 608.509 97.0043 608.784 96.777C609.058 96.545 609.288 96.2562 609.473 95.9105L611.419 96.2727C611.158 96.8646 610.784 97.383 610.297 97.8281C609.809 98.2685 609.234 98.6117 608.571 98.858C607.913 99.0994 607.183 99.2202 606.383 99.2202ZM613.494 99L615.312 88.0909H617.351L617.053 89.8665H617.188C617.519 89.2652 617.969 88.7964 618.537 88.4602C619.11 88.1193 619.759 87.9489 620.483 87.9489C621.203 87.9489 621.783 88.1193 622.223 88.4602C622.668 88.8011 622.959 89.2699 623.097 89.8665H623.21C623.561 89.2794 624.051 88.813 624.68 88.4673C625.31 88.1217 626.018 87.9489 626.804 87.9489C627.784 87.9489 628.537 88.2614 629.062 88.8864C629.593 89.5066 629.754 90.4394 629.545 91.6847L628.324 99H626.193L627.386 91.8835C627.505 91.1402 627.391 90.6051 627.045 90.2784C626.7 89.947 626.248 89.7812 625.689 89.7812C624.998 89.7812 624.425 89.9943 623.97 90.4205C623.516 90.8419 623.236 91.384 623.132 92.0469L621.96 99H619.851L621.065 91.7486C621.16 91.152 621.051 90.6761 620.739 90.321C620.431 89.9612 619.981 89.7812 619.389 89.7812C618.987 89.7812 618.596 89.8878 618.217 90.1009C617.843 90.3139 617.524 90.6075 617.259 90.9815C616.993 91.3556 616.821 91.7865 616.74 92.2741L615.618 99H613.494ZM635.836 99.2202C634.766 99.2202 633.881 98.9905 633.18 98.5312C632.484 98.0672 631.996 97.4162 631.717 96.5781C631.438 95.7353 631.393 94.7481 631.582 93.6165C631.767 92.4991 632.138 91.5142 632.697 90.6619C633.256 89.8097 633.952 89.1444 634.785 88.6662C635.623 88.188 636.549 87.9489 637.562 87.9489C638.178 87.9489 638.758 88.0507 639.302 88.2543C639.851 88.4579 640.318 88.7775 640.701 89.2131C641.085 89.6487 641.35 90.2145 641.497 90.9105C641.648 91.6018 641.644 92.4422 641.483 93.4318L641.362 94.1847H632.683L632.931 92.5938H639.522C639.622 92.035 639.596 91.5402 639.444 91.1094C639.293 90.6738 639.032 90.3305 638.663 90.0795C638.298 89.8286 637.839 89.7031 637.285 89.7031C636.717 89.7031 636.187 89.8523 635.694 90.1506C635.202 90.4489 634.79 90.83 634.458 91.294C634.132 91.7533 633.926 92.2268 633.841 92.7145L633.592 94.1705C633.469 94.9659 633.49 95.6051 633.656 96.0881C633.826 96.571 634.125 96.9214 634.551 97.1392C634.977 97.357 635.51 97.4659 636.149 97.4659C636.561 97.4659 636.942 97.4091 637.292 97.2955C637.647 97.1771 637.962 97.0043 638.237 96.777C638.511 96.545 638.741 96.2562 638.926 95.9105L640.872 96.2727C640.611 96.8646 640.237 97.383 639.75 97.8281C639.262 98.2685 638.687 98.6117 638.024 98.858C637.366 99.0994 636.636 99.2202 635.836 99.2202ZM646.136 92.5227L645.071 99H642.947L644.766 88.0909H646.804L646.506 89.8665H646.641C646.986 89.2841 647.457 88.8201 648.054 88.4744C648.655 88.1241 649.366 87.9489 650.185 87.9489C650.923 87.9489 651.544 88.1051 652.045 88.4176C652.552 88.7254 652.91 89.1847 653.118 89.7955C653.331 90.4062 653.364 91.1615 653.217 92.0611L652.053 99H649.929L651.044 92.3168C651.172 91.526 651.068 90.9081 650.732 90.4631C650.4 90.0133 649.872 89.7884 649.148 89.7884C648.655 89.7884 648.198 89.8949 647.777 90.108C647.36 90.321 647.008 90.6335 646.719 91.0455C646.435 91.4527 646.241 91.9451 646.136 92.5227ZM661.804 88.0909L661.527 89.7955H655.568L655.845 88.0909H661.804ZM657.869 85.4773H659.993L658.274 95.7969C658.208 96.2088 658.22 96.5189 658.31 96.7273C658.4 96.9309 658.537 97.0705 658.722 97.1463C658.911 97.2173 659.122 97.2528 659.354 97.2528C659.524 97.2528 659.673 97.241 659.801 97.2173C659.929 97.1937 660.031 97.1747 660.107 97.1605L660.22 98.9148C660.078 98.9621 659.886 99.0095 659.645 99.0568C659.408 99.1089 659.119 99.1373 658.778 99.142C658.22 99.1515 657.715 99.0521 657.266 98.8438C656.816 98.6307 656.48 98.3087 656.257 97.8778C656.035 97.4422 655.98 96.8954 656.094 96.2372L657.869 85.4773Z" fill="black"/>
</svg>
