<svg width="185" height="103" viewBox="0 0 185 103" fill="none" xmlns="http://www.w3.org/2000/svg">
<path d="M54.0786 19.5L92.4119 12L130.745 19.5L92.4119 27L54.0786 19.5Z" stroke="#333333" stroke-width="2" stroke-linecap="round" stroke-linejoin="round"/>
<path d="M71.3286 24V38.9559C71.3286 38.9559 80.9119 43.5 92.4119 43.5C103.912 43.5 113.495 38.9559 113.495 38.9559V24" stroke="#333333" stroke-width="2" stroke-linecap="round" stroke-linejoin="round"/>
<path d="M59.8286 21V54" stroke="#333333" stroke-width="2" stroke-linecap="round" stroke-linejoin="round"/>
<path d="M65.5786 51H54.0786V60H65.5786V51Z" stroke="#333333" stroke-width="2" stroke-linecap="round" stroke-linejoin="round"/>
<path d="M2.32955 98H2.06381e-06L7.64915 83.4545H10.1847L13.0043 98H10.6747L8.55114 86.0966H8.4375L2.32955 98ZM3.66477 92.304H11.2216L10.9091 94.1506H3.35227L3.66477 92.304ZM19.3253 98.2202C18.2647 98.2202 17.3958 97.9811 16.7188 97.5028C16.0417 97.0199 15.5706 96.3546 15.3054 95.5071C15.0402 94.6596 14.9976 93.6889 15.1776 92.5952C15.3575 91.4872 15.7244 90.5095 16.2784 89.6619C16.8371 88.8097 17.5355 88.1444 18.3736 87.6662C19.2164 87.188 20.1515 86.9489 21.179 86.9489C22.0076 86.9489 22.7202 87.1027 23.3168 87.4105C23.9134 87.7135 24.3655 88.1397 24.6733 88.6889C24.9811 89.2382 25.1136 89.8797 25.071 90.6136H23.0043C22.9711 90.1023 22.7817 89.6619 22.4361 89.2926C22.0904 88.9233 21.5814 88.7386 20.9091 88.7386C20.3172 88.7386 19.7727 88.8949 19.2756 89.2074C18.7784 89.5152 18.3594 89.9555 18.0185 90.5284C17.6776 91.0966 17.4456 91.7689 17.3224 92.5455C17.1899 93.3409 17.197 94.0275 17.3438 94.6051C17.4905 95.1828 17.7604 95.6302 18.1534 95.9474C18.5464 96.2647 19.0412 96.4233 19.6378 96.4233C20.045 96.4233 20.4238 96.3499 20.7742 96.2031C21.1293 96.0516 21.4418 95.8362 21.7117 95.5568C21.9863 95.2775 22.1993 94.9413 22.3509 94.5483H24.4247C24.2211 95.2538 23.8802 95.8835 23.402 96.4375C22.9285 96.9915 22.3461 97.4271 21.6548 97.7443C20.9635 98.0616 20.187 98.2202 19.3253 98.2202ZM29.2525 98.2415C28.5612 98.2415 27.9575 98.1136 27.4414 97.858C26.9253 97.5975 26.5442 97.2211 26.2979 96.7287C26.0517 96.2363 25.9878 95.6326 26.1062 94.9176C26.2103 94.3021 26.4139 93.7955 26.717 93.3977C27.0247 93 27.3988 92.6851 27.8391 92.4531C28.2795 92.2164 28.7577 92.0388 29.2738 91.9205C29.7899 91.8021 30.3107 91.7145 30.8363 91.6577C31.4992 91.5819 32.0366 91.518 32.4485 91.4659C32.8652 91.4138 33.1777 91.3333 33.386 91.2244C33.5943 91.1108 33.7198 90.9261 33.7624 90.6705V90.6207C33.8619 90.0052 33.7719 89.527 33.4925 89.1861C33.2179 88.8404 32.7397 88.6676 32.0579 88.6676C31.3477 88.6676 30.7511 88.8239 30.2681 89.1364C29.7899 89.4489 29.4371 89.7992 29.2099 90.1875L27.3065 89.733C27.6474 89.0701 28.0806 88.535 28.6062 88.1278C29.1365 87.7159 29.7165 87.4176 30.3462 87.233C30.976 87.0436 31.6199 86.9489 32.2781 86.9489C32.7137 86.9489 33.1658 87.0009 33.6346 87.1051C34.1033 87.2045 34.5295 87.3892 34.913 87.6591C35.3013 87.929 35.5901 88.3149 35.7795 88.8168C35.9689 89.3139 35.9973 89.9602 35.8647 90.7557L34.6644 98H32.5906L32.8462 96.5085H32.761C32.5811 96.7831 32.3301 97.053 32.0082 97.3182C31.6909 97.5833 31.3027 97.8035 30.8434 97.9787C30.3841 98.1539 29.8538 98.2415 29.2525 98.2415ZM29.9769 96.5369C30.5688 96.5369 31.092 96.4209 31.5465 96.1889C32.0058 95.9569 32.3775 95.6539 32.6616 95.2798C32.9457 94.901 33.1232 94.4962 33.1942 94.0653L33.4286 92.6591C33.3387 92.7348 33.18 92.8035 32.9528 92.8651C32.7302 92.9266 32.4793 92.9811 32.1999 93.0284C31.9206 93.0758 31.646 93.116 31.3761 93.1491C31.1109 93.1823 30.8907 93.2131 30.7156 93.2415C30.2989 93.2936 29.9083 93.3812 29.5437 93.5043C29.1838 93.6274 28.8832 93.8049 28.6417 94.0369C28.4002 94.2642 28.2487 94.5672 28.1871 94.946C28.1019 95.4716 28.2274 95.8693 28.5636 96.1392C28.9045 96.4044 29.3756 96.5369 29.9769 96.5369ZM41.5625 98.2131C40.6771 98.2131 39.9266 97.9882 39.3111 97.5384C38.7003 97.0838 38.267 96.4375 38.0114 95.5994C37.7604 94.7566 37.732 93.7457 37.9261 92.5668C38.125 91.3878 38.492 90.3793 39.027 89.5412C39.562 88.7031 40.2107 88.0616 40.973 87.6165C41.7353 87.1714 42.5568 86.9489 43.4375 86.9489C44.1146 86.9489 44.6402 87.0625 45.0142 87.2898C45.393 87.5123 45.6724 87.7727 45.8523 88.071C46.0322 88.3693 46.1671 88.6321 46.2571 88.8594H46.3778L47.2798 83.4545H49.4034L46.9886 98H44.9148L45.206 96.3026H45.0284C44.8627 96.5346 44.6331 96.7997 44.3395 97.098C44.0507 97.3963 43.6813 97.6567 43.2315 97.8793C42.7817 98.1018 42.2254 98.2131 41.5625 98.2131ZM42.2798 96.402C42.8906 96.402 43.4375 96.241 43.9205 95.919C44.4081 95.5923 44.813 95.1402 45.1349 94.5625C45.4617 93.9848 45.6889 93.3125 45.8168 92.5455C45.9446 91.7879 45.9422 91.125 45.8097 90.5568C45.6771 89.9886 45.4214 89.5459 45.0426 89.2287C44.6638 88.9115 44.1643 88.7528 43.544 88.7528C42.9048 88.7528 42.3485 88.9186 41.875 89.25C41.4015 89.5814 41.0133 90.0336 40.7102 90.6065C40.4119 91.1795 40.2036 91.8258 40.0852 92.5455C39.9621 93.2746 39.9574 93.9304 40.071 94.5128C40.1847 95.0952 40.4238 95.5568 40.7884 95.8977C41.1529 96.2339 41.6501 96.402 42.2798 96.402ZM54.6857 98.2202C53.6157 98.2202 52.7302 97.9905 52.0295 97.5312C51.3335 97.0672 50.8458 96.4162 50.5664 95.5781C50.2871 94.7353 50.2421 93.7481 50.4315 92.6165C50.6161 91.4991 50.9878 90.5142 51.5465 89.6619C52.1052 88.8097 52.8013 88.1444 53.6346 87.6662C54.4727 87.188 55.3983 86.9489 56.4116 86.9489C57.0271 86.9489 57.6071 87.0507 58.1516 87.2543C58.7009 87.4579 59.1673 87.7775 59.5508 88.2131C59.9343 88.6487 60.1995 89.2145 60.3462 89.9105C60.4978 90.6018 60.493 91.4422 60.332 92.4318L60.2113 93.1847H51.5323L51.7809 91.5938H58.3718C58.4712 91.035 58.4452 90.5402 58.2937 90.1094C58.1422 89.6738 57.8817 89.3305 57.5124 89.0795C57.1478 88.8286 56.6886 88.7031 56.1346 88.7031C55.5664 88.7031 55.0361 88.8523 54.5437 89.1506C54.0513 89.4489 53.6393 89.83 53.3079 90.294C52.9812 90.7533 52.7752 91.2268 52.69 91.7145L52.4414 93.1705C52.3183 93.9659 52.3396 94.6051 52.5053 95.0881C52.6758 95.571 52.9741 95.9214 53.4002 96.1392C53.8264 96.357 54.359 96.4659 54.9982 96.4659C55.4102 96.4659 55.7913 96.4091 56.1417 96.2955C56.4968 96.1771 56.8117 96.0043 57.0863 95.777C57.3609 95.545 57.5906 95.2562 57.7752 94.9105L59.7212 95.2727C59.4608 95.8646 59.0868 96.383 58.5991 96.8281C58.1114 97.2685 57.5361 97.6117 56.8732 97.858C56.2151 98.0994 55.4859 98.2202 54.6857 98.2202ZM61.7969 98L63.6151 87.0909H65.6534L65.3551 88.8665H65.4901C65.8215 88.2652 66.2713 87.7964 66.8395 87.4602C67.4124 87.1193 68.0611 86.9489 68.7855 86.9489C69.5052 86.9489 70.0852 87.1193 70.5256 87.4602C70.9706 87.8011 71.2618 88.2699 71.3992 88.8665H71.5128C71.8632 88.2794 72.3532 87.813 72.983 87.4673C73.6127 87.1217 74.3206 86.9489 75.1065 86.9489C76.0867 86.9489 76.8395 87.2614 77.3651 87.8864C77.8954 88.5066 78.0563 89.4394 77.848 90.6847L76.6264 98H74.4957L75.6889 90.8835C75.8073 90.1402 75.6937 89.6051 75.348 89.2784C75.0024 88.947 74.5502 88.7812 73.9915 88.7812C73.3002 88.7812 72.7273 88.9943 72.2727 89.4205C71.8182 89.8419 71.5388 90.384 71.4347 91.0469L70.2628 98H68.1534L69.3679 90.7486C69.4626 90.152 69.3537 89.6761 69.0412 89.321C68.7334 88.9612 68.2836 88.7812 67.6918 88.7812C67.2893 88.7812 66.8987 88.8878 66.5199 89.1009C66.1458 89.3139 65.8262 89.6075 65.5611 89.9815C65.2959 90.3556 65.1231 90.7865 65.0426 91.2741L63.9205 98H61.7969ZM79.4656 98L81.2837 87.0909H83.4073L81.5891 98H79.4656ZM82.7894 85.3864C82.4201 85.3864 82.1076 85.2633 81.8519 85.017C81.601 84.7661 81.485 84.4678 81.5039 84.1222C81.5228 83.7718 81.6696 83.4735 81.9442 83.2273C82.2189 82.9763 82.5385 82.8509 82.9031 82.8509C83.2724 82.8509 83.5825 82.9763 83.8335 83.2273C84.0844 83.4735 84.2028 83.7718 84.1886 84.1222C84.1696 84.4678 84.0228 84.7661 83.7482 85.017C83.4783 85.2633 83.1587 85.3864 82.7894 85.3864ZM89.0128 98.2202C87.9522 98.2202 87.0833 97.9811 86.4063 97.5028C85.7292 97.0199 85.2581 96.3546 84.9929 95.5071C84.7277 94.6596 84.6851 93.6889 84.8651 92.5952C85.045 91.4872 85.4119 90.5095 85.9659 89.6619C86.5246 88.8097 87.223 88.1444 88.0611 87.6662C88.9039 87.188 89.839 86.9489 90.8665 86.9489C91.6951 86.9489 92.4077 87.1027 93.0043 87.4105C93.6009 87.7135 94.053 88.1397 94.3608 88.6889C94.6686 89.2382 94.8011 89.8797 94.7585 90.6136H92.6918C92.6586 90.1023 92.4692 89.6619 92.1236 89.2926C91.7779 88.9233 91.2689 88.7386 90.5966 88.7386C90.0047 88.7386 89.4602 88.8949 88.9631 89.2074C88.4659 89.5152 88.0469 89.9555 87.706 90.5284C87.3651 91.0966 87.1331 91.7689 87.0099 92.5455C86.8774 93.3409 86.8845 94.0275 87.0313 94.6051C87.178 95.1828 87.4479 95.6302 87.8409 95.9474C88.2339 96.2647 88.7287 96.4233 89.3253 96.4233C89.7325 96.4233 90.1113 96.3499 90.4617 96.2031C90.8168 96.0516 91.1293 95.8362 91.3992 95.5568C91.6738 95.2775 91.8868 94.9413 92.0384 94.5483H94.1122C93.9086 95.2538 93.5677 95.8835 93.0895 96.4375C92.616 96.9915 92.0336 97.4271 91.3423 97.7443C90.651 98.0616 89.8745 98.2202 89.0128 98.2202ZM110.952 87.3608C110.956 86.6458 110.724 86.099 110.256 85.7202C109.792 85.3414 109.143 85.152 108.31 85.152C107.713 85.152 107.18 85.2467 106.712 85.4361C106.248 85.6207 105.869 85.8764 105.575 86.2031C105.286 86.5251 105.109 86.892 105.043 87.304C104.981 87.6496 105.012 87.9479 105.135 88.1989C105.263 88.4498 105.445 88.6605 105.682 88.831C105.923 88.9967 106.188 89.1364 106.477 89.25C106.766 89.3589 107.045 89.4489 107.315 89.5199L108.679 89.8892C109.119 90.0028 109.567 90.1567 110.021 90.3509C110.476 90.545 110.885 90.8007 111.25 91.1179C111.615 91.4351 111.887 91.8281 112.067 92.2969C112.247 92.7656 112.282 93.3267 112.173 93.9801C112.031 94.804 111.697 95.5355 111.172 96.1747C110.646 96.8139 109.953 97.3182 109.091 97.6875C108.229 98.0568 107.23 98.2415 106.094 98.2415C105.005 98.2415 104.089 98.0687 103.345 97.723C102.607 97.3774 102.064 96.8873 101.719 96.2528C101.373 95.6136 101.25 94.8561 101.349 93.9801H103.558C103.506 94.5057 103.601 94.9437 103.842 95.294C104.089 95.6397 104.434 95.8977 104.879 96.0682C105.324 96.2339 105.829 96.3168 106.392 96.3168C107.017 96.3168 107.588 96.2197 108.104 96.0256C108.62 95.8267 109.046 95.5521 109.382 95.2017C109.718 94.8466 109.924 94.4323 110 93.9588C110.076 93.5279 110.014 93.1752 109.815 92.9006C109.621 92.6259 109.328 92.3987 108.935 92.2188C108.546 92.0388 108.104 91.8802 107.607 91.7429L105.966 91.2741C104.853 90.9569 104.01 90.4905 103.438 89.875C102.865 89.2595 102.659 88.4451 102.82 87.4318C102.962 86.5937 103.312 85.8622 103.871 85.2372C104.429 84.6122 105.125 84.1269 105.959 83.7812C106.792 83.4309 107.696 83.2557 108.672 83.2557C109.657 83.2557 110.495 83.4309 111.186 83.7812C111.877 84.1316 112.389 84.6146 112.72 85.2301C113.052 85.8456 113.168 86.5559 113.068 87.3608H110.952ZM118.631 98.2202C117.561 98.2202 116.676 97.9905 115.975 97.5312C115.279 97.0672 114.791 96.4162 114.512 95.5781C114.232 94.7353 114.187 93.7481 114.377 92.6165C114.561 91.4991 114.933 90.5142 115.492 89.6619C116.051 88.8097 116.747 88.1444 117.58 87.6662C118.418 87.188 119.344 86.9489 120.357 86.9489C120.972 86.9489 121.552 87.0507 122.097 87.2543C122.646 87.4579 123.113 87.7775 123.496 88.2131C123.88 88.6487 124.145 89.2145 124.292 89.9105C124.443 90.6018 124.438 91.4422 124.277 92.4318L124.157 93.1847H115.478L115.726 91.5938H122.317C122.417 91.035 122.391 90.5402 122.239 90.1094C122.087 89.6738 121.827 89.3305 121.458 89.0795C121.093 88.8286 120.634 88.7031 120.08 88.7031C119.512 88.7031 118.981 88.8523 118.489 89.1506C117.997 89.4489 117.585 89.83 117.253 90.294C116.926 90.7533 116.721 91.2268 116.635 91.7145L116.387 93.1705C116.264 93.9659 116.285 94.6051 116.451 95.0881C116.621 95.571 116.919 95.9214 117.346 96.1392C117.772 96.357 118.304 96.4659 118.944 96.4659C119.355 96.4659 119.737 96.4091 120.087 96.2955C120.442 96.1771 120.757 96.0043 121.032 95.777C121.306 95.545 121.536 95.2562 121.721 94.9105L123.667 95.2727C123.406 95.8646 123.032 96.383 122.544 96.8281C122.057 97.2685 121.481 97.6117 120.819 97.858C120.16 98.0994 119.431 98.2202 118.631 98.2202ZM125.735 98L127.553 87.0909H129.606L129.315 88.8239H129.428C129.722 88.2367 130.15 87.7751 130.714 87.4389C131.277 87.098 131.879 86.9276 132.518 86.9276C132.655 86.9276 132.811 86.9323 132.987 86.9418C133.162 86.9465 133.304 86.9583 133.413 86.9773L133.072 89.0085C132.991 88.9848 132.844 88.9588 132.631 88.9304C132.418 88.8973 132.198 88.8807 131.971 88.8807C131.474 88.8807 131.012 88.9872 130.586 89.2003C130.16 89.4086 129.802 89.6998 129.513 90.0739C129.225 90.4432 129.038 90.8646 128.952 91.3381L127.859 98H125.735ZM144.933 87.0909L139.158 98H136.886L134.741 87.0909H136.935L138.299 95.4858H138.413L142.567 87.0909H144.933ZM145.11 98L146.928 87.0909H149.052L147.234 98H145.11ZM148.434 85.3864C148.065 85.3864 147.752 85.2633 147.496 85.017C147.246 84.7661 147.13 84.4678 147.148 84.1222C147.167 83.7718 147.314 83.4735 147.589 83.2273C147.863 82.9763 148.183 82.8509 148.548 82.8509C148.917 82.8509 149.227 82.9763 149.478 83.2273C149.729 83.4735 149.847 83.7718 149.833 84.1222C149.814 84.4678 149.667 84.7661 149.393 85.017C149.123 85.2633 148.803 85.3864 148.434 85.3864ZM154.657 98.2202C153.597 98.2202 152.728 97.9811 152.051 97.5028C151.374 97.0199 150.903 96.3546 150.637 95.5071C150.372 94.6596 150.33 93.6889 150.51 92.5952C150.69 91.4872 151.056 90.5095 151.61 89.6619C152.169 88.8097 152.868 88.1444 153.706 87.6662C154.548 87.188 155.484 86.9489 156.511 86.9489C157.34 86.9489 158.052 87.1027 158.649 87.4105C159.245 87.7135 159.698 88.1397 160.005 88.6889C160.313 89.2382 160.446 89.8797 160.403 90.6136H158.336C158.303 90.1023 158.114 89.6619 157.768 89.2926C157.422 88.9233 156.913 88.7386 156.241 88.7386C155.649 88.7386 155.105 88.8949 154.608 89.2074C154.11 89.5152 153.691 89.9555 153.35 90.5284C153.01 91.0966 152.778 91.7689 152.654 92.5455C152.522 93.3409 152.529 94.0275 152.676 94.6051C152.823 95.1828 153.092 95.6302 153.485 95.9474C153.878 96.2647 154.373 96.4233 154.97 96.4233C155.377 96.4233 155.756 96.3499 156.106 96.2031C156.461 96.0516 156.774 95.8362 157.044 95.5568C157.318 95.2775 157.531 94.9413 157.683 94.5483H159.757C159.553 95.2538 159.212 95.8835 158.734 96.4375C158.261 96.9915 157.678 97.4271 156.987 97.7443C156.296 98.0616 155.519 98.2202 154.657 98.2202ZM166.112 98.2202C165.041 98.2202 164.156 97.9905 163.455 97.5312C162.759 97.0672 162.272 96.4162 161.992 95.5781C161.713 94.7353 161.668 93.7481 161.857 92.6165C162.042 91.4991 162.414 90.5142 162.972 89.6619C163.531 88.8097 164.227 88.1444 165.06 87.6662C165.898 87.188 166.824 86.9489 167.837 86.9489C168.453 86.9489 169.033 87.0507 169.577 87.2543C170.127 87.4579 170.593 87.7775 170.977 88.2131C171.36 88.6487 171.625 89.2145 171.772 89.9105C171.924 90.6018 171.919 91.4422 171.758 92.4318L171.637 93.1847H162.958L163.207 91.5938H169.798C169.897 91.035 169.871 90.5402 169.719 90.1094C169.568 89.6738 169.308 89.3305 168.938 89.0795C168.574 88.8286 168.114 88.7031 167.56 88.7031C166.992 88.7031 166.462 88.8523 165.969 89.1506C165.477 89.4489 165.065 89.83 164.734 90.294C164.407 90.7533 164.201 91.2268 164.116 91.7145L163.867 93.1705C163.744 93.9659 163.765 94.6051 163.931 95.0881C164.102 95.571 164.4 95.9214 164.826 96.1392C165.252 96.357 165.785 96.4659 166.424 96.4659C166.836 96.4659 167.217 96.4091 167.567 96.2955C167.923 96.1771 168.237 96.0043 168.512 95.777C168.787 95.545 169.016 95.2562 169.201 94.9105L171.147 95.2727C170.887 95.8646 170.513 96.383 170.025 96.8281C169.537 97.2685 168.962 97.6117 168.299 97.858C167.641 98.0994 166.912 98.2202 166.112 98.2202ZM182.768 89.7543L180.787 90.0952C180.744 89.8442 180.656 89.6075 180.524 89.3849C180.396 89.1624 180.199 88.9825 179.934 88.8452C179.669 88.7031 179.316 88.6321 178.876 88.6321C178.265 88.6321 177.73 88.7718 177.271 89.0511C176.816 89.3305 176.556 89.6856 176.49 90.1165C176.428 90.4669 176.511 90.7509 176.738 90.9688C176.966 91.1818 177.366 91.3594 177.939 91.5014L179.615 91.8991C180.581 92.1312 181.272 92.4934 181.689 92.9858C182.11 93.4735 182.257 94.108 182.129 94.8892C182.02 95.5379 181.736 96.1132 181.277 96.6151C180.822 97.117 180.24 97.5099 179.529 97.794C178.819 98.0781 178.029 98.2202 177.157 98.2202C175.917 98.2202 174.951 97.9574 174.26 97.4318C173.568 96.9063 173.213 96.1629 173.194 95.2017L175.297 94.8892C175.334 95.4242 175.526 95.8291 175.872 96.1037C176.222 96.3736 176.708 96.5085 177.328 96.5085C178.038 96.5133 178.632 96.3641 179.11 96.0611C179.589 95.758 179.861 95.3911 179.927 94.9602C179.984 94.6241 179.908 94.3447 179.7 94.1222C179.496 93.8996 179.136 93.7292 178.62 93.6108L176.859 93.206C175.874 92.974 175.178 92.5999 174.771 92.0838C174.364 91.5677 174.226 90.919 174.359 90.1378C174.463 89.4986 174.733 88.9422 175.169 88.4688C175.609 87.9905 176.165 87.6188 176.838 87.3537C177.51 87.0838 178.253 86.9489 179.068 86.9489C180.256 86.9489 181.149 87.2045 181.745 87.7159C182.342 88.2225 182.683 88.902 182.768 89.7543Z" fill="black"/>
</svg>
