<svg width="105" height="102" viewBox="0 0 105 102" fill="none" xmlns="http://www.w3.org/2000/svg">
<path d="M86.5 6H17.5C15.3829 6 13.6667 7.34315 13.6667 9V63C13.6667 64.6569 15.3829 66 17.5 66H86.5C88.6171 66 90.3333 64.6569 90.3333 63V9C90.3333 7.34315 88.6171 6 86.5 6Z" stroke="#333333" stroke-width="2" stroke-linecap="round" stroke-linejoin="round"/>
<path d="M32.8333 6V66" stroke="#333333" stroke-width="2" stroke-linecap="round"/>
<path d="M52 6V66" stroke="#333333" stroke-width="2" stroke-linecap="round"/>
<path d="M71.1667 6V66" stroke="#333333" stroke-width="2" stroke-linecap="round"/>
<path d="M13.6667 21H90.3333" stroke="#333333" stroke-width="2" stroke-linecap="round" stroke-linejoin="round"/>
<path d="M13.6667 51H90.3333" stroke="#333333" stroke-width="2" stroke-linecap="round" stroke-linejoin="round"/>
<path d="M13.6667 36H90.3333" stroke="#333333" stroke-width="2" stroke-linecap="round" stroke-linejoin="round"/>
<path d="M5.46165 97H0.68892L3.10369 82.4545H7.89773C9.32765 82.4545 10.509 82.7528 11.4418 83.3494C12.3745 83.9413 13.0279 84.7888 13.402 85.892C13.776 86.9905 13.8352 88.3045 13.5795 89.8338C13.3333 91.33 12.8504 92.6132 12.1307 93.6832C11.4157 94.7486 10.4948 95.5677 9.3679 96.1406C8.241 96.7135 6.93892 97 5.46165 97ZM3.21023 95.0824H5.55398C6.66193 95.0824 7.62074 94.867 8.4304 94.4361C9.24479 94.0052 9.9053 93.3802 10.4119 92.5611C10.9186 91.742 11.2689 90.7453 11.4631 89.571C11.6525 88.4536 11.6359 87.509 11.4134 86.7372C11.1908 85.9607 10.7599 85.3736 10.1207 84.9759C9.48153 84.5734 8.63163 84.3722 7.57102 84.3722H4.97869L3.21023 95.0824ZM18.0984 97.2415C17.4071 97.2415 16.8034 97.1136 16.2873 96.858C15.7712 96.5975 15.39 96.2211 15.1438 95.7287C14.8976 95.2363 14.8337 94.6326 14.9521 93.9176C15.0562 93.3021 15.2598 92.7955 15.5629 92.3977C15.8706 92 16.2447 91.6851 16.685 91.4531C17.1254 91.2164 17.6036 91.0388 18.1197 90.9205C18.6358 90.8021 19.1566 90.7145 19.6822 90.6577C20.3451 90.5819 20.8825 90.518 21.2944 90.4659C21.7111 90.4138 22.0236 90.3333 22.2319 90.2244C22.4402 90.1108 22.5657 89.9261 22.6083 89.6705V89.6207C22.7077 89.0052 22.6178 88.527 22.3384 88.1861C22.0638 87.8404 21.5856 87.6676 20.9038 87.6676C20.1935 87.6676 19.5969 87.8239 19.114 88.1364C18.6358 88.4489 18.283 88.7992 18.0558 89.1875L16.1523 88.733C16.4933 88.0701 16.9265 87.535 17.4521 87.1278C17.9824 86.7159 18.5624 86.4176 19.1921 86.233C19.8219 86.0436 20.4658 85.9489 21.1239 85.9489C21.5595 85.9489 22.0117 86.0009 22.4805 86.1051C22.9492 86.2045 23.3754 86.3892 23.7589 86.6591C24.1471 86.929 24.436 87.3149 24.6254 87.8168C24.8147 88.3139 24.8432 88.9602 24.7106 89.7557L23.5103 97H21.4364L21.6921 95.5085H21.6069C21.427 95.7831 21.176 96.053 20.854 96.3182C20.5368 96.5833 20.1486 96.8035 19.6893 96.9787C19.23 97.1539 18.6997 97.2415 18.0984 97.2415ZM18.8228 95.5369C19.4147 95.5369 19.9379 95.4209 20.3924 95.1889C20.8517 94.9569 21.2234 94.6539 21.5075 94.2798C21.7915 93.901 21.9691 93.4962 22.0401 93.0653L22.2745 91.6591C22.1845 91.7348 22.0259 91.8035 21.7987 91.8651C21.5761 91.9266 21.3252 91.9811 21.0458 92.0284C20.7665 92.0758 20.4918 92.116 20.2219 92.1491C19.9568 92.1823 19.7366 92.2131 19.5614 92.2415C19.1448 92.2936 18.7541 92.3812 18.3896 92.5043C18.0297 92.6274 17.729 92.8049 17.4876 93.0369C17.2461 93.2642 17.0946 93.5672 17.033 93.946C16.9478 94.4716 17.0733 94.8693 17.4094 95.1392C17.7504 95.4044 18.2215 95.5369 18.8228 95.5369ZM35.8913 88.7543L33.9098 89.0952C33.8672 88.8442 33.7796 88.6075 33.647 88.3849C33.5192 88.1624 33.3227 87.9825 33.0575 87.8452C32.7924 87.7031 32.4396 87.6321 31.9993 87.6321C31.3885 87.6321 30.8535 87.7718 30.3942 88.0511C29.9396 88.3305 29.6792 88.6856 29.6129 89.1165C29.5514 89.4669 29.6342 89.7509 29.8615 89.9688C30.0888 90.1818 30.4889 90.3594 31.0618 90.5014L32.7379 90.8991C33.7038 91.1312 34.3951 91.4934 34.8118 91.9858C35.2332 92.4735 35.38 93.108 35.2521 93.8892C35.1432 94.5379 34.8591 95.1132 34.3999 95.6151C33.9453 96.117 33.3629 96.5099 32.6527 96.794C31.9425 97.0781 31.1518 97.2202 30.2805 97.2202C29.04 97.2202 28.0741 96.9574 27.3828 96.4318C26.6915 95.9063 26.3364 95.1629 26.3175 94.2017L28.4197 93.8892C28.4576 94.4242 28.6494 94.8291 28.995 95.1037C29.3454 95.3736 29.8307 95.5085 30.451 95.5085C31.1612 95.5133 31.7554 95.3641 32.2337 95.0611C32.7119 94.758 32.9841 94.3911 33.0504 93.9602C33.1072 93.6241 33.0315 93.3447 32.8232 93.1222C32.6196 92.8996 32.2597 92.7292 31.7436 92.6108L29.9822 92.206C28.9974 91.974 28.3014 91.5999 27.8942 91.0838C27.487 90.5677 27.3497 89.919 27.4822 89.1378C27.5864 88.4986 27.8563 87.9422 28.2919 87.4688C28.7322 86.9905 29.2886 86.6188 29.9609 86.3537C30.6333 86.0838 31.3767 85.9489 32.1911 85.9489C33.3795 85.9489 34.272 86.2045 34.8686 86.7159C35.4652 87.2225 35.8061 87.902 35.8913 88.7543ZM40.2575 90.5227L39.1921 97H37.0685L39.4833 82.4545H41.5785L40.6836 87.8665H40.8185C41.1642 87.2746 41.6282 86.8082 42.2106 86.4673C42.7977 86.1217 43.5174 85.9489 44.3697 85.9489C45.1178 85.9489 45.7451 86.1027 46.2518 86.4105C46.7631 86.7183 47.123 87.1776 47.3313 87.7884C47.5444 88.3944 47.5775 89.152 47.4308 90.0611L46.266 97H44.1424L45.2504 90.3168C45.3829 89.5166 45.2788 88.8963 44.9379 88.456C44.5969 88.0109 44.0643 87.7884 43.3398 87.7884C42.8332 87.7884 42.3645 87.8949 41.9336 88.108C41.5075 88.321 41.1476 88.6335 40.854 89.0455C40.5605 89.4527 40.3616 89.9451 40.2575 90.5227ZM49.2631 97L51.6779 82.4545H53.8015L52.9137 87.8594H53.0415C53.2025 87.6321 53.4227 87.3693 53.7021 87.071C53.9862 86.7727 54.3531 86.5123 54.8029 86.2898C55.2527 86.0625 55.8162 85.9489 56.4933 85.9489C57.3739 85.9489 58.122 86.1714 58.7376 86.6165C59.3531 87.0616 59.7887 87.7031 60.0444 88.5412C60.3001 89.3793 60.3308 90.3878 60.1367 91.5668C59.9426 92.7457 59.578 93.7566 59.043 94.5994C58.5127 95.4375 57.8664 96.0838 57.104 96.5384C56.3417 96.9882 55.5202 97.2131 54.6396 97.2131C53.9767 97.2131 53.4535 97.1018 53.07 96.8793C52.6912 96.6567 52.4071 96.3963 52.2177 96.098C52.033 95.7997 51.8933 95.5346 51.7987 95.3026H51.6211L51.337 97H49.2631ZM52.2532 91.5455C52.1301 92.3125 52.1301 92.9848 52.2532 93.5625C52.381 94.1402 52.6296 94.5923 52.9989 94.919C53.373 95.241 53.863 95.402 54.4691 95.402C55.1036 95.402 55.6623 95.2339 56.1452 94.8977C56.6282 94.5568 57.0259 94.0952 57.3384 93.5128C57.6509 92.9304 57.8687 92.2746 57.9918 91.5455C58.1055 90.8258 58.1031 90.1795 57.9847 89.6065C57.8664 89.0336 57.6201 88.5814 57.2461 88.25C56.8768 87.9186 56.3725 87.7528 55.7333 87.7528C55.1178 87.7528 54.5709 87.9115 54.0927 88.2287C53.6145 88.5459 53.2191 88.9886 52.9066 89.5568C52.5941 90.125 52.3763 90.7879 52.2532 91.5455ZM66.2571 97.2202C65.2202 97.2202 64.3537 96.9834 63.6577 96.5099C62.9616 96.0317 62.4716 95.3641 62.1875 94.5071C61.9081 93.6454 61.8608 92.6439 62.0455 91.5028C62.2254 90.3854 62.5876 89.41 63.1321 88.5767C63.6813 87.7434 64.3679 87.0971 65.1918 86.6378C66.0204 86.1785 66.9413 85.9489 67.9545 85.9489C68.9915 85.9489 69.8556 86.188 70.5469 86.6662C71.2429 87.1444 71.733 87.8144 72.017 88.6761C72.3011 89.5379 72.3509 90.5417 72.1662 91.6875C71.9863 92.7955 71.6193 93.7661 71.0653 94.5994C70.5161 95.428 69.8295 96.072 69.0057 96.5312C68.1818 96.9905 67.2656 97.2202 66.2571 97.2202ZM66.3778 95.4375C67.0597 95.4375 67.6539 95.2576 68.1605 94.8977C68.6719 94.5379 69.0885 94.0597 69.4105 93.4631C69.7325 92.8665 69.9527 92.2131 70.071 91.5028C70.1799 90.8163 70.1776 90.1889 70.0639 89.6207C69.955 89.0478 69.7183 88.5885 69.3537 88.2429C68.9891 87.8973 68.4825 87.7244 67.8338 87.7244C67.152 87.7244 66.553 87.9067 66.0369 88.2713C65.5256 88.6312 65.1089 89.1117 64.7869 89.7131C64.4697 90.3144 64.2543 90.9702 64.1406 91.6804C64.0317 92.3622 64.0317 92.9896 64.1406 93.5625C64.2495 94.1307 64.4863 94.5852 64.8509 94.9261C65.2154 95.267 65.7244 95.4375 66.3778 95.4375ZM76.8093 97.2415C76.118 97.2415 75.5143 97.1136 74.9982 96.858C74.4821 96.5975 74.101 96.2211 73.8548 95.7287C73.6085 95.2363 73.5446 94.6326 73.663 93.9176C73.7672 93.3021 73.9708 92.7955 74.2738 92.3977C74.5816 92 74.9556 91.6851 75.396 91.4531C75.8363 91.2164 76.3145 91.0388 76.8306 90.9205C77.3467 90.8021 77.8675 90.7145 78.3931 90.6577C79.056 90.5819 79.5934 90.518 80.0053 90.4659C80.422 90.4138 80.7345 90.3333 80.9428 90.2244C81.1512 90.1108 81.2766 89.9261 81.3192 89.6705V89.6207C81.4187 89.0052 81.3287 88.527 81.0494 88.1861C80.7747 87.8404 80.2965 87.6676 79.6147 87.6676C78.9045 87.6676 78.3079 87.8239 77.8249 88.1364C77.3467 88.4489 76.994 88.7992 76.7667 89.1875L74.8633 88.733C75.2042 88.0701 75.6374 87.535 76.163 87.1278C76.6933 86.7159 77.2733 86.4176 77.9031 86.233C78.5328 86.0436 79.1767 85.9489 79.8349 85.9489C80.2705 85.9489 80.7227 86.0009 81.1914 86.1051C81.6602 86.2045 82.0863 86.3892 82.4698 86.6591C82.8581 86.929 83.1469 87.3149 83.3363 87.8168C83.5257 88.3139 83.5541 88.9602 83.4215 89.7557L82.2212 97H80.1474L80.4031 95.5085H80.3178C80.1379 95.7831 79.887 96.053 79.565 96.3182C79.2478 96.5833 78.8595 96.8035 78.4002 96.9787C77.9409 97.1539 77.4106 97.2415 76.8093 97.2415ZM77.5337 95.5369C78.1256 95.5369 78.6488 95.4209 79.1033 95.1889C79.5626 94.9569 79.9343 94.6539 80.2184 94.2798C80.5025 93.901 80.68 93.4962 80.7511 93.0653L80.9854 91.6591C80.8955 91.7348 80.7369 91.8035 80.5096 91.8651C80.2871 91.9266 80.0361 91.9811 79.7567 92.0284C79.4774 92.0758 79.2028 92.116 78.9329 92.1491C78.6677 92.1823 78.4476 92.2131 78.2724 92.2415C77.8557 92.2936 77.4651 92.3812 77.1005 92.5043C76.7406 92.6274 76.44 92.8049 76.1985 93.0369C75.957 93.2642 75.8055 93.5672 75.744 93.946C75.6587 94.4716 75.7842 94.8693 76.1204 95.1392C76.4613 95.4044 76.9324 95.5369 77.5337 95.5369ZM85.0497 97L86.8679 86.0909H88.9205L88.6293 87.8239H88.7429C89.0365 87.2367 89.465 86.7751 90.0284 86.4389C90.5919 86.098 91.1932 85.9276 91.8324 85.9276C91.9697 85.9276 92.1259 85.9323 92.3011 85.9418C92.4763 85.9465 92.6184 85.9583 92.7273 85.9773L92.3864 88.0085C92.3059 87.9848 92.1591 87.9588 91.946 87.9304C91.733 87.8973 91.5128 87.8807 91.2855 87.8807C90.7884 87.8807 90.3267 87.9872 89.9006 88.2003C89.4744 88.4086 89.117 88.6998 88.8281 89.0739C88.5393 89.4432 88.3523 89.8646 88.267 90.3381L87.1733 97H85.0497ZM96.4435 97.2131C95.5581 97.2131 94.8076 96.9882 94.1921 96.5384C93.5813 96.0838 93.1481 95.4375 92.8924 94.5994C92.6415 93.7566 92.613 92.7457 92.8072 91.5668C93.006 90.3878 93.373 89.3793 93.908 88.5412C94.4431 87.7031 95.0917 87.0616 95.854 86.6165C96.6164 86.1714 97.4379 85.9489 98.3185 85.9489C98.9956 85.9489 99.5212 86.0625 99.8952 86.2898C100.274 86.5123 100.553 86.7727 100.733 87.071C100.913 87.3693 101.048 87.6321 101.138 87.8594H101.259L102.161 82.4545H104.284L101.87 97H99.7958L100.087 95.3026H99.9094C99.7437 95.5346 99.5141 95.7997 99.2205 96.098C98.9317 96.3963 98.5624 96.6567 98.1126 96.8793C97.6628 97.1018 97.1064 97.2131 96.4435 97.2131ZM97.1609 95.402C97.7717 95.402 98.3185 95.241 98.8015 94.919C99.2892 94.5923 99.694 94.1402 100.016 93.5625C100.343 92.9848 100.57 92.3125 100.698 91.5455C100.826 90.7879 100.823 90.125 100.691 89.5568C100.558 88.9886 100.302 88.5459 99.9237 88.2287C99.5449 87.9115 99.0453 87.7528 98.4251 87.7528C97.7859 87.7528 97.2295 87.9186 96.756 88.25C96.2826 88.5814 95.8943 89.0336 95.5913 89.6065C95.293 90.1795 95.0846 90.8258 94.9663 91.5455C94.8432 92.2746 94.8384 92.9304 94.9521 93.5128C95.0657 94.0952 95.3048 94.5568 95.6694 94.8977C96.034 95.2339 96.5311 95.402 97.1609 95.402Z" fill="black"/>
<path d="M5.46165 97H0.68892L3.10369 82.4545H7.89773C9.32765 82.4545 10.509 82.7528 11.4418 83.3494C12.3745 83.9413 13.0279 84.7888 13.402 85.892C13.776 86.9905 13.8352 88.3045 13.5795 89.8338C13.3333 91.33 12.8504 92.6132 12.1307 93.6832C11.4157 94.7486 10.4948 95.5677 9.3679 96.1406C8.241 96.7135 6.93892 97 5.46165 97ZM3.21023 95.0824H5.55398C6.66193 95.0824 7.62074 94.867 8.4304 94.4361C9.24479 94.0052 9.9053 93.3802 10.4119 92.5611C10.9186 91.742 11.2689 90.7453 11.4631 89.571C11.6525 88.4536 11.6359 87.509 11.4134 86.7372C11.1908 85.9607 10.7599 85.3736 10.1207 84.9759C9.48153 84.5734 8.63163 84.3722 7.57102 84.3722H4.97869L3.21023 95.0824ZM18.0984 97.2415C17.4071 97.2415 16.8034 97.1136 16.2873 96.858C15.7712 96.5975 15.39 96.2211 15.1438 95.7287C14.8976 95.2363 14.8337 94.6326 14.9521 93.9176C15.0562 93.3021 15.2598 92.7955 15.5629 92.3977C15.8706 92 16.2447 91.6851 16.685 91.4531C17.1254 91.2164 17.6036 91.0388 18.1197 90.9205C18.6358 90.8021 19.1566 90.7145 19.6822 90.6577C20.3451 90.5819 20.8825 90.518 21.2944 90.4659C21.7111 90.4138 22.0236 90.3333 22.2319 90.2244C22.4402 90.1108 22.5657 89.9261 22.6083 89.6705V89.6207C22.7077 89.0052 22.6178 88.527 22.3384 88.1861C22.0638 87.8404 21.5856 87.6676 20.9038 87.6676C20.1935 87.6676 19.5969 87.8239 19.114 88.1364C18.6358 88.4489 18.283 88.7992 18.0558 89.1875L16.1523 88.733C16.4933 88.0701 16.9265 87.535 17.4521 87.1278C17.9824 86.7159 18.5624 86.4176 19.1921 86.233C19.8219 86.0436 20.4658 85.9489 21.1239 85.9489C21.5595 85.9489 22.0117 86.0009 22.4805 86.1051C22.9492 86.2045 23.3754 86.3892 23.7589 86.6591C24.1471 86.929 24.436 87.3149 24.6254 87.8168C24.8147 88.3139 24.8432 88.9602 24.7106 89.7557L23.5103 97H21.4364L21.6921 95.5085H21.6069C21.427 95.7831 21.176 96.053 20.854 96.3182C20.5368 96.5833 20.1486 96.8035 19.6893 96.9787C19.23 97.1539 18.6997 97.2415 18.0984 97.2415ZM18.8228 95.5369C19.4147 95.5369 19.9379 95.4209 20.3924 95.1889C20.8517 94.9569 21.2234 94.6539 21.5075 94.2798C21.7915 93.901 21.9691 93.4962 22.0401 93.0653L22.2745 91.6591C22.1845 91.7348 22.0259 91.8035 21.7987 91.8651C21.5761 91.9266 21.3252 91.9811 21.0458 92.0284C20.7665 92.0758 20.4918 92.116 20.2219 92.1491C19.9568 92.1823 19.7366 92.2131 19.5614 92.2415C19.1448 92.2936 18.7541 92.3812 18.3896 92.5043C18.0297 92.6274 17.729 92.8049 17.4876 93.0369C17.2461 93.2642 17.0946 93.5672 17.033 93.946C16.9478 94.4716 17.0733 94.8693 17.4094 95.1392C17.7504 95.4044 18.2215 95.5369 18.8228 95.5369ZM35.8913 88.7543L33.9098 89.0952C33.8672 88.8442 33.7796 88.6075 33.647 88.3849C33.5192 88.1624 33.3227 87.9825 33.0575 87.8452C32.7924 87.7031 32.4396 87.6321 31.9993 87.6321C31.3885 87.6321 30.8535 87.7718 30.3942 88.0511C29.9396 88.3305 29.6792 88.6856 29.6129 89.1165C29.5514 89.4669 29.6342 89.7509 29.8615 89.9688C30.0888 90.1818 30.4889 90.3594 31.0618 90.5014L32.7379 90.8991C33.7038 91.1312 34.3951 91.4934 34.8118 91.9858C35.2332 92.4735 35.38 93.108 35.2521 93.8892C35.1432 94.5379 34.8591 95.1132 34.3999 95.6151C33.9453 96.117 33.3629 96.5099 32.6527 96.794C31.9425 97.0781 31.1518 97.2202 30.2805 97.2202C29.04 97.2202 28.0741 96.9574 27.3828 96.4318C26.6915 95.9063 26.3364 95.1629 26.3175 94.2017L28.4197 93.8892C28.4576 94.4242 28.6494 94.8291 28.995 95.1037C29.3454 95.3736 29.8307 95.5085 30.451 95.5085C31.1612 95.5133 31.7554 95.3641 32.2337 95.0611C32.7119 94.758 32.9841 94.3911 33.0504 93.9602C33.1072 93.6241 33.0315 93.3447 32.8232 93.1222C32.6196 92.8996 32.2597 92.7292 31.7436 92.6108L29.9822 92.206C28.9974 91.974 28.3014 91.5999 27.8942 91.0838C27.487 90.5677 27.3497 89.919 27.4822 89.1378C27.5864 88.4986 27.8563 87.9422 28.2919 87.4688C28.7322 86.9905 29.2886 86.6188 29.9609 86.3537C30.6333 86.0838 31.3767 85.9489 32.1911 85.9489C33.3795 85.9489 34.272 86.2045 34.8686 86.7159C35.4652 87.2225 35.8061 87.902 35.8913 88.7543ZM40.2575 90.5227L39.1921 97H37.0685L39.4833 82.4545H41.5785L40.6836 87.8665H40.8185C41.1642 87.2746 41.6282 86.8082 42.2106 86.4673C42.7977 86.1217 43.5174 85.9489 44.3697 85.9489C45.1178 85.9489 45.7451 86.1027 46.2518 86.4105C46.7631 86.7183 47.123 87.1776 47.3313 87.7884C47.5444 88.3944 47.5775 89.152 47.4308 90.0611L46.266 97H44.1424L45.2504 90.3168C45.3829 89.5166 45.2788 88.8963 44.9379 88.456C44.5969 88.0109 44.0643 87.7884 43.3398 87.7884C42.8332 87.7884 42.3645 87.8949 41.9336 88.108C41.5075 88.321 41.1476 88.6335 40.854 89.0455C40.5605 89.4527 40.3616 89.9451 40.2575 90.5227ZM49.2631 97L51.6779 82.4545H53.8015L52.9137 87.8594H53.0415C53.2025 87.6321 53.4227 87.3693 53.7021 87.071C53.9862 86.7727 54.3531 86.5123 54.8029 86.2898C55.2527 86.0625 55.8162 85.9489 56.4933 85.9489C57.3739 85.9489 58.122 86.1714 58.7376 86.6165C59.3531 87.0616 59.7887 87.7031 60.0444 88.5412C60.3001 89.3793 60.3308 90.3878 60.1367 91.5668C59.9426 92.7457 59.578 93.7566 59.043 94.5994C58.5127 95.4375 57.8664 96.0838 57.104 96.5384C56.3417 96.9882 55.5202 97.2131 54.6396 97.2131C53.9767 97.2131 53.4535 97.1018 53.07 96.8793C52.6912 96.6567 52.4071 96.3963 52.2177 96.098C52.033 95.7997 51.8933 95.5346 51.7987 95.3026H51.6211L51.337 97H49.2631ZM52.2532 91.5455C52.1301 92.3125 52.1301 92.9848 52.2532 93.5625C52.381 94.1402 52.6296 94.5923 52.9989 94.919C53.373 95.241 53.863 95.402 54.4691 95.402C55.1036 95.402 55.6623 95.2339 56.1452 94.8977C56.6282 94.5568 57.0259 94.0952 57.3384 93.5128C57.6509 92.9304 57.8687 92.2746 57.9918 91.5455C58.1055 90.8258 58.1031 90.1795 57.9847 89.6065C57.8664 89.0336 57.6201 88.5814 57.2461 88.25C56.8768 87.9186 56.3725 87.7528 55.7333 87.7528C55.1178 87.7528 54.5709 87.9115 54.0927 88.2287C53.6145 88.5459 53.2191 88.9886 52.9066 89.5568C52.5941 90.125 52.3763 90.7879 52.2532 91.5455ZM66.2571 97.2202C65.2202 97.2202 64.3537 96.9834 63.6577 96.5099C62.9616 96.0317 62.4716 95.3641 62.1875 94.5071C61.9081 93.6454 61.8608 92.6439 62.0455 91.5028C62.2254 90.3854 62.5876 89.41 63.1321 88.5767C63.6813 87.7434 64.3679 87.0971 65.1918 86.6378C66.0204 86.1785 66.9413 85.9489 67.9545 85.9489C68.9915 85.9489 69.8556 86.188 70.5469 86.6662C71.2429 87.1444 71.733 87.8144 72.017 88.6761C72.3011 89.5379 72.3509 90.5417 72.1662 91.6875C71.9863 92.7955 71.6193 93.7661 71.0653 94.5994C70.5161 95.428 69.8295 96.072 69.0057 96.5312C68.1818 96.9905 67.2656 97.2202 66.2571 97.2202ZM66.3778 95.4375C67.0597 95.4375 67.6539 95.2576 68.1605 94.8977C68.6719 94.5379 69.0885 94.0597 69.4105 93.4631C69.7325 92.8665 69.9527 92.2131 70.071 91.5028C70.1799 90.8163 70.1776 90.1889 70.0639 89.6207C69.955 89.0478 69.7183 88.5885 69.3537 88.2429C68.9891 87.8973 68.4825 87.7244 67.8338 87.7244C67.152 87.7244 66.553 87.9067 66.0369 88.2713C65.5256 88.6312 65.1089 89.1117 64.7869 89.7131C64.4697 90.3144 64.2543 90.9702 64.1406 91.6804C64.0317 92.3622 64.0317 92.9896 64.1406 93.5625C64.2495 94.1307 64.4863 94.5852 64.8509 94.9261C65.2154 95.267 65.7244 95.4375 66.3778 95.4375ZM76.8093 97.2415C76.118 97.2415 75.5143 97.1136 74.9982 96.858C74.4821 96.5975 74.101 96.2211 73.8548 95.7287C73.6085 95.2363 73.5446 94.6326 73.663 93.9176C73.7672 93.3021 73.9708 92.7955 74.2738 92.3977C74.5816 92 74.9556 91.6851 75.396 91.4531C75.8363 91.2164 76.3145 91.0388 76.8306 90.9205C77.3467 90.8021 77.8675 90.7145 78.3931 90.6577C79.056 90.5819 79.5934 90.518 80.0053 90.4659C80.422 90.4138 80.7345 90.3333 80.9428 90.2244C81.1512 90.1108 81.2766 89.9261 81.3192 89.6705V89.6207C81.4187 89.0052 81.3287 88.527 81.0494 88.1861C80.7747 87.8404 80.2965 87.6676 79.6147 87.6676C78.9045 87.6676 78.3079 87.8239 77.8249 88.1364C77.3467 88.4489 76.994 88.7992 76.7667 89.1875L74.8633 88.733C75.2042 88.0701 75.6374 87.535 76.163 87.1278C76.6933 86.7159 77.2733 86.4176 77.9031 86.233C78.5328 86.0436 79.1767 85.9489 79.8349 85.9489C80.2705 85.9489 80.7227 86.0009 81.1914 86.1051C81.6602 86.2045 82.0863 86.3892 82.4698 86.6591C82.8581 86.929 83.1469 87.3149 83.3363 87.8168C83.5257 88.3139 83.5541 88.9602 83.4215 89.7557L82.2212 97H80.1474L80.4031 95.5085H80.3178C80.1379 95.7831 79.887 96.053 79.565 96.3182C79.2478 96.5833 78.8595 96.8035 78.4002 96.9787C77.9409 97.1539 77.4106 97.2415 76.8093 97.2415ZM77.5337 95.5369C78.1256 95.5369 78.6488 95.4209 79.1033 95.1889C79.5626 94.9569 79.9343 94.6539 80.2184 94.2798C80.5025 93.901 80.68 93.4962 80.7511 93.0653L80.9854 91.6591C80.8955 91.7348 80.7369 91.8035 80.5096 91.8651C80.2871 91.9266 80.0361 91.9811 79.7567 92.0284C79.4774 92.0758 79.2028 92.116 78.9329 92.1491C78.6677 92.1823 78.4476 92.2131 78.2724 92.2415C77.8557 92.2936 77.4651 92.3812 77.1005 92.5043C76.7406 92.6274 76.44 92.8049 76.1985 93.0369C75.957 93.2642 75.8055 93.5672 75.744 93.946C75.6587 94.4716 75.7842 94.8693 76.1204 95.1392C76.4613 95.4044 76.9324 95.5369 77.5337 95.5369ZM85.0497 97L86.8679 86.0909H88.9205L88.6293 87.8239H88.7429C89.0365 87.2367 89.465 86.7751 90.0284 86.4389C90.5919 86.098 91.1932 85.9276 91.8324 85.9276C91.9697 85.9276 92.1259 85.9323 92.3011 85.9418C92.4763 85.9465 92.6184 85.9583 92.7273 85.9773L92.3864 88.0085C92.3059 87.9848 92.1591 87.9588 91.946 87.9304C91.733 87.8973 91.5128 87.8807 91.2855 87.8807C90.7884 87.8807 90.3267 87.9872 89.9006 88.2003C89.4744 88.4086 89.117 88.6998 88.8281 89.0739C88.5393 89.4432 88.3523 89.8646 88.267 90.3381L87.1733 97H85.0497ZM96.4435 97.2131C95.5581 97.2131 94.8076 96.9882 94.1921 96.5384C93.5813 96.0838 93.1481 95.4375 92.8924 94.5994C92.6415 93.7566 92.613 92.7457 92.8072 91.5668C93.006 90.3878 93.373 89.3793 93.908 88.5412C94.4431 87.7031 95.0917 87.0616 95.854 86.6165C96.6164 86.1714 97.4379 85.9489 98.3185 85.9489C98.9956 85.9489 99.5212 86.0625 99.8952 86.2898C100.274 86.5123 100.553 86.7727 100.733 87.071C100.913 87.3693 101.048 87.6321 101.138 87.8594H101.259L102.161 82.4545H104.284L101.87 97H99.7958L100.087 95.3026H99.9094C99.7437 95.5346 99.5141 95.7997 99.2205 96.098C98.9317 96.3963 98.5624 96.6567 98.1126 96.8793C97.6628 97.1018 97.1064 97.2131 96.4435 97.2131ZM97.1609 95.402C97.7717 95.402 98.3185 95.241 98.8015 94.919C99.2892 94.5923 99.694 94.1402 100.016 93.5625C100.343 92.9848 100.57 92.3125 100.698 91.5455C100.826 90.7879 100.823 90.125 100.691 89.5568C100.558 88.9886 100.302 88.5459 99.9237 88.2287C99.5449 87.9115 99.0453 87.7528 98.4251 87.7528C97.7859 87.7528 97.2295 87.9186 96.756 88.25C96.2826 88.5814 95.8943 89.0336 95.5913 89.6065C95.293 90.1795 95.0846 90.8258 94.9663 91.5455C94.8432 92.2746 94.8384 92.9304 94.9521 93.5128C95.0657 94.0952 95.3048 94.5568 95.6694 94.8977C96.034 95.2339 96.5311 95.402 97.1609 95.402Z" fill="black"/>
<path d="M5.46165 97H0.68892L3.10369 82.4545H7.89773C9.32765 82.4545 10.509 82.7528 11.4418 83.3494C12.3745 83.9413 13.0279 84.7888 13.402 85.892C13.776 86.9905 13.8352 88.3045 13.5795 89.8338C13.3333 91.33 12.8504 92.6132 12.1307 93.6832C11.4157 94.7486 10.4948 95.5677 9.3679 96.1406C8.241 96.7135 6.93892 97 5.46165 97ZM3.21023 95.0824H5.55398C6.66193 95.0824 7.62074 94.867 8.4304 94.4361C9.24479 94.0052 9.9053 93.3802 10.4119 92.5611C10.9186 91.742 11.2689 90.7453 11.4631 89.571C11.6525 88.4536 11.6359 87.509 11.4134 86.7372C11.1908 85.9607 10.7599 85.3736 10.1207 84.9759C9.48153 84.5734 8.63163 84.3722 7.57102 84.3722H4.97869L3.21023 95.0824ZM18.0984 97.2415C17.4071 97.2415 16.8034 97.1136 16.2873 96.858C15.7712 96.5975 15.39 96.2211 15.1438 95.7287C14.8976 95.2363 14.8337 94.6326 14.9521 93.9176C15.0562 93.3021 15.2598 92.7955 15.5629 92.3977C15.8706 92 16.2447 91.6851 16.685 91.4531C17.1254 91.2164 17.6036 91.0388 18.1197 90.9205C18.6358 90.8021 19.1566 90.7145 19.6822 90.6577C20.3451 90.5819 20.8825 90.518 21.2944 90.4659C21.7111 90.4138 22.0236 90.3333 22.2319 90.2244C22.4402 90.1108 22.5657 89.9261 22.6083 89.6705V89.6207C22.7077 89.0052 22.6178 88.527 22.3384 88.1861C22.0638 87.8404 21.5856 87.6676 20.9038 87.6676C20.1935 87.6676 19.5969 87.8239 19.114 88.1364C18.6358 88.4489 18.283 88.7992 18.0558 89.1875L16.1523 88.733C16.4933 88.0701 16.9265 87.535 17.4521 87.1278C17.9824 86.7159 18.5624 86.4176 19.1921 86.233C19.8219 86.0436 20.4658 85.9489 21.1239 85.9489C21.5595 85.9489 22.0117 86.0009 22.4805 86.1051C22.9492 86.2045 23.3754 86.3892 23.7589 86.6591C24.1471 86.929 24.436 87.3149 24.6254 87.8168C24.8147 88.3139 24.8432 88.9602 24.7106 89.7557L23.5103 97H21.4364L21.6921 95.5085H21.6069C21.427 95.7831 21.176 96.053 20.854 96.3182C20.5368 96.5833 20.1486 96.8035 19.6893 96.9787C19.23 97.1539 18.6997 97.2415 18.0984 97.2415ZM18.8228 95.5369C19.4147 95.5369 19.9379 95.4209 20.3924 95.1889C20.8517 94.9569 21.2234 94.6539 21.5075 94.2798C21.7915 93.901 21.9691 93.4962 22.0401 93.0653L22.2745 91.6591C22.1845 91.7348 22.0259 91.8035 21.7987 91.8651C21.5761 91.9266 21.3252 91.9811 21.0458 92.0284C20.7665 92.0758 20.4918 92.116 20.2219 92.1491C19.9568 92.1823 19.7366 92.2131 19.5614 92.2415C19.1448 92.2936 18.7541 92.3812 18.3896 92.5043C18.0297 92.6274 17.729 92.8049 17.4876 93.0369C17.2461 93.2642 17.0946 93.5672 17.033 93.946C16.9478 94.4716 17.0733 94.8693 17.4094 95.1392C17.7504 95.4044 18.2215 95.5369 18.8228 95.5369ZM35.8913 88.7543L33.9098 89.0952C33.8672 88.8442 33.7796 88.6075 33.647 88.3849C33.5192 88.1624 33.3227 87.9825 33.0575 87.8452C32.7924 87.7031 32.4396 87.6321 31.9993 87.6321C31.3885 87.6321 30.8535 87.7718 30.3942 88.0511C29.9396 88.3305 29.6792 88.6856 29.6129 89.1165C29.5514 89.4669 29.6342 89.7509 29.8615 89.9688C30.0888 90.1818 30.4889 90.3594 31.0618 90.5014L32.7379 90.8991C33.7038 91.1312 34.3951 91.4934 34.8118 91.9858C35.2332 92.4735 35.38 93.108 35.2521 93.8892C35.1432 94.5379 34.8591 95.1132 34.3999 95.6151C33.9453 96.117 33.3629 96.5099 32.6527 96.794C31.9425 97.0781 31.1518 97.2202 30.2805 97.2202C29.04 97.2202 28.0741 96.9574 27.3828 96.4318C26.6915 95.9063 26.3364 95.1629 26.3175 94.2017L28.4197 93.8892C28.4576 94.4242 28.6494 94.8291 28.995 95.1037C29.3454 95.3736 29.8307 95.5085 30.451 95.5085C31.1612 95.5133 31.7554 95.3641 32.2337 95.0611C32.7119 94.758 32.9841 94.3911 33.0504 93.9602C33.1072 93.6241 33.0315 93.3447 32.8232 93.1222C32.6196 92.8996 32.2597 92.7292 31.7436 92.6108L29.9822 92.206C28.9974 91.974 28.3014 91.5999 27.8942 91.0838C27.487 90.5677 27.3497 89.919 27.4822 89.1378C27.5864 88.4986 27.8563 87.9422 28.2919 87.4688C28.7322 86.9905 29.2886 86.6188 29.9609 86.3537C30.6333 86.0838 31.3767 85.9489 32.1911 85.9489C33.3795 85.9489 34.272 86.2045 34.8686 86.7159C35.4652 87.2225 35.8061 87.902 35.8913 88.7543ZM40.2575 90.5227L39.1921 97H37.0685L39.4833 82.4545H41.5785L40.6836 87.8665H40.8185C41.1642 87.2746 41.6282 86.8082 42.2106 86.4673C42.7977 86.1217 43.5174 85.9489 44.3697 85.9489C45.1178 85.9489 45.7451 86.1027 46.2518 86.4105C46.7631 86.7183 47.123 87.1776 47.3313 87.7884C47.5444 88.3944 47.5775 89.152 47.4308 90.0611L46.266 97H44.1424L45.2504 90.3168C45.3829 89.5166 45.2788 88.8963 44.9379 88.456C44.5969 88.0109 44.0643 87.7884 43.3398 87.7884C42.8332 87.7884 42.3645 87.8949 41.9336 88.108C41.5075 88.321 41.1476 88.6335 40.854 89.0455C40.5605 89.4527 40.3616 89.9451 40.2575 90.5227ZM49.2631 97L51.6779 82.4545H53.8015L52.9137 87.8594H53.0415C53.2025 87.6321 53.4227 87.3693 53.7021 87.071C53.9862 86.7727 54.3531 86.5123 54.8029 86.2898C55.2527 86.0625 55.8162 85.9489 56.4933 85.9489C57.3739 85.9489 58.122 86.1714 58.7376 86.6165C59.3531 87.0616 59.7887 87.7031 60.0444 88.5412C60.3001 89.3793 60.3308 90.3878 60.1367 91.5668C59.9426 92.7457 59.578 93.7566 59.043 94.5994C58.5127 95.4375 57.8664 96.0838 57.104 96.5384C56.3417 96.9882 55.5202 97.2131 54.6396 97.2131C53.9767 97.2131 53.4535 97.1018 53.07 96.8793C52.6912 96.6567 52.4071 96.3963 52.2177 96.098C52.033 95.7997 51.8933 95.5346 51.7987 95.3026H51.6211L51.337 97H49.2631ZM52.2532 91.5455C52.1301 92.3125 52.1301 92.9848 52.2532 93.5625C52.381 94.1402 52.6296 94.5923 52.9989 94.919C53.373 95.241 53.863 95.402 54.4691 95.402C55.1036 95.402 55.6623 95.2339 56.1452 94.8977C56.6282 94.5568 57.0259 94.0952 57.3384 93.5128C57.6509 92.9304 57.8687 92.2746 57.9918 91.5455C58.1055 90.8258 58.1031 90.1795 57.9847 89.6065C57.8664 89.0336 57.6201 88.5814 57.2461 88.25C56.8768 87.9186 56.3725 87.7528 55.7333 87.7528C55.1178 87.7528 54.5709 87.9115 54.0927 88.2287C53.6145 88.5459 53.2191 88.9886 52.9066 89.5568C52.5941 90.125 52.3763 90.7879 52.2532 91.5455ZM66.2571 97.2202C65.2202 97.2202 64.3537 96.9834 63.6577 96.5099C62.9616 96.0317 62.4716 95.3641 62.1875 94.5071C61.9081 93.6454 61.8608 92.6439 62.0455 91.5028C62.2254 90.3854 62.5876 89.41 63.1321 88.5767C63.6813 87.7434 64.3679 87.0971 65.1918 86.6378C66.0204 86.1785 66.9413 85.9489 67.9545 85.9489C68.9915 85.9489 69.8556 86.188 70.5469 86.6662C71.2429 87.1444 71.733 87.8144 72.017 88.6761C72.3011 89.5379 72.3509 90.5417 72.1662 91.6875C71.9863 92.7955 71.6193 93.7661 71.0653 94.5994C70.5161 95.428 69.8295 96.072 69.0057 96.5312C68.1818 96.9905 67.2656 97.2202 66.2571 97.2202ZM66.3778 95.4375C67.0597 95.4375 67.6539 95.2576 68.1605 94.8977C68.6719 94.5379 69.0885 94.0597 69.4105 93.4631C69.7325 92.8665 69.9527 92.2131 70.071 91.5028C70.1799 90.8163 70.1776 90.1889 70.0639 89.6207C69.955 89.0478 69.7183 88.5885 69.3537 88.2429C68.9891 87.8973 68.4825 87.7244 67.8338 87.7244C67.152 87.7244 66.553 87.9067 66.0369 88.2713C65.5256 88.6312 65.1089 89.1117 64.7869 89.7131C64.4697 90.3144 64.2543 90.9702 64.1406 91.6804C64.0317 92.3622 64.0317 92.9896 64.1406 93.5625C64.2495 94.1307 64.4863 94.5852 64.8509 94.9261C65.2154 95.267 65.7244 95.4375 66.3778 95.4375ZM76.8093 97.2415C76.118 97.2415 75.5143 97.1136 74.9982 96.858C74.4821 96.5975 74.101 96.2211 73.8548 95.7287C73.6085 95.2363 73.5446 94.6326 73.663 93.9176C73.7672 93.3021 73.9708 92.7955 74.2738 92.3977C74.5816 92 74.9556 91.6851 75.396 91.4531C75.8363 91.2164 76.3145 91.0388 76.8306 90.9205C77.3467 90.8021 77.8675 90.7145 78.3931 90.6577C79.056 90.5819 79.5934 90.518 80.0053 90.4659C80.422 90.4138 80.7345 90.3333 80.9428 90.2244C81.1512 90.1108 81.2766 89.9261 81.3192 89.6705V89.6207C81.4187 89.0052 81.3287 88.527 81.0494 88.1861C80.7747 87.8404 80.2965 87.6676 79.6147 87.6676C78.9045 87.6676 78.3079 87.8239 77.8249 88.1364C77.3467 88.4489 76.994 88.7992 76.7667 89.1875L74.8633 88.733C75.2042 88.0701 75.6374 87.535 76.163 87.1278C76.6933 86.7159 77.2733 86.4176 77.9031 86.233C78.5328 86.0436 79.1767 85.9489 79.8349 85.9489C80.2705 85.9489 80.7227 86.0009 81.1914 86.1051C81.6602 86.2045 82.0863 86.3892 82.4698 86.6591C82.8581 86.929 83.1469 87.3149 83.3363 87.8168C83.5257 88.3139 83.5541 88.9602 83.4215 89.7557L82.2212 97H80.1474L80.4031 95.5085H80.3178C80.1379 95.7831 79.887 96.053 79.565 96.3182C79.2478 96.5833 78.8595 96.8035 78.4002 96.9787C77.9409 97.1539 77.4106 97.2415 76.8093 97.2415ZM77.5337 95.5369C78.1256 95.5369 78.6488 95.4209 79.1033 95.1889C79.5626 94.9569 79.9343 94.6539 80.2184 94.2798C80.5025 93.901 80.68 93.4962 80.7511 93.0653L80.9854 91.6591C80.8955 91.7348 80.7369 91.8035 80.5096 91.8651C80.2871 91.9266 80.0361 91.9811 79.7567 92.0284C79.4774 92.0758 79.2028 92.116 78.9329 92.1491C78.6677 92.1823 78.4476 92.2131 78.2724 92.2415C77.8557 92.2936 77.4651 92.3812 77.1005 92.5043C76.7406 92.6274 76.44 92.8049 76.1985 93.0369C75.957 93.2642 75.8055 93.5672 75.744 93.946C75.6587 94.4716 75.7842 94.8693 76.1204 95.1392C76.4613 95.4044 76.9324 95.5369 77.5337 95.5369ZM85.0497 97L86.8679 86.0909H88.9205L88.6293 87.8239H88.7429C89.0365 87.2367 89.465 86.7751 90.0284 86.4389C90.5919 86.098 91.1932 85.9276 91.8324 85.9276C91.9697 85.9276 92.1259 85.9323 92.3011 85.9418C92.4763 85.9465 92.6184 85.9583 92.7273 85.9773L92.3864 88.0085C92.3059 87.9848 92.1591 87.9588 91.946 87.9304C91.733 87.8973 91.5128 87.8807 91.2855 87.8807C90.7884 87.8807 90.3267 87.9872 89.9006 88.2003C89.4744 88.4086 89.117 88.6998 88.8281 89.0739C88.5393 89.4432 88.3523 89.8646 88.267 90.3381L87.1733 97H85.0497ZM96.4435 97.2131C95.5581 97.2131 94.8076 96.9882 94.1921 96.5384C93.5813 96.0838 93.1481 95.4375 92.8924 94.5994C92.6415 93.7566 92.613 92.7457 92.8072 91.5668C93.006 90.3878 93.373 89.3793 93.908 88.5412C94.4431 87.7031 95.0917 87.0616 95.854 86.6165C96.6164 86.1714 97.4379 85.9489 98.3185 85.9489C98.9956 85.9489 99.5212 86.0625 99.8952 86.2898C100.274 86.5123 100.553 86.7727 100.733 87.071C100.913 87.3693 101.048 87.6321 101.138 87.8594H101.259L102.161 82.4545H104.284L101.87 97H99.7958L100.087 95.3026H99.9094C99.7437 95.5346 99.5141 95.7997 99.2205 96.098C98.9317 96.3963 98.5624 96.6567 98.1126 96.8793C97.6628 97.1018 97.1064 97.2131 96.4435 97.2131ZM97.1609 95.402C97.7717 95.402 98.3185 95.241 98.8015 94.919C99.2892 94.5923 99.694 94.1402 100.016 93.5625C100.343 92.9848 100.57 92.3125 100.698 91.5455C100.826 90.7879 100.823 90.125 100.691 89.5568C100.558 88.9886 100.302 88.5459 99.9237 88.2287C99.5449 87.9115 99.0453 87.7528 98.4251 87.7528C97.7859 87.7528 97.2295 87.9186 96.756 88.25C96.2826 88.5814 95.8943 89.0336 95.5913 89.6065C95.293 90.1795 95.0846 90.8258 94.9663 91.5455C94.8432 92.2746 94.8384 92.9304 94.9521 93.5128C95.0657 94.0952 95.3048 94.5568 95.6694 94.8977C96.034 95.2339 96.5311 95.402 97.1609 95.402Z" fill="black"/>
</svg>
