<svg width="156" height="102" viewBox="0 0 156 102" fill="none" xmlns="http://www.w3.org/2000/svg">
<path d="M78 31.5V66C71.6915 60 52.3715 60 43.5 60V27C62.4257 27 74.3857 30 78 31.5Z" stroke="#333333" stroke-width="2" stroke-linecap="round" stroke-linejoin="round"/>
<path d="M78 31.5V66C84.3085 60 103.629 60 112.5 60V27C93.5743 27 81.6143 30 78 31.5Z" stroke="#333333" stroke-width="2" stroke-linecap="round" stroke-linejoin="round"/>
<path d="M78 30C86.4684 30 93.3333 24.6274 93.3333 18C93.3333 11.3726 86.4684 6 78 6C69.5316 6 62.6667 11.3726 62.6667 18C62.6667 24.6274 69.5316 30 78 30Z" stroke="#333333" stroke-width="2"/>
<path d="M0.68892 97L3.10369 82.4545H5.2983L3.19602 95.1108H9.78693L9.47443 97H0.68892ZM11.8075 97L13.6257 86.0909H15.7493L13.9311 97H11.8075ZM15.1314 84.3864C14.7621 84.3864 14.4496 84.2633 14.1939 84.017C13.9429 83.7661 13.8269 83.4678 13.8459 83.1222C13.8648 82.7718 14.0116 82.4735 14.2862 82.2273C14.5608 81.9763 14.8804 81.8509 15.245 81.8509C15.6143 81.8509 15.9245 81.9763 16.1754 82.2273C16.4264 82.4735 16.5447 82.7718 16.5305 83.1222C16.5116 83.4678 16.3648 83.7661 16.0902 84.017C15.8203 84.2633 15.5007 84.3864 15.1314 84.3864ZM16.9585 97L19.3732 82.4545H21.4968L20.609 87.8594H20.7369C20.8978 87.6321 21.118 87.3693 21.3974 87.071C21.6815 86.7727 22.0484 86.5123 22.4982 86.2898C22.948 86.0625 23.5115 85.9489 24.1886 85.9489C25.0692 85.9489 25.8174 86.1714 26.4329 86.6165C27.0484 87.0616 27.484 87.7031 27.7397 88.5412C27.9954 89.3793 28.0262 90.3878 27.832 91.5668C27.6379 92.7457 27.2733 93.7566 26.7383 94.5994C26.208 95.4375 25.5617 96.0838 24.7994 96.5384C24.0371 96.9882 23.2156 97.2131 22.3349 97.2131C21.672 97.2131 21.1488 97.1018 20.7653 96.8793C20.3865 96.6567 20.1024 96.3963 19.913 96.098C19.7283 95.7997 19.5887 95.5346 19.494 95.3026H19.3164L19.0323 97H16.9585ZM19.9485 91.5455C19.8254 92.3125 19.8254 92.9848 19.9485 93.5625C20.0763 94.1402 20.3249 94.5923 20.6942 94.919C21.0683 95.241 21.5584 95.402 22.1644 95.402C22.7989 95.402 23.3576 95.2339 23.8406 94.8977C24.3235 94.5568 24.7212 94.0952 25.0337 93.5128C25.3462 92.9304 25.564 92.2746 25.6871 91.5455C25.8008 90.8258 25.7984 90.1795 25.68 89.6065C25.5617 89.0336 25.3155 88.5814 24.9414 88.25C24.5721 87.9186 24.0678 87.7528 23.4286 87.7528C22.8131 87.7528 22.2662 87.9115 21.788 88.2287C21.3098 88.5459 20.9144 88.9886 20.6019 89.5568C20.2894 90.125 20.0716 90.7879 19.9485 91.5455ZM29.3075 97L31.1257 86.0909H33.1783L32.8871 87.8239H33.0007C33.2943 87.2367 33.7228 86.7751 34.2862 86.4389C34.8497 86.098 35.451 85.9276 36.0902 85.9276C36.2275 85.9276 36.3838 85.9323 36.5589 85.9418C36.7341 85.9465 36.8762 85.9583 36.9851 85.9773L36.6442 88.0085C36.5637 87.9848 36.4169 87.9588 36.2038 87.9304C35.9908 87.8973 35.7706 87.8807 35.5433 87.8807C35.0462 87.8807 34.5845 87.9872 34.1584 88.2003C33.7322 88.4086 33.3748 88.6998 33.0859 89.0739C32.7971 89.4432 32.6101 89.8646 32.5249 90.3381L31.4311 97H29.3075ZM40.071 97.2415C39.3797 97.2415 38.776 97.1136 38.2599 96.858C37.7438 96.5975 37.3627 96.2211 37.1165 95.7287C36.8703 95.2363 36.8063 94.6326 36.9247 93.9176C37.0289 93.3021 37.2325 92.7955 37.5355 92.3977C37.8433 92 38.2173 91.6851 38.6577 91.4531C39.098 91.2164 39.5762 91.0388 40.0923 90.9205C40.6084 90.8021 41.1293 90.7145 41.6548 90.6577C42.3177 90.5819 42.8551 90.518 43.267 90.4659C43.6837 90.4138 43.9962 90.3333 44.2045 90.2244C44.4129 90.1108 44.5384 89.9261 44.581 89.6705V89.6207C44.6804 89.0052 44.5904 88.527 44.3111 88.1861C44.0365 87.8404 43.5582 87.6676 42.8764 87.6676C42.1662 87.6676 41.5696 87.8239 41.0866 88.1364C40.6084 88.4489 40.2557 88.7992 40.0284 89.1875L38.125 88.733C38.4659 88.0701 38.8991 87.535 39.4247 87.1278C39.955 86.7159 40.535 86.4176 41.1648 86.233C41.7945 86.0436 42.4384 85.9489 43.0966 85.9489C43.5322 85.9489 43.9844 86.0009 44.4531 86.1051C44.9219 86.2045 45.348 86.3892 45.7315 86.6591C46.1198 86.929 46.4086 87.3149 46.598 87.8168C46.7874 88.3139 46.8158 88.9602 46.6832 89.7557L45.483 97H43.4091L43.6648 95.5085H43.5795C43.3996 95.7831 43.1487 96.053 42.8267 96.3182C42.5095 96.5833 42.1212 96.8035 41.6619 96.9787C41.2027 97.1539 40.6723 97.2415 40.071 97.2415ZM40.7955 95.5369C41.3873 95.5369 41.9105 95.4209 42.3651 95.1889C42.8243 94.9569 43.196 94.6539 43.4801 94.2798C43.7642 93.901 43.9418 93.4962 44.0128 93.0653L44.2472 91.6591C44.1572 91.7348 43.9986 91.8035 43.7713 91.8651C43.5488 91.9266 43.2978 91.9811 43.0185 92.0284C42.7391 92.0758 42.4645 92.116 42.1946 92.1491C41.9295 92.1823 41.7093 92.2131 41.5341 92.2415C41.1174 92.2936 40.7268 92.3812 40.3622 92.5043C40.0024 92.6274 39.7017 92.8049 39.4602 93.0369C39.2188 93.2642 39.0672 93.5672 39.0057 93.946C38.9205 94.4716 39.0459 94.8693 39.3821 95.1392C39.723 95.4044 40.1941 95.5369 40.7955 95.5369ZM48.3114 97L50.1296 86.0909H52.1822L51.891 87.8239H52.0046C52.2982 87.2367 52.7267 86.7751 53.2901 86.4389C53.8536 86.098 54.4549 85.9276 55.0941 85.9276C55.2314 85.9276 55.3877 85.9323 55.5629 85.9418C55.738 85.9465 55.8801 85.9583 55.989 85.9773L55.6481 88.0085C55.5676 87.9848 55.4208 87.9588 55.2077 87.9304C54.9947 87.8973 54.7745 87.8807 54.5472 87.8807C54.0501 87.8807 53.5884 87.9872 53.1623 88.2003C52.7362 88.4086 52.3787 88.6998 52.0898 89.0739C51.801 89.4432 51.614 89.8646 51.5288 90.3381L50.435 97H48.3114ZM57.033 101.091C56.7111 101.091 56.4246 101.065 56.1737 101.013C55.9227 100.965 55.7357 100.913 55.6126 100.857L56.4222 99.1165C56.7963 99.2206 57.1301 99.2609 57.4237 99.2372C57.7219 99.2135 58.0013 99.0904 58.2617 98.8679C58.5221 98.6454 58.7873 98.295 59.0572 97.8168L59.4549 97.0994L57.3171 86.0909H59.5046L60.854 94.5781H60.9677L65.1438 86.0909H67.5089L60.9677 98.4418C60.6599 99.0289 60.3095 99.5166 59.9165 99.9048C59.5283 100.298 59.0927 100.594 58.6097 100.793C58.1315 100.991 57.6059 101.091 57.033 101.091ZM82.8445 86.3608C82.8492 85.6458 82.6172 85.099 82.1484 84.7202C81.6844 84.3414 81.0357 84.152 80.2024 84.152C79.6058 84.152 79.0732 84.2467 78.6044 84.4361C78.1404 84.6207 77.7616 84.8764 77.468 85.2031C77.1792 85.5251 77.0017 85.892 76.9354 86.304C76.8738 86.6496 76.9046 86.9479 77.0277 87.1989C77.1555 87.4498 77.3378 87.6605 77.5746 87.831C77.8161 87.9967 78.0812 88.1364 78.37 88.25C78.6589 88.3589 78.9382 88.4489 79.2081 88.5199L80.5717 88.8892C81.0121 89.0028 81.4595 89.1567 81.9141 89.3509C82.3686 89.545 82.7782 89.8007 83.1428 90.1179C83.5073 90.4351 83.7796 90.8281 83.9595 91.2969C84.1394 91.7656 84.175 92.3267 84.0661 92.9801C83.924 93.804 83.5902 94.5355 83.0646 95.1747C82.5391 95.8139 81.8454 96.3182 80.9837 96.6875C80.1219 97.0568 79.1229 97.2415 77.9865 97.2415C76.8975 97.2415 75.9813 97.0687 75.2379 96.723C74.4993 96.3774 73.9571 95.8873 73.6115 95.2528C73.2659 94.6136 73.1428 93.8561 73.2422 92.9801H75.451C75.3989 93.5057 75.4936 93.9437 75.7351 94.294C75.9813 94.6397 76.3269 94.8977 76.772 95.0682C77.2171 95.2339 77.7214 95.3168 78.2848 95.3168C78.9098 95.3168 79.4804 95.2197 79.9964 95.0256C80.5125 94.8267 80.9387 94.5521 81.2749 94.2017C81.611 93.8466 81.817 93.4323 81.8928 92.9588C81.9685 92.5279 81.907 92.1752 81.7081 91.9006C81.514 91.6259 81.2204 91.3987 80.8274 91.2188C80.4392 91.0388 79.9964 90.8802 79.4993 90.7429L77.8587 90.2741C76.746 89.9569 75.9032 89.4905 75.3303 88.875C74.7573 88.2595 74.5514 87.4451 74.7124 86.4318C74.8544 85.5937 75.2048 84.8622 75.7635 84.2372C76.3222 83.6122 77.0182 83.1269 77.8516 82.7812C78.6849 82.4309 79.5893 82.2557 80.5646 82.2557C81.5495 82.2557 82.3875 82.4309 83.0788 82.7812C83.7701 83.1316 84.2815 83.6146 84.6129 84.2301C84.9444 84.8456 85.0604 85.5559 84.9609 86.3608H82.8445ZM90.5238 97.2202C89.4537 97.2202 88.5683 96.9905 87.8675 96.5312C87.1715 96.0672 86.6838 95.4162 86.4045 94.5781C86.1251 93.7353 86.0801 92.7481 86.2695 91.6165C86.4542 90.4991 86.8259 89.5142 87.3846 88.6619C87.9433 87.8097 88.6393 87.1444 89.4727 86.6662C90.3107 86.188 91.2364 85.9489 92.2496 85.9489C92.8652 85.9489 93.4452 86.0507 93.9897 86.2543C94.5389 86.4579 95.0053 86.7775 95.3888 87.2131C95.7724 87.6487 96.0375 88.2145 96.1843 88.9105C96.3358 89.6018 96.3311 90.4422 96.1701 91.4318L96.0494 92.1847H87.3704L87.619 90.5938H94.2099C94.3093 90.035 94.2833 89.5402 94.1317 89.1094C93.9802 88.6738 93.7198 88.3305 93.3505 88.0795C92.9859 87.8286 92.5266 87.7031 91.9727 87.7031C91.4045 87.7031 90.8742 87.8523 90.3817 88.1506C89.8893 88.4489 89.4774 88.83 89.146 89.294C88.8192 89.7533 88.6133 90.2268 88.5281 90.7145L88.2795 92.1705C88.1564 92.9659 88.1777 93.6051 88.3434 94.0881C88.5138 94.571 88.8121 94.9214 89.2383 95.1392C89.6644 95.357 90.1971 95.4659 90.8363 95.4659C91.2482 95.4659 91.6294 95.4091 91.9798 95.2955C92.3349 95.1771 92.6497 95.0043 92.9244 94.777C93.199 94.545 93.4286 94.2562 93.6133 93.9105L95.5593 94.2727C95.2989 94.8646 94.9248 95.383 94.4371 95.8281C93.9495 96.2685 93.3742 96.6117 92.7113 96.858C92.0531 97.0994 91.324 97.2202 90.5238 97.2202ZM97.6278 97L99.446 86.0909H101.499L101.207 87.8239H101.321C101.615 87.2367 102.043 86.7751 102.607 86.4389C103.17 86.098 103.771 85.9276 104.411 85.9276C104.548 85.9276 104.704 85.9323 104.879 85.9418C105.054 85.9465 105.196 85.9583 105.305 85.9773L104.964 88.0085C104.884 87.9848 104.737 87.9588 104.524 87.9304C104.311 87.8973 104.091 87.8807 103.864 87.8807C103.366 87.8807 102.905 87.9872 102.479 88.2003C102.053 88.4086 101.695 88.6998 101.406 89.0739C101.117 89.4432 100.93 89.8646 100.845 90.3381L99.7514 97H97.6278ZM116.825 86.0909L111.051 97H108.778L106.634 86.0909H108.828L110.192 94.4858H110.305L114.46 86.0909H116.825ZM117.003 97L118.821 86.0909H120.945L119.126 97H117.003ZM120.327 84.3864C119.957 84.3864 119.645 84.2633 119.389 84.017C119.138 83.7661 119.022 83.4678 119.041 83.1222C119.06 82.7718 119.207 82.4735 119.482 82.2273C119.756 81.9763 120.076 81.8509 120.44 81.8509C120.81 81.8509 121.12 81.9763 121.371 82.2273C121.622 82.4735 121.74 82.7718 121.726 83.1222C121.707 83.4678 121.56 83.7661 121.286 84.017C121.016 84.2633 120.696 84.3864 120.327 84.3864ZM126.55 97.2202C125.489 97.2202 124.621 96.9811 123.944 96.5028C123.266 96.0199 122.795 95.3546 122.53 94.5071C122.265 93.6596 122.222 92.6889 122.402 91.5952C122.582 90.4872 122.949 89.5095 123.503 88.6619C124.062 87.8097 124.76 87.1444 125.598 86.6662C126.441 86.188 127.376 85.9489 128.404 85.9489C129.232 85.9489 129.945 86.1027 130.542 86.4105C131.138 86.7135 131.59 87.1397 131.898 87.6889C132.206 88.2382 132.338 88.8797 132.296 89.6136H130.229C130.196 89.1023 130.007 88.6619 129.661 88.2926C129.315 87.9233 128.806 87.7386 128.134 87.7386C127.542 87.7386 126.998 87.8949 126.5 88.2074C126.003 88.5152 125.584 88.9555 125.243 89.5284C124.902 90.0966 124.67 90.7689 124.547 91.5455C124.415 92.3409 124.422 93.0275 124.569 93.6051C124.715 94.1828 124.985 94.6302 125.378 94.9474C125.771 95.2647 126.266 95.4233 126.863 95.4233C127.27 95.4233 127.649 95.3499 127.999 95.2031C128.354 95.0516 128.667 94.8362 128.936 94.5568C129.211 94.2775 129.424 93.9413 129.576 93.5483H131.65C131.446 94.2538 131.105 94.8835 130.627 95.4375C130.153 95.9915 129.571 96.4271 128.88 96.7443C128.188 97.0616 127.412 97.2202 126.55 97.2202ZM138.004 97.2202C136.934 97.2202 136.049 96.9905 135.348 96.5312C134.652 96.0672 134.164 95.4162 133.885 94.5781C133.606 93.7353 133.561 92.7481 133.75 91.6165C133.935 90.4991 134.306 89.5142 134.865 88.6619C135.424 87.8097 136.12 87.1444 136.953 86.6662C137.791 86.188 138.717 85.9489 139.73 85.9489C140.346 85.9489 140.926 86.0507 141.47 86.2543C142.019 86.4579 142.486 86.7775 142.869 87.2131C143.253 87.6487 143.518 88.2145 143.665 88.9105C143.816 89.6018 143.812 90.4422 143.651 91.4318L143.53 92.1847H134.851L135.099 90.5938H141.69C141.79 90.035 141.764 89.5402 141.612 89.1094C141.461 88.6738 141.2 88.3305 140.831 88.0795C140.466 87.8286 140.007 87.7031 139.453 87.7031C138.885 87.7031 138.355 87.8523 137.862 88.1506C137.37 88.4489 136.958 88.83 136.626 89.294C136.3 89.7533 136.094 90.2268 136.009 90.7145L135.76 92.1705C135.637 92.9659 135.658 93.6051 135.824 94.0881C135.994 94.571 136.293 94.9214 136.719 95.1392C137.145 95.357 137.678 95.4659 138.317 95.4659C138.729 95.4659 139.11 95.4091 139.46 95.2955C139.815 95.1771 140.13 95.0043 140.405 94.777C140.679 94.545 140.909 94.2562 141.094 93.9105L143.04 94.2727C142.779 94.8646 142.405 95.383 141.918 95.8281C141.43 96.2685 140.855 96.6117 140.192 96.858C139.534 97.0994 138.804 97.2202 138.004 97.2202ZM154.661 88.7543L152.679 89.0952C152.637 88.8442 152.549 88.6075 152.417 88.3849C152.289 88.1624 152.092 87.9825 151.827 87.8452C151.562 87.7031 151.209 87.6321 150.769 87.6321C150.158 87.6321 149.623 87.7718 149.164 88.0511C148.709 88.3305 148.449 88.6856 148.382 89.1165C148.321 89.4669 148.404 89.7509 148.631 89.9688C148.858 90.1818 149.258 90.3594 149.831 90.5014L151.507 90.8991C152.473 91.1312 153.165 91.4934 153.581 91.9858C154.003 92.4735 154.15 93.108 154.022 93.8892C153.913 94.5379 153.629 95.1132 153.169 95.6151C152.715 96.117 152.132 96.5099 151.422 96.794C150.712 97.0781 149.921 97.2202 149.05 97.2202C147.81 97.2202 146.844 96.9574 146.152 96.4318C145.461 95.9063 145.106 95.1629 145.087 94.2017L147.189 93.8892C147.227 94.4242 147.419 94.8291 147.765 95.1037C148.115 95.3736 148.6 95.5085 149.221 95.5085C149.931 95.5133 150.525 95.3641 151.003 95.0611C151.481 94.758 151.754 94.3911 151.82 93.9602C151.877 93.6241 151.801 93.3447 151.593 93.1222C151.389 92.8996 151.029 92.7292 150.513 92.6108L148.752 92.206C147.767 91.974 147.071 91.5999 146.664 91.0838C146.257 90.5677 146.119 89.919 146.252 89.1378C146.356 88.4986 146.626 87.9422 147.061 87.4688C147.502 86.9905 148.058 86.6188 148.73 86.3537C149.403 86.0838 150.146 85.9489 150.961 85.9489C152.149 85.9489 153.042 86.2045 153.638 86.7159C154.235 87.2225 154.576 87.902 154.661 88.7543Z" fill="black"/>
</svg>
