<svg width="124" height="102" viewBox="0 0 124 102" fill="none" xmlns="http://www.w3.org/2000/svg">
<path d="M42.8333 6V66" stroke="#333333" stroke-width="2" stroke-linecap="round" stroke-linejoin="round"/>
<path d="M31.3333 7.5V22.5C31.3333 30 42.8333 30 42.8333 30C42.8333 30 54.3333 30 54.3333 22.5V7.5" stroke="#333333" stroke-width="2" stroke-linecap="round" stroke-linejoin="round"/>
<path d="M88.8333 31.5H73.5V18C73.5 6 88.8333 6 88.8333 6V31.5ZM88.8333 31.5V66" stroke="#333333" stroke-width="2" stroke-linecap="round" stroke-linejoin="round"/>
<path d="M0.68892 97L3.10369 82.4545H5.2983L3.19602 95.1108H9.78693L9.47443 97H0.68892ZM11.8075 97L13.6257 86.0909H15.7493L13.9311 97H11.8075ZM15.1314 84.3864C14.7621 84.3864 14.4496 84.2633 14.1939 84.017C13.9429 83.7661 13.8269 83.4678 13.8459 83.1222C13.8648 82.7718 14.0116 82.4735 14.2862 82.2273C14.5608 81.9763 14.8804 81.8509 15.245 81.8509C15.6143 81.8509 15.9245 81.9763 16.1754 82.2273C16.4264 82.4735 16.5447 82.7718 16.5305 83.1222C16.5116 83.4678 16.3648 83.7661 16.0902 84.017C15.8203 84.2633 15.5007 84.3864 15.1314 84.3864ZM23.7979 86.0909L23.521 87.7955H17.3562L17.6332 86.0909H23.7979ZM17.5053 97L19.5366 84.8267C19.6407 84.1449 19.8799 83.5791 20.2539 83.1293C20.628 82.6747 21.0801 82.3362 21.6104 82.1136C22.1407 81.8864 22.6947 81.7727 23.2724 81.7727C23.6985 81.7727 24.056 81.8082 24.3448 81.8793C24.6384 81.9455 24.8514 82.0071 24.984 82.0639L24.2099 83.7827C24.1152 83.7543 23.9944 83.7211 23.8477 83.6832C23.7009 83.6406 23.5162 83.6193 23.2937 83.6193C22.7776 83.6193 22.387 83.7472 22.1218 84.0028C21.8614 84.2585 21.6862 84.6278 21.5962 85.1108L19.6289 97H17.5053ZM28.4144 97.2202C27.3443 97.2202 26.4589 96.9905 25.7582 96.5312C25.0621 96.0672 24.5745 95.4162 24.2951 94.5781C24.0157 93.7353 23.9708 92.7481 24.1602 91.6165C24.3448 90.4991 24.7165 89.5142 25.2752 88.6619C25.8339 87.8097 26.5299 87.1444 27.3633 86.6662C28.2013 86.188 29.127 85.9489 30.1403 85.9489C30.7558 85.9489 31.3358 86.0507 31.8803 86.2543C32.4296 86.4579 32.896 86.7775 33.2795 87.2131C33.663 87.6487 33.9281 88.2145 34.0749 88.9105C34.2264 89.6018 34.2217 90.4422 34.0607 91.4318L33.94 92.1847H25.261L25.5096 90.5938H32.1005C32.1999 90.035 32.1739 89.5402 32.0224 89.1094C31.8709 88.6738 31.6104 88.3305 31.2411 88.0795C30.8765 87.8286 30.4173 87.7031 29.8633 87.7031C29.2951 87.7031 28.7648 87.8523 28.2724 88.1506C27.7799 88.4489 27.368 88.83 27.0366 89.294C26.7099 89.7533 26.5039 90.2268 26.4187 90.7145L26.1701 92.1705C26.047 92.9659 26.0683 93.6051 26.234 94.0881C26.4045 94.571 26.7028 94.9214 27.1289 95.1392C27.555 95.357 28.0877 95.4659 28.7269 95.4659C29.1388 95.4659 29.52 95.4091 29.8704 95.2955C30.2255 95.1771 30.5404 95.0043 30.815 94.777C31.0896 94.545 31.3192 94.2562 31.5039 93.9105L33.4499 94.2727C33.1895 94.8646 32.8155 95.383 32.3278 95.8281C31.8401 96.2685 31.2648 96.6117 30.6019 96.858C29.9438 97.0994 29.2146 97.2202 28.4144 97.2202ZM50.6765 86.3608C50.6812 85.6458 50.4492 85.099 49.9805 84.7202C49.5165 84.3414 48.8678 84.152 48.0344 84.152C47.4379 84.152 46.9052 84.2467 46.4364 84.4361C45.9724 84.6207 45.5936 84.8764 45.3001 85.2031C45.0112 85.5251 44.8337 85.892 44.7674 86.304C44.7058 86.6496 44.7366 86.9479 44.8597 87.1989C44.9876 87.4498 45.1699 87.6605 45.4066 87.831C45.6481 87.9967 45.9132 88.1364 46.2021 88.25C46.4909 88.3589 46.7702 88.4489 47.0401 88.5199L48.4038 88.8892C48.8441 89.0028 49.2915 89.1567 49.7461 89.3509C50.2006 89.545 50.6102 89.8007 50.9748 90.1179C51.3394 90.4351 51.6116 90.8281 51.7915 91.2969C51.9715 91.7656 52.007 92.3267 51.8981 92.9801C51.756 93.804 51.4222 94.5355 50.8967 95.1747C50.3711 95.8139 49.6774 96.3182 48.8157 96.6875C47.954 97.0568 46.9549 97.2415 45.8185 97.2415C44.7295 97.2415 43.8133 97.0687 43.07 96.723C42.3313 96.3774 41.7892 95.8873 41.4435 95.2528C41.0979 94.6136 40.9748 93.8561 41.0742 92.9801H43.283C43.2309 93.5057 43.3256 93.9437 43.5671 94.294C43.8133 94.6397 44.159 94.8977 44.604 95.0682C45.0491 95.2339 45.5534 95.3168 46.1168 95.3168C46.7418 95.3168 47.3124 95.2197 47.8285 95.0256C48.3446 94.8267 48.7707 94.5521 49.1069 94.2017C49.4431 93.8466 49.649 93.4323 49.7248 92.9588C49.8005 92.5279 49.739 92.1752 49.5401 91.9006C49.346 91.6259 49.0524 91.3987 48.6594 91.2188C48.2712 91.0388 47.8285 90.8802 47.3313 90.7429L45.6907 90.2741C44.578 89.9569 43.7352 89.4905 43.1623 88.875C42.5894 88.2595 42.3834 87.4451 42.5444 86.4318C42.6864 85.5937 43.0368 84.8622 43.5955 84.2372C44.1542 83.6122 44.8503 83.1269 45.6836 82.7812C46.5169 82.4309 47.4213 82.2557 48.3967 82.2557C49.3815 82.2557 50.2196 82.4309 50.9109 82.7812C51.6022 83.1316 52.1135 83.6146 52.445 84.2301C52.7764 84.8456 52.8924 85.5559 52.793 86.3608H50.6765ZM58.3558 97.2202C57.2857 97.2202 56.4003 96.9905 55.6996 96.5312C55.0036 96.0672 54.5159 95.4162 54.2365 94.5781C53.9571 93.7353 53.9122 92.7481 54.1016 91.6165C54.2862 90.4991 54.6579 89.5142 55.2166 88.6619C55.7753 87.8097 56.4714 87.1444 57.3047 86.6662C58.1428 86.188 59.0684 85.9489 60.0817 85.9489C60.6972 85.9489 61.2772 86.0507 61.8217 86.2543C62.371 86.4579 62.8374 86.7775 63.2209 87.2131C63.6044 87.6487 63.8696 88.2145 64.0163 88.9105C64.1679 89.6018 64.1631 90.4422 64.0021 91.4318L63.8814 92.1847H55.2024L55.451 90.5938H62.0419C62.1413 90.035 62.1153 89.5402 61.9638 89.1094C61.8123 88.6738 61.5518 88.3305 61.1825 88.0795C60.8179 87.8286 60.3587 87.7031 59.8047 87.7031C59.2365 87.7031 58.7062 87.8523 58.2138 88.1506C57.7214 88.4489 57.3094 88.83 56.978 89.294C56.6513 89.7533 56.4453 90.2268 56.3601 90.7145L56.1115 92.1705C55.9884 92.9659 56.0097 93.6051 56.1754 94.0881C56.3459 94.571 56.6442 94.9214 57.0703 95.1392C57.4964 95.357 58.0291 95.4659 58.6683 95.4659C59.0803 95.4659 59.4614 95.4091 59.8118 95.2955C60.1669 95.1771 60.4818 95.0043 60.7564 94.777C61.031 94.545 61.2607 94.2562 61.4453 93.9105L63.3913 94.2727C63.1309 94.8646 62.7569 95.383 62.2692 95.8281C61.7815 96.2685 61.2062 96.6117 60.5433 96.858C59.8852 97.0994 59.156 97.2202 58.3558 97.2202ZM65.4599 97L67.2781 86.0909H69.3306L69.0394 87.8239H69.1531C69.4466 87.2367 69.8751 86.7751 70.4386 86.4389C71.002 86.098 71.6033 85.9276 72.2425 85.9276C72.3799 85.9276 72.5361 85.9323 72.7113 85.9418C72.8865 85.9465 73.0285 85.9583 73.1374 85.9773L72.7965 88.0085C72.716 87.9848 72.5692 87.9588 72.3562 87.9304C72.1431 87.8973 71.9229 87.8807 71.6957 87.8807C71.1985 87.8807 70.7369 87.9872 70.3107 88.2003C69.8846 88.4086 69.5271 88.6998 69.2383 89.0739C68.9495 89.4432 68.7624 89.8646 68.6772 90.3381L67.5835 97H65.4599ZM84.6573 86.0909L78.8832 97H76.6104L74.4656 86.0909H76.6602L78.0238 94.4858H78.1374L82.2923 86.0909H84.6573ZM84.8349 97L86.6531 86.0909H88.7766L86.9585 97H84.8349ZM88.1587 84.3864C87.7894 84.3864 87.4769 84.2633 87.2212 84.017C86.9703 83.7661 86.8543 83.4678 86.8732 83.1222C86.8922 82.7718 87.0389 82.4735 87.3136 82.2273C87.5882 81.9763 87.9078 81.8509 88.2724 81.8509C88.6417 81.8509 88.9518 81.9763 89.2028 82.2273C89.4537 82.4735 89.5721 82.7718 89.5579 83.1222C89.5389 83.4678 89.3922 83.7661 89.1175 84.017C88.8477 84.2633 88.5281 84.3864 88.1587 84.3864ZM94.3821 97.2202C93.3215 97.2202 92.4527 96.9811 91.7756 96.5028C91.0985 96.0199 90.6274 95.3546 90.3622 94.5071C90.0971 93.6596 90.0545 92.6889 90.2344 91.5952C90.4143 90.4872 90.7813 89.5095 91.3352 88.6619C91.8939 87.8097 92.5923 87.1444 93.4304 86.6662C94.2732 86.188 95.2083 85.9489 96.2358 85.9489C97.0644 85.9489 97.777 86.1027 98.3736 86.4105C98.9702 86.7135 99.4223 87.1397 99.7301 87.6889C100.038 88.2382 100.17 88.8797 100.128 89.6136H98.0611C98.0279 89.1023 97.8385 88.6619 97.4929 88.2926C97.1473 87.9233 96.6383 87.7386 95.9659 87.7386C95.3741 87.7386 94.8295 87.8949 94.3324 88.2074C93.8352 88.5152 93.4162 88.9555 93.0753 89.5284C92.7344 90.0966 92.5024 90.7689 92.3793 91.5455C92.2467 92.3409 92.2538 93.0275 92.4006 93.6051C92.5473 94.1828 92.8172 94.6302 93.2102 94.9474C93.6032 95.2647 94.098 95.4233 94.6946 95.4233C95.1018 95.4233 95.4806 95.3499 95.831 95.2031C96.1861 95.0516 96.4986 94.8362 96.7685 94.5568C97.0431 94.2775 97.2562 93.9413 97.4077 93.5483H99.4815C99.2779 94.2538 98.937 94.8835 98.4588 95.4375C97.9853 95.9915 97.4029 96.4271 96.7116 96.7443C96.0204 97.0616 95.2438 97.2202 94.3821 97.2202ZM105.836 97.2202C104.766 97.2202 103.881 96.9905 103.18 96.5312C102.484 96.0672 101.996 95.4162 101.717 94.5781C101.438 93.7353 101.393 92.7481 101.582 91.6165C101.767 90.4991 102.138 89.5142 102.697 88.6619C103.256 87.8097 103.952 87.1444 104.785 86.6662C105.623 86.188 106.549 85.9489 107.562 85.9489C108.178 85.9489 108.758 86.0507 109.302 86.2543C109.851 86.4579 110.318 86.7775 110.701 87.2131C111.085 87.6487 111.35 88.2145 111.497 88.9105C111.648 89.6018 111.644 90.4422 111.483 91.4318L111.362 92.1847H102.683L102.931 90.5938H109.522C109.622 90.035 109.596 89.5402 109.444 89.1094C109.293 88.6738 109.032 88.3305 108.663 88.0795C108.298 87.8286 107.839 87.7031 107.285 87.7031C106.717 87.7031 106.187 87.8523 105.694 88.1506C105.202 88.4489 104.79 88.83 104.458 89.294C104.132 89.7533 103.926 90.2268 103.841 90.7145L103.592 92.1705C103.469 92.9659 103.49 93.6051 103.656 94.0881C103.826 94.571 104.125 94.9214 104.551 95.1392C104.977 95.357 105.51 95.4659 106.149 95.4659C106.561 95.4659 106.942 95.4091 107.292 95.2955C107.647 95.1771 107.962 95.0043 108.237 94.777C108.511 94.545 108.741 94.2562 108.926 93.9105L110.872 94.2727C110.611 94.8646 110.237 95.383 109.75 95.8281C109.262 96.2685 108.687 96.6117 108.024 96.858C107.366 97.0994 106.636 97.2202 105.836 97.2202ZM122.493 88.7543L120.511 89.0952C120.469 88.8442 120.381 88.6075 120.249 88.3849C120.121 88.1624 119.924 87.9825 119.659 87.8452C119.394 87.7031 119.041 87.6321 118.601 87.6321C117.99 87.6321 117.455 87.7718 116.996 88.0511C116.541 88.3305 116.281 88.6856 116.214 89.1165C116.153 89.4669 116.236 89.7509 116.463 89.9688C116.69 90.1818 117.09 90.3594 117.663 90.5014L119.339 90.8991C120.305 91.1312 120.997 91.4934 121.413 91.9858C121.835 92.4735 121.982 93.108 121.854 93.8892C121.745 94.5379 121.461 95.1132 121.001 95.6151C120.547 96.117 119.964 96.5099 119.254 96.794C118.544 97.0781 117.753 97.2202 116.882 97.2202C115.642 97.2202 114.676 96.9574 113.984 96.4318C113.293 95.9063 112.938 95.1629 112.919 94.2017L115.021 93.8892C115.059 94.4242 115.251 94.8291 115.597 95.1037C115.947 95.3736 116.432 95.5085 117.053 95.5085C117.763 95.5133 118.357 95.3641 118.835 95.0611C119.313 94.758 119.586 94.3911 119.652 93.9602C119.709 93.6241 119.633 93.3447 119.425 93.1222C119.221 92.8996 118.861 92.7292 118.345 92.6108L116.584 92.206C115.599 91.974 114.903 91.5999 114.496 91.0838C114.089 90.5677 113.951 89.919 114.084 89.1378C114.188 88.4986 114.458 87.9422 114.893 87.4688C115.334 86.9905 115.89 86.6188 116.562 86.3537C117.235 86.0838 117.978 85.9489 118.793 85.9489C119.981 85.9489 120.874 86.2045 121.47 86.7159C122.067 87.2225 122.408 87.902 122.493 88.7543Z" fill="black"/>
</svg>
