<svg width="217" height="103" viewBox="0 0 217 103" fill="none" xmlns="http://www.w3.org/2000/svg">
<path d="M146.333 24.3333C146.333 34.4125 136.036 42.5833 123.333 42.5833C119.449 42.5833 115.789 41.8191 112.58 40.47L79.25 66.9167L69.6667 59.3125L102.997 32.8658C101.296 30.3195 100.333 27.4156 100.333 24.3333C100.333 14.2541 110.631 6.08333 123.333 6.08333C127.218 6.08333 130.878 6.84748 134.087 8.19667L119.5 19.7708L129.083 27.375L143.67 15.8008C145.37 18.3472 146.333 21.2511 146.333 24.3333Z" stroke="#333333" stroke-width="2" stroke-linecap="round" stroke-linejoin="round"/>
<path d="M0.68892 98L3.10369 83.4545H5.2983L3.19602 96.1108H9.78693L9.47443 98H0.68892ZM16.4524 98.2202C15.4155 98.2202 14.549 97.9834 13.853 97.5099C13.157 97.0317 12.6669 96.3641 12.3828 95.5071C12.1035 94.6454 12.0561 93.6439 12.2408 92.5028C12.4207 91.3854 12.7829 90.41 13.3274 89.5767C13.8767 88.7434 14.5632 88.0971 15.3871 87.6378C16.2157 87.1785 17.1366 86.9489 18.1499 86.9489C19.1868 86.9489 20.0509 87.188 20.7422 87.6662C21.4382 88.1444 21.9283 88.8144 22.2124 89.6761C22.4964 90.5379 22.5462 91.5417 22.3615 92.6875C22.1816 93.7955 21.8146 94.7661 21.2607 95.5994C20.7114 96.428 20.0249 97.072 19.201 97.5312C18.3771 97.9905 17.4609 98.2202 16.4524 98.2202ZM16.5732 96.4375C17.255 96.4375 17.8492 96.2576 18.3558 95.8977C18.8672 95.5379 19.2839 95.0597 19.6058 94.4631C19.9278 93.8665 20.148 93.2131 20.2663 92.5028C20.3752 91.8163 20.3729 91.1889 20.2592 90.6207C20.1503 90.0478 19.9136 89.5885 19.549 89.2429C19.1844 88.8973 18.6778 88.7244 18.0291 88.7244C17.3473 88.7244 16.7483 88.9067 16.2322 89.2713C15.7209 89.6312 15.3042 90.1117 14.9822 90.7131C14.665 91.3144 14.4496 91.9702 14.3359 92.6804C14.227 93.3622 14.227 93.9896 14.3359 94.5625C14.4448 95.1307 14.6816 95.5852 15.0462 95.9261C15.4107 96.267 15.9197 96.4375 16.5732 96.4375ZM27.7504 102.318C26.8791 102.318 26.15 102.205 25.5629 101.977C24.9805 101.75 24.5212 101.449 24.185 101.075C23.8536 100.701 23.6239 100.292 23.4961 99.8466L25.4563 99.0938C25.551 99.3021 25.6836 99.5223 25.854 99.7543C26.0245 99.991 26.2778 100.192 26.614 100.358C26.9549 100.524 27.4213 100.607 28.0131 100.607C28.8181 100.607 29.5212 100.41 30.1225 100.017C30.7238 99.6288 31.0955 99.0085 31.2376 98.1562L31.5714 96.0114H31.4364C31.2754 96.2434 31.0529 96.5014 30.7688 96.7855C30.4847 97.0696 30.1178 97.3158 29.668 97.5241C29.2182 97.7325 28.6594 97.8366 27.9918 97.8366C27.1301 97.8366 26.3867 97.6354 25.7617 97.233C25.1415 96.8258 24.6964 96.2268 24.4265 95.4361C24.1566 94.6406 24.1187 93.6629 24.3129 92.5028C24.5022 91.3428 24.8621 90.3485 25.3924 89.5199C25.9274 88.6913 26.5761 88.0568 27.3384 87.6165C28.1055 87.1714 28.927 86.9489 29.8029 86.9489C30.48 86.9489 31.0079 87.0625 31.3867 87.2898C31.7702 87.5123 32.0543 87.7727 32.239 88.071C32.4237 88.3693 32.5586 88.6321 32.6438 88.8594H32.8001L33.0913 87.0909H35.1722L33.3256 98.2415C33.1741 99.179 32.8308 99.9484 32.2958 100.55C31.7655 101.151 31.105 101.596 30.3143 101.885C29.5283 102.174 28.6737 102.318 27.7504 102.318ZM28.7163 96.0753C29.3223 96.0753 29.8621 95.9332 30.3356 95.6491C30.8138 95.3603 31.2115 94.9484 31.5288 94.4134C31.846 93.8736 32.0662 93.2273 32.1893 92.4744C32.3124 91.7405 32.3053 91.0942 32.168 90.5355C32.0354 89.9768 31.7773 89.5412 31.3938 89.2287C31.015 88.9115 30.5202 88.7528 29.9094 88.7528C29.2655 88.7528 28.7068 88.9186 28.2333 89.25C27.7598 89.5767 27.3739 90.0218 27.0756 90.5852C26.7821 91.1487 26.5761 91.7784 26.4577 92.4744C26.3441 93.1894 26.3465 93.8168 26.4648 94.3565C26.5879 94.8963 26.8342 95.3177 27.2035 95.6207C27.5728 95.9238 28.0771 96.0753 28.7163 96.0753ZM36.2021 98L38.0202 87.0909H40.1438L38.3256 98H36.2021ZM39.5259 85.3864C39.1566 85.3864 38.8441 85.2633 38.5884 85.017C38.3375 84.7661 38.2215 84.4678 38.2404 84.1222C38.2594 83.7718 38.4061 83.4735 38.6808 83.2273C38.9554 82.9763 39.275 82.8509 39.6396 82.8509C40.0089 82.8509 40.319 82.9763 40.57 83.2273C40.8209 83.4735 40.9393 83.7718 40.9251 84.1222C40.9061 84.4678 40.7594 84.7661 40.4847 85.017C40.2148 85.2633 39.8952 85.3864 39.5259 85.3864ZM50.7351 89.7543L48.7536 90.0952C48.7109 89.8442 48.6233 89.6075 48.4908 89.3849C48.3629 89.1624 48.1664 88.9825 47.9013 88.8452C47.6361 88.7031 47.2834 88.6321 46.843 88.6321C46.2322 88.6321 45.6972 88.7718 45.2379 89.0511C44.7834 89.3305 44.523 89.6856 44.4567 90.1165C44.3951 90.4669 44.478 90.7509 44.7053 90.9688C44.9325 91.1818 45.3326 91.3594 45.9055 91.5014L47.5817 91.8991C48.5476 92.1312 49.2389 92.4934 49.6555 92.9858C50.0769 93.4735 50.2237 94.108 50.0959 94.8892C49.987 95.5379 49.7029 96.1132 49.2436 96.6151C48.7891 97.117 48.2067 97.5099 47.4964 97.794C46.7862 98.0781 45.9955 98.2202 45.1243 98.2202C43.8838 98.2202 42.9179 97.9574 42.2266 97.4318C41.5353 96.9063 41.1802 96.1629 41.1612 95.2017L43.2635 94.8892C43.3014 95.4242 43.4931 95.8291 43.8388 96.1037C44.1892 96.3736 44.6745 96.5085 45.2947 96.5085C46.005 96.5133 46.5992 96.3641 47.0774 96.0611C47.5556 95.758 47.8279 95.3911 47.8942 94.9602C47.951 94.6241 47.8752 94.3447 47.6669 94.1222C47.4633 93.8996 47.1035 93.7292 46.5874 93.6108L44.826 93.206C43.8411 92.974 43.1451 92.5999 42.7379 92.0838C42.3307 91.5677 42.1934 90.919 42.326 90.1378C42.4302 89.4986 42.7 88.9422 43.1357 88.4688C43.576 87.9905 44.1323 87.6188 44.8047 87.3537C45.477 87.0838 46.2204 86.9489 47.0348 86.9489C48.2232 86.9489 49.1158 87.2045 49.7124 87.7159C50.3089 88.2225 50.6499 88.902 50.7351 89.7543ZM58.8157 87.0909L58.5387 88.7955H52.5799L52.8569 87.0909H58.8157ZM54.881 84.4773H57.0046L55.2859 94.7969C55.2196 95.2088 55.2314 95.5189 55.3214 95.7273C55.4113 95.9309 55.5487 96.0705 55.7333 96.1463C55.9227 96.2173 56.1334 96.2528 56.3654 96.2528C56.5359 96.2528 56.685 96.241 56.8129 96.2173C56.9407 96.1937 57.0425 96.1747 57.1183 96.1605L57.2319 97.9148C57.0898 97.9621 56.8981 98.0095 56.6566 98.0568C56.4199 98.1089 56.131 98.1373 55.7901 98.142C55.2314 98.1515 54.7272 98.0521 54.2773 97.8438C53.8275 97.6307 53.4914 97.3087 53.2688 96.8778C53.0463 96.4422 52.9918 95.8954 53.1055 95.2372L54.881 84.4773ZM59.3466 98L61.1648 87.0909H63.2884L61.4702 98H59.3466ZM62.6705 85.3864C62.3011 85.3864 61.9886 85.2633 61.733 85.017C61.482 84.7661 61.366 84.4678 61.3849 84.1222C61.4039 83.7718 61.5507 83.4735 61.8253 83.2273C62.0999 82.9763 62.4195 82.8509 62.7841 82.8509C63.1534 82.8509 63.4635 82.9763 63.7145 83.2273C63.9654 83.4735 64.0838 83.7718 64.0696 84.1222C64.0507 84.4678 63.9039 84.7661 63.6293 85.017C63.3594 85.2633 63.0398 85.3864 62.6705 85.3864ZM68.8938 98.2202C67.8332 98.2202 66.9644 97.9811 66.2873 97.5028C65.6102 97.0199 65.1391 96.3546 64.8739 95.5071C64.6088 94.6596 64.5662 93.6889 64.7461 92.5952C64.926 91.4872 65.293 90.5095 65.8469 89.6619C66.4057 88.8097 67.104 88.1444 67.9421 87.6662C68.7849 87.188 69.7201 86.9489 70.7475 86.9489C71.5761 86.9489 72.2887 87.1027 72.8853 87.4105C73.4819 87.7135 73.9341 88.1397 74.2418 88.6889C74.5496 89.2382 74.6822 89.8797 74.6396 90.6136H72.5728C72.5397 90.1023 72.3503 89.6619 72.0046 89.2926C71.659 88.9233 71.15 88.7386 70.4776 88.7386C69.8858 88.7386 69.3413 88.8949 68.8441 89.2074C68.3469 89.5152 67.9279 89.9555 67.587 90.5284C67.2461 91.0966 67.0141 91.7689 66.891 92.5455C66.7584 93.3409 66.7655 94.0275 66.9123 94.6051C67.0591 95.1828 67.329 95.6302 67.7219 95.9474C68.1149 96.2647 68.6097 96.4233 69.2063 96.4233C69.6135 96.4233 69.9923 96.3499 70.3427 96.2031C70.6978 96.0516 71.0103 95.8362 71.2802 95.5568C71.5548 95.2775 71.7679 94.9413 71.9194 94.5483H73.9933C73.7897 95.2538 73.4487 95.8835 72.9705 96.4375C72.497 96.9915 71.9147 97.4271 71.2234 97.7443C70.5321 98.0616 69.7556 98.2202 68.8938 98.2202ZM85.2273 89.7543L83.2457 90.0952C83.2031 89.8442 83.1155 89.6075 82.983 89.3849C82.8551 89.1624 82.6586 88.9825 82.3935 88.8452C82.1283 88.7031 81.7756 88.6321 81.3352 88.6321C80.7244 88.6321 80.1894 88.7718 79.7301 89.0511C79.2756 89.3305 79.0152 89.6856 78.9489 90.1165C78.8873 90.4669 78.9702 90.7509 79.1974 90.9688C79.4247 91.1818 79.8248 91.3594 80.3977 91.5014L82.0739 91.8991C83.0398 92.1312 83.7311 92.4934 84.1477 92.9858C84.5691 93.4735 84.7159 94.108 84.5881 94.8892C84.4792 95.5379 84.1951 96.1132 83.7358 96.6151C83.2813 97.117 82.6989 97.5099 81.9886 97.794C81.2784 98.0781 80.4877 98.2202 79.6165 98.2202C78.3759 98.2202 77.41 97.9574 76.7188 97.4318C76.0275 96.9063 75.6723 96.1629 75.6534 95.2017L77.7557 94.8892C77.7936 95.4242 77.9853 95.8291 78.331 96.1037C78.6813 96.3736 79.1667 96.5085 79.7869 96.5085C80.4972 96.5133 81.0914 96.3641 81.5696 96.0611C82.0478 95.758 82.3201 95.3911 82.3864 94.9602C82.4432 94.6241 82.3674 94.3447 82.1591 94.1222C81.9555 93.8996 81.5956 93.7292 81.0795 93.6108L79.3182 93.206C78.3333 92.974 77.6373 92.5999 77.2301 92.0838C76.8229 91.5677 76.6856 90.919 76.8182 90.1378C76.9223 89.4986 77.1922 88.9422 77.6278 88.4688C78.0682 87.9905 78.6245 87.6188 79.2969 87.3537C79.9692 87.0838 80.7126 86.9489 81.527 86.9489C82.7154 86.9489 83.608 87.2045 84.2045 87.7159C84.8011 88.2225 85.142 88.902 85.2273 89.7543ZM94.2756 83.4545H96.9389L99.7088 94.7614H99.8793L106.371 83.4545H109.034L106.619 98H104.531L106.286 87.4744H106.151L100.114 97.9787H98.3736L95.8452 87.4673H95.7102L93.9489 98H91.8608L94.2756 83.4545ZM112.786 98.2415C112.095 98.2415 111.491 98.1136 110.975 97.858C110.459 97.5975 110.078 97.2211 109.831 96.7287C109.585 96.2363 109.521 95.6326 109.64 94.9176C109.744 94.3021 109.947 93.7955 110.25 93.3977C110.558 93 110.932 92.6851 111.373 92.4531C111.813 92.2164 112.291 92.0388 112.807 91.9205C113.323 91.8021 113.844 91.7145 114.37 91.6577C115.033 91.5819 115.57 91.518 115.982 91.4659C116.399 91.4138 116.711 91.3333 116.919 91.2244C117.128 91.1108 117.253 90.9261 117.296 90.6705V90.6207C117.395 90.0052 117.305 89.527 117.026 89.1861C116.751 88.8404 116.273 88.6676 115.591 88.6676C114.881 88.6676 114.284 88.8239 113.801 89.1364C113.323 89.4489 112.971 89.7992 112.743 90.1875L110.84 89.733C111.181 89.0701 111.614 88.535 112.14 88.1278C112.67 87.7159 113.25 87.4176 113.88 87.233C114.509 87.0436 115.153 86.9489 115.811 86.9489C116.247 86.9489 116.699 87.0009 117.168 87.1051C117.637 87.2045 118.063 87.3892 118.446 87.6591C118.835 87.929 119.123 88.3149 119.313 88.8168C119.502 89.3139 119.531 89.9602 119.398 90.7557L118.198 98H116.124L116.38 96.5085H116.294C116.114 96.7831 115.864 97.053 115.542 97.3182C115.224 97.5833 114.836 97.8035 114.377 97.9787C113.917 98.1539 113.387 98.2415 112.786 98.2415ZM113.51 96.5369C114.102 96.5369 114.625 96.4209 115.08 96.1889C115.539 95.9569 115.911 95.6539 116.195 95.2798C116.479 94.901 116.657 94.4962 116.728 94.0653L116.962 92.6591C116.872 92.7348 116.713 92.8035 116.486 92.8651C116.264 92.9266 116.013 92.9811 115.733 93.0284C115.454 93.0758 115.179 93.116 114.909 93.1491C114.644 93.1823 114.424 93.2131 114.249 93.2415C113.832 93.2936 113.442 93.3812 113.077 93.5043C112.717 93.6274 112.417 93.8049 112.175 94.0369C111.934 94.2642 111.782 94.5672 111.721 94.946C111.635 95.4716 111.761 95.8693 112.097 96.1392C112.438 96.4044 112.909 96.5369 113.51 96.5369ZM124.222 91.5227L123.157 98H121.033L122.852 87.0909H124.89L124.592 88.8665H124.727C125.072 88.2841 125.543 87.8201 126.14 87.4744C126.741 87.1241 127.451 86.9489 128.271 86.9489C129.009 86.9489 129.629 87.1051 130.131 87.4176C130.638 87.7254 130.996 88.1847 131.204 88.7955C131.417 89.4062 131.45 90.1615 131.303 91.0611L130.138 98H128.015L129.13 91.3168C129.258 90.526 129.154 89.9081 128.817 89.4631C128.486 89.0133 127.958 88.7884 127.234 88.7884C126.741 88.7884 126.284 88.8949 125.863 89.108C125.446 89.321 125.094 89.6335 124.805 90.0455C124.521 90.4527 124.326 90.9451 124.222 91.5227ZM136.126 98.2415C135.434 98.2415 134.831 98.1136 134.315 97.858C133.799 97.5975 133.417 97.2211 133.171 96.7287C132.925 96.2363 132.861 95.6326 132.979 94.9176C133.084 94.3021 133.287 93.7955 133.59 93.3977C133.898 93 134.272 92.6851 134.712 92.4531C135.153 92.2164 135.631 92.0388 136.147 91.9205C136.663 91.8021 137.184 91.7145 137.71 91.6577C138.372 91.5819 138.91 91.518 139.322 91.4659C139.738 91.4138 140.051 91.3333 140.259 91.2244C140.468 91.1108 140.593 90.9261 140.636 90.6705V90.6207C140.735 90.0052 140.645 89.527 140.366 89.1861C140.091 88.8404 139.613 88.6676 138.931 88.6676C138.221 88.6676 137.624 88.8239 137.141 89.1364C136.663 89.4489 136.31 89.7992 136.083 90.1875L134.18 89.733C134.521 89.0701 134.954 88.535 135.479 88.1278C136.01 87.7159 136.59 87.4176 137.219 87.233C137.849 87.0436 138.493 86.9489 139.151 86.9489C139.587 86.9489 140.039 87.0009 140.508 87.1051C140.977 87.2045 141.403 87.3892 141.786 87.6591C142.174 87.929 142.463 88.3149 142.653 88.8168C142.842 89.3139 142.871 89.9602 142.738 90.7557L141.538 98H139.464L139.719 96.5085H139.634C139.454 96.7831 139.203 97.053 138.881 97.3182C138.564 97.5833 138.176 97.8035 137.717 97.9787C137.257 98.1539 136.727 98.2415 136.126 98.2415ZM136.85 96.5369C137.442 96.5369 137.965 96.4209 138.42 96.1889C138.879 95.9569 139.251 95.6539 139.535 95.2798C139.819 94.901 139.996 94.4962 140.067 94.0653L140.302 92.6591C140.212 92.7348 140.053 92.8035 139.826 92.8651C139.603 92.9266 139.353 92.9811 139.073 93.0284C138.794 93.0758 138.519 93.116 138.249 93.1491C137.984 93.1823 137.764 93.2131 137.589 93.2415C137.172 93.2936 136.781 93.3812 136.417 93.5043C136.057 93.6274 135.756 93.8049 135.515 94.0369C135.273 94.2642 135.122 94.5672 135.06 94.946C134.975 95.4716 135.101 95.8693 135.437 96.1392C135.778 96.4044 136.249 96.5369 136.85 96.5369ZM148.258 102.318C147.387 102.318 146.658 102.205 146.071 101.977C145.488 101.75 145.029 101.449 144.693 101.075C144.361 100.701 144.132 100.292 144.004 99.8466L145.964 99.0938C146.059 99.3021 146.191 99.5223 146.362 99.7543C146.532 99.991 146.786 100.192 147.122 100.358C147.463 100.524 147.929 100.607 148.521 100.607C149.326 100.607 150.029 100.41 150.63 100.017C151.232 99.6288 151.603 99.0085 151.745 98.1562L152.079 96.0114H151.944C151.783 96.2434 151.561 96.5014 151.277 96.7855C150.993 97.0696 150.626 97.3158 150.176 97.5241C149.726 97.7325 149.167 97.8366 148.5 97.8366C147.638 97.8366 146.895 97.6354 146.27 97.233C145.649 96.8258 145.204 96.2268 144.934 95.4361C144.664 94.6406 144.627 93.6629 144.821 92.5028C145.01 91.3428 145.37 90.3485 145.9 89.5199C146.435 88.6913 147.084 88.0568 147.846 87.6165C148.613 87.1714 149.435 86.9489 150.311 86.9489C150.988 86.9489 151.516 87.0625 151.895 87.2898C152.278 87.5123 152.562 87.7727 152.747 88.071C152.931 88.3693 153.066 88.6321 153.152 88.8594H153.308L153.599 87.0909H155.68L153.833 98.2415C153.682 99.179 153.339 99.9484 152.804 100.55C152.273 101.151 151.613 101.596 150.822 101.885C150.036 102.174 149.181 102.318 148.258 102.318ZM149.224 96.0753C149.83 96.0753 150.37 95.9332 150.843 95.6491C151.322 95.3603 151.719 94.9484 152.037 94.4134C152.354 93.8736 152.574 93.2273 152.697 92.4744C152.82 91.7405 152.813 91.0942 152.676 90.5355C152.543 89.9768 152.285 89.5412 151.902 89.2287C151.523 88.9115 151.028 88.7528 150.417 88.7528C149.773 88.7528 149.215 88.9186 148.741 89.25C148.268 89.5767 147.882 90.0218 147.583 90.5852C147.29 91.1487 147.084 91.7784 146.966 92.4744C146.852 93.1894 146.854 93.8168 146.973 94.3565C147.096 94.8963 147.342 95.3177 147.711 95.6207C148.081 95.9238 148.585 96.0753 149.224 96.0753ZM161.383 98.2202C160.313 98.2202 159.428 97.9905 158.727 97.5312C158.031 97.0672 157.543 96.4162 157.264 95.5781C156.984 94.7353 156.94 93.7481 157.129 92.6165C157.314 91.4991 157.685 90.5142 158.244 89.6619C158.803 88.8097 159.499 88.1444 160.332 87.6662C161.17 87.188 162.096 86.9489 163.109 86.9489C163.725 86.9489 164.305 87.0507 164.849 87.2543C165.398 87.4579 165.865 87.7775 166.248 88.2131C166.632 88.6487 166.897 89.2145 167.044 89.9105C167.195 90.6018 167.19 91.4422 167.029 92.4318L166.909 93.1847H158.23L158.478 91.5938H165.069C165.169 91.035 165.143 90.5402 164.991 90.1094C164.84 89.6738 164.579 89.3305 164.21 89.0795C163.845 88.8286 163.386 88.7031 162.832 88.7031C162.264 88.7031 161.734 88.8523 161.241 89.1506C160.749 89.4489 160.337 89.83 160.005 90.294C159.679 90.7533 159.473 91.2268 159.387 91.7145L159.139 93.1705C159.016 93.9659 159.037 94.6051 159.203 95.0881C159.373 95.571 159.672 95.9214 160.098 96.1392C160.524 96.357 161.056 96.4659 161.696 96.4659C162.108 96.4659 162.489 96.4091 162.839 96.2955C163.194 96.1771 163.509 96.0043 163.784 95.777C164.058 95.545 164.288 95.2562 164.473 94.9105L166.419 95.2727C166.158 95.8646 165.784 96.383 165.297 96.8281C164.809 97.2685 164.234 97.6117 163.571 97.858C162.913 98.0994 162.183 98.2202 161.383 98.2202ZM168.494 98L170.312 87.0909H172.351L172.053 88.8665H172.188C172.519 88.2652 172.969 87.7964 173.537 87.4602C174.11 87.1193 174.759 86.9489 175.483 86.9489C176.203 86.9489 176.783 87.1193 177.223 87.4602C177.668 87.8011 177.959 88.2699 178.097 88.8665H178.21C178.561 88.2794 179.051 87.813 179.68 87.4673C180.31 87.1217 181.018 86.9489 181.804 86.9489C182.784 86.9489 183.537 87.2614 184.062 87.8864C184.593 88.5066 184.754 89.4394 184.545 90.6847L183.324 98H181.193L182.386 90.8835C182.505 90.1402 182.391 89.6051 182.045 89.2784C181.7 88.947 181.248 88.7812 180.689 88.7812C179.998 88.7812 179.425 88.9943 178.97 89.4205C178.516 89.8419 178.236 90.384 178.132 91.0469L176.96 98H174.851L176.065 90.7486C176.16 90.152 176.051 89.6761 175.739 89.321C175.431 88.9612 174.981 88.7812 174.389 88.7812C173.987 88.7812 173.596 88.8878 173.217 89.1009C172.843 89.3139 172.524 89.6075 172.259 89.9815C171.993 90.3556 171.821 90.7865 171.74 91.2741L170.618 98H168.494ZM190.836 98.2202C189.766 98.2202 188.881 97.9905 188.18 97.5312C187.484 97.0672 186.996 96.4162 186.717 95.5781C186.438 94.7353 186.393 93.7481 186.582 92.6165C186.767 91.4991 187.138 90.5142 187.697 89.6619C188.256 88.8097 188.952 88.1444 189.785 87.6662C190.623 87.188 191.549 86.9489 192.562 86.9489C193.178 86.9489 193.758 87.0507 194.302 87.2543C194.851 87.4579 195.318 87.7775 195.701 88.2131C196.085 88.6487 196.35 89.2145 196.497 89.9105C196.648 90.6018 196.644 91.4422 196.483 92.4318L196.362 93.1847H187.683L187.931 91.5938H194.522C194.622 91.035 194.596 90.5402 194.444 90.1094C194.293 89.6738 194.032 89.3305 193.663 89.0795C193.298 88.8286 192.839 88.7031 192.285 88.7031C191.717 88.7031 191.187 88.8523 190.694 89.1506C190.202 89.4489 189.79 89.83 189.458 90.294C189.132 90.7533 188.926 91.2268 188.841 91.7145L188.592 93.1705C188.469 93.9659 188.49 94.6051 188.656 95.0881C188.826 95.571 189.125 95.9214 189.551 96.1392C189.977 96.357 190.51 96.4659 191.149 96.4659C191.561 96.4659 191.942 96.4091 192.292 96.2955C192.647 96.1771 192.962 96.0043 193.237 95.777C193.511 95.545 193.741 95.2562 193.926 94.9105L195.872 95.2727C195.611 95.8646 195.237 96.383 194.75 96.8281C194.262 97.2685 193.687 97.6117 193.024 97.858C192.366 98.0994 191.636 98.2202 190.836 98.2202ZM201.136 91.5227L200.071 98H197.947L199.766 87.0909H201.804L201.506 88.8665H201.641C201.986 88.2841 202.457 87.8201 203.054 87.4744C203.655 87.1241 204.366 86.9489 205.185 86.9489C205.923 86.9489 206.544 87.1051 207.045 87.4176C207.552 87.7254 207.91 88.1847 208.118 88.7955C208.331 89.4062 208.364 90.1615 208.217 91.0611L207.053 98H204.929L206.044 91.3168C206.172 90.526 206.068 89.9081 205.732 89.4631C205.4 89.0133 204.872 88.7884 204.148 88.7884C203.655 88.7884 203.198 88.8949 202.777 89.108C202.36 89.321 202.008 89.6335 201.719 90.0455C201.435 90.4527 201.241 90.9451 201.136 91.5227ZM216.804 87.0909L216.527 88.7955H210.568L210.845 87.0909H216.804ZM212.869 84.4773H214.993L213.274 94.7969C213.208 95.2088 213.22 95.5189 213.31 95.7273C213.4 95.9309 213.537 96.0705 213.722 96.1463C213.911 96.2173 214.122 96.2528 214.354 96.2528C214.524 96.2528 214.673 96.241 214.801 96.2173C214.929 96.1937 215.031 96.1747 215.107 96.1605L215.22 97.9148C215.078 97.9621 214.886 98.0095 214.645 98.0568C214.408 98.1089 214.119 98.1373 213.778 98.142C213.22 98.1515 212.715 98.0521 212.266 97.8438C211.816 97.6307 211.48 97.3087 211.257 96.8778C211.035 96.4422 210.98 95.8954 211.094 95.2372L212.869 84.4773Z" fill="black"/>
</svg>
